M48
; DRILL file {KiCad (5.1.9)-1} date 02/24/21 20:28:46
; FORMAT={-:-/ absolute / metric / decimal}
; #@! TF.CreationDate,2021-02-24T20:28:46+08:00
; #@! TF.GenerationSoftware,Kicad,Pcbnew,(5.1.9)-1
; #@! TF.FileFunction,Plated,1,2,PTH
FMAT,2
METRIC
T1C0.300
T2C0.400
T3C0.600
T4C1.000
T5C1.500
T6C1.700
%
G90
G05
T1
X139.446Y-100.33
X141.986Y-100.33
X144.272Y-100.33
X146.812Y-100.33
X149.86Y-100.33
X152.654Y-100.33
X155.448Y-100.33
X158.242Y-100.33
X170.942Y-101.6
X172.974Y-101.6
X175.006Y-101.6
X177.038Y-101.6
X179.07Y-101.6
X180.848Y-101.6
X182.626Y-101.6
X184.15Y-101.6
X185.928Y-101.6
X187.706Y-101.6
X189.738Y-101.6
X191.77Y-101.6
X193.548Y-101.6
X195.326Y-101.6
X197.358Y-101.6
X199.644Y-101.6
X201.422Y-101.6
X203.454Y-101.6
X205.486Y-101.6
T2
X168.554Y-92.056
X177.45Y-92.16
X180.517Y-85.7
X195.084Y-85.112
T4
X162.306Y-84.836
X162.306Y-87.376
X162.306Y-89.916
X162.306Y-92.456
X162.306Y-94.996
X162.306Y-98.298
X162.306Y-101.346
X164.846Y-84.836
X164.846Y-87.376
X164.846Y-89.916
X164.846Y-92.456
X164.846Y-94.996
X164.846Y-98.298
X164.846Y-101.346
X167.386Y-101.346
X205.994Y-82.042
X205.994Y-84.582
X205.994Y-87.122
X205.994Y-89.662
X205.994Y-92.202
T5
X210.82Y-97.79
T6
X208.28Y-95.25
X208.28Y-100.33
X213.36Y-95.25
X213.36Y-100.33
T3
X138.925Y-88.898
X138.725Y-88.898
X138.525Y-88.898
X138.325Y-88.898
X138.925Y-97.538
X138.725Y-97.538
X138.525Y-97.538
X138.325Y-97.538
X143.355Y-88.898
X143.155Y-88.898
X142.955Y-88.898
X142.755Y-88.898
X142.555Y-88.898
X142.255Y-88.898
X143.355Y-97.538
X143.155Y-97.538
X142.955Y-97.538
X142.755Y-97.538
X142.555Y-97.538
X142.255Y-97.538
T0
M30
