%TF.GenerationSoftware,KiCad,Pcbnew,(5.1.9)-1*%
%TF.CreationDate,2021-02-24T20:28:46+08:00*%
%TF.ProjectId,M-HL10-kit,4d2d484c-3130-42d6-9b69-742e6b696361,rev?*%
%TF.SameCoordinates,Original*%
%TF.FileFunction,Legend,Top*%
%TF.FilePolarity,Positive*%
%FSLAX46Y46*%
G04 Gerber Fmt 4.6, Leading zero omitted, Abs format (unit mm)*
G04 Created by KiCad (PCBNEW (5.1.9)-1) date 2021-02-24 20:28:46*
%MOMM*%
%LPD*%
G01*
G04 APERTURE LIST*
%ADD10C,0.150000*%
%ADD11C,0.120000*%
%ADD12C,0.165000*%
%ADD13C,0.254000*%
G04 APERTURE END LIST*
D10*
X189904857Y-85526571D02*
X190047714Y-85574190D01*
X190095333Y-85621809D01*
X190142952Y-85717047D01*
X190142952Y-85859904D01*
X190095333Y-85955142D01*
X190047714Y-86002761D01*
X189952476Y-86050380D01*
X189571523Y-86050380D01*
X189571523Y-85050380D01*
X189904857Y-85050380D01*
X190000095Y-85098000D01*
X190047714Y-85145619D01*
X190095333Y-85240857D01*
X190095333Y-85336095D01*
X190047714Y-85431333D01*
X190000095Y-85478952D01*
X189904857Y-85526571D01*
X189571523Y-85526571D01*
X190762000Y-85050380D02*
X190952476Y-85050380D01*
X191047714Y-85098000D01*
X191142952Y-85193238D01*
X191190571Y-85383714D01*
X191190571Y-85717047D01*
X191142952Y-85907523D01*
X191047714Y-86002761D01*
X190952476Y-86050380D01*
X190762000Y-86050380D01*
X190666761Y-86002761D01*
X190571523Y-85907523D01*
X190523904Y-85717047D01*
X190523904Y-85383714D01*
X190571523Y-85193238D01*
X190666761Y-85098000D01*
X190762000Y-85050380D01*
X191809619Y-85050380D02*
X192000095Y-85050380D01*
X192095333Y-85098000D01*
X192190571Y-85193238D01*
X192238190Y-85383714D01*
X192238190Y-85717047D01*
X192190571Y-85907523D01*
X192095333Y-86002761D01*
X192000095Y-86050380D01*
X191809619Y-86050380D01*
X191714380Y-86002761D01*
X191619142Y-85907523D01*
X191571523Y-85717047D01*
X191571523Y-85383714D01*
X191619142Y-85193238D01*
X191714380Y-85098000D01*
X191809619Y-85050380D01*
X192523904Y-85050380D02*
X193095333Y-85050380D01*
X192809619Y-86050380D02*
X192809619Y-85050380D01*
X182586380Y-86050380D02*
X182253047Y-85574190D01*
X182014952Y-86050380D02*
X182014952Y-85050380D01*
X182395904Y-85050380D01*
X182491142Y-85098000D01*
X182538761Y-85145619D01*
X182586380Y-85240857D01*
X182586380Y-85383714D01*
X182538761Y-85478952D01*
X182491142Y-85526571D01*
X182395904Y-85574190D01*
X182014952Y-85574190D01*
X182967333Y-86002761D02*
X183110190Y-86050380D01*
X183348285Y-86050380D01*
X183443523Y-86002761D01*
X183491142Y-85955142D01*
X183538761Y-85859904D01*
X183538761Y-85764666D01*
X183491142Y-85669428D01*
X183443523Y-85621809D01*
X183348285Y-85574190D01*
X183157809Y-85526571D01*
X183062571Y-85478952D01*
X183014952Y-85431333D01*
X182967333Y-85336095D01*
X182967333Y-85240857D01*
X183014952Y-85145619D01*
X183062571Y-85098000D01*
X183157809Y-85050380D01*
X183395904Y-85050380D01*
X183538761Y-85098000D01*
X183824476Y-85050380D02*
X184395904Y-85050380D01*
X184110190Y-86050380D02*
X184110190Y-85050380D01*
X169124666Y-85050380D02*
X169362761Y-86050380D01*
X169553238Y-85336095D01*
X169743714Y-86050380D01*
X169981809Y-85050380D01*
X170315142Y-85764666D02*
X170791333Y-85764666D01*
X170219904Y-86050380D02*
X170553238Y-85050380D01*
X170886571Y-86050380D01*
X171219904Y-86050380D02*
X171219904Y-85050380D01*
X171791333Y-86050380D02*
X171362761Y-85478952D01*
X171791333Y-85050380D02*
X171219904Y-85621809D01*
X172219904Y-85526571D02*
X172553238Y-85526571D01*
X172696095Y-86050380D02*
X172219904Y-86050380D01*
X172219904Y-85050380D01*
X172696095Y-85050380D01*
X173124666Y-85050380D02*
X173124666Y-85859904D01*
X173172285Y-85955142D01*
X173219904Y-86002761D01*
X173315142Y-86050380D01*
X173505619Y-86050380D01*
X173600857Y-86002761D01*
X173648476Y-85955142D01*
X173696095Y-85859904D01*
X173696095Y-85050380D01*
X174172285Y-86050380D02*
X174172285Y-85050380D01*
X174553238Y-85050380D01*
X174648476Y-85098000D01*
X174696095Y-85145619D01*
X174743714Y-85240857D01*
X174743714Y-85383714D01*
X174696095Y-85478952D01*
X174648476Y-85526571D01*
X174553238Y-85574190D01*
X174172285Y-85574190D01*
X201707904Y-91654380D02*
X202326952Y-91654380D01*
X201993619Y-92035333D01*
X202136476Y-92035333D01*
X202231714Y-92082952D01*
X202279333Y-92130571D01*
X202326952Y-92225809D01*
X202326952Y-92463904D01*
X202279333Y-92559142D01*
X202231714Y-92606761D01*
X202136476Y-92654380D01*
X201850761Y-92654380D01*
X201755523Y-92606761D01*
X201707904Y-92559142D01*
X202612666Y-91654380D02*
X202946000Y-92654380D01*
X203279333Y-91654380D01*
X203517428Y-91654380D02*
X204136476Y-91654380D01*
X203803142Y-92035333D01*
X203946000Y-92035333D01*
X204041238Y-92082952D01*
X204088857Y-92130571D01*
X204136476Y-92225809D01*
X204136476Y-92463904D01*
X204088857Y-92559142D01*
X204041238Y-92606761D01*
X203946000Y-92654380D01*
X203660285Y-92654380D01*
X203565047Y-92606761D01*
X203517428Y-92559142D01*
X201922190Y-90114380D02*
X201922190Y-89114380D01*
X202160285Y-89114380D01*
X202303142Y-89162000D01*
X202398380Y-89257238D01*
X202446000Y-89352476D01*
X202493619Y-89542952D01*
X202493619Y-89685809D01*
X202446000Y-89876285D01*
X202398380Y-89971523D01*
X202303142Y-90066761D01*
X202160285Y-90114380D01*
X201922190Y-90114380D01*
X202922190Y-90114380D02*
X202922190Y-89114380D01*
X203588857Y-89114380D02*
X203779333Y-89114380D01*
X203874571Y-89162000D01*
X203969809Y-89257238D01*
X204017428Y-89447714D01*
X204017428Y-89781047D01*
X203969809Y-89971523D01*
X203874571Y-90066761D01*
X203779333Y-90114380D01*
X203588857Y-90114380D01*
X203493619Y-90066761D01*
X203398380Y-89971523D01*
X203350761Y-89781047D01*
X203350761Y-89447714D01*
X203398380Y-89257238D01*
X203493619Y-89162000D01*
X203588857Y-89114380D01*
X202350761Y-87479142D02*
X202303142Y-87526761D01*
X202160285Y-87574380D01*
X202065047Y-87574380D01*
X201922190Y-87526761D01*
X201826952Y-87431523D01*
X201779333Y-87336285D01*
X201731714Y-87145809D01*
X201731714Y-87002952D01*
X201779333Y-86812476D01*
X201826952Y-86717238D01*
X201922190Y-86622000D01*
X202065047Y-86574380D01*
X202160285Y-86574380D01*
X202303142Y-86622000D01*
X202350761Y-86669619D01*
X203255523Y-87574380D02*
X202779333Y-87574380D01*
X202779333Y-86574380D01*
X203588857Y-87574380D02*
X203588857Y-86574380D01*
X204160285Y-87574380D02*
X203731714Y-87002952D01*
X204160285Y-86574380D02*
X203588857Y-87145809D01*
X203461904Y-84082000D02*
X203366666Y-84034380D01*
X203223809Y-84034380D01*
X203080952Y-84082000D01*
X202985714Y-84177238D01*
X202938095Y-84272476D01*
X202890476Y-84462952D01*
X202890476Y-84605809D01*
X202938095Y-84796285D01*
X202985714Y-84891523D01*
X203080952Y-84986761D01*
X203223809Y-85034380D01*
X203319047Y-85034380D01*
X203461904Y-84986761D01*
X203509523Y-84939142D01*
X203509523Y-84605809D01*
X203319047Y-84605809D01*
X202144380Y-82748380D02*
X201811047Y-82272190D01*
X201572952Y-82748380D02*
X201572952Y-81748380D01*
X201953904Y-81748380D01*
X202049142Y-81796000D01*
X202096761Y-81843619D01*
X202144380Y-81938857D01*
X202144380Y-82081714D01*
X202096761Y-82176952D01*
X202049142Y-82224571D01*
X201953904Y-82272190D01*
X201572952Y-82272190D01*
X202525333Y-82700761D02*
X202668190Y-82748380D01*
X202906285Y-82748380D01*
X203001523Y-82700761D01*
X203049142Y-82653142D01*
X203096761Y-82557904D01*
X203096761Y-82462666D01*
X203049142Y-82367428D01*
X203001523Y-82319809D01*
X202906285Y-82272190D01*
X202715809Y-82224571D01*
X202620571Y-82176952D01*
X202572952Y-82129333D01*
X202525333Y-82034095D01*
X202525333Y-81938857D01*
X202572952Y-81843619D01*
X202620571Y-81796000D01*
X202715809Y-81748380D01*
X202953904Y-81748380D01*
X203096761Y-81796000D01*
X203382476Y-81748380D02*
X203953904Y-81748380D01*
X203668190Y-82748380D02*
X203668190Y-81748380D01*
X166647904Y-85288380D02*
X166647904Y-84288380D01*
X167028857Y-84288380D01*
X167124095Y-84336000D01*
X167171714Y-84383619D01*
X167219333Y-84478857D01*
X167219333Y-84621714D01*
X167171714Y-84716952D01*
X167124095Y-84764571D01*
X167028857Y-84812190D01*
X166647904Y-84812190D01*
X167552666Y-84288380D02*
X168171714Y-84288380D01*
X167838380Y-84669333D01*
X167981238Y-84669333D01*
X168076476Y-84716952D01*
X168124095Y-84764571D01*
X168171714Y-84859809D01*
X168171714Y-85097904D01*
X168124095Y-85193142D01*
X168076476Y-85240761D01*
X167981238Y-85288380D01*
X167695523Y-85288380D01*
X167600285Y-85240761D01*
X167552666Y-85193142D01*
X167219333Y-88082380D02*
X166886000Y-87606190D01*
X166647904Y-88082380D02*
X166647904Y-87082380D01*
X167028857Y-87082380D01*
X167124095Y-87130000D01*
X167171714Y-87177619D01*
X167219333Y-87272857D01*
X167219333Y-87415714D01*
X167171714Y-87510952D01*
X167124095Y-87558571D01*
X167028857Y-87606190D01*
X166647904Y-87606190D01*
X167552666Y-87082380D02*
X168219333Y-88082380D01*
X168219333Y-87082380D02*
X167552666Y-88082380D01*
X166624095Y-89368380D02*
X167195523Y-89368380D01*
X166909809Y-90368380D02*
X166909809Y-89368380D01*
X167433619Y-89368380D02*
X168100285Y-90368380D01*
X168100285Y-89368380D02*
X167433619Y-90368380D01*
X167393904Y-91956000D02*
X167298666Y-91908380D01*
X167155809Y-91908380D01*
X167012952Y-91956000D01*
X166917714Y-92051238D01*
X166870095Y-92146476D01*
X166822476Y-92336952D01*
X166822476Y-92479809D01*
X166870095Y-92670285D01*
X166917714Y-92765523D01*
X167012952Y-92860761D01*
X167155809Y-92908380D01*
X167251047Y-92908380D01*
X167393904Y-92860761D01*
X167441523Y-92813142D01*
X167441523Y-92479809D01*
X167251047Y-92479809D01*
X166401904Y-94702380D02*
X167020952Y-94702380D01*
X166687619Y-95083333D01*
X166830476Y-95083333D01*
X166925714Y-95130952D01*
X166973333Y-95178571D01*
X167020952Y-95273809D01*
X167020952Y-95511904D01*
X166973333Y-95607142D01*
X166925714Y-95654761D01*
X166830476Y-95702380D01*
X166544761Y-95702380D01*
X166449523Y-95654761D01*
X166401904Y-95607142D01*
X167306666Y-94702380D02*
X167640000Y-95702380D01*
X167973333Y-94702380D01*
X168211428Y-94702380D02*
X168830476Y-94702380D01*
X168497142Y-95083333D01*
X168640000Y-95083333D01*
X168735238Y-95130952D01*
X168782857Y-95178571D01*
X168830476Y-95273809D01*
X168830476Y-95511904D01*
X168782857Y-95607142D01*
X168735238Y-95654761D01*
X168640000Y-95702380D01*
X168354285Y-95702380D01*
X168259047Y-95654761D01*
X168211428Y-95607142D01*
X160027904Y-94496000D02*
X159932666Y-94448380D01*
X159789809Y-94448380D01*
X159646952Y-94496000D01*
X159551714Y-94591238D01*
X159504095Y-94686476D01*
X159456476Y-94876952D01*
X159456476Y-95019809D01*
X159504095Y-95210285D01*
X159551714Y-95305523D01*
X159646952Y-95400761D01*
X159789809Y-95448380D01*
X159885047Y-95448380D01*
X160027904Y-95400761D01*
X160075523Y-95353142D01*
X160075523Y-95019809D01*
X159885047Y-95019809D01*
X158297714Y-93114761D02*
X158440571Y-93162380D01*
X158678666Y-93162380D01*
X158773904Y-93114761D01*
X158821523Y-93067142D01*
X158869142Y-92971904D01*
X158869142Y-92876666D01*
X158821523Y-92781428D01*
X158773904Y-92733809D01*
X158678666Y-92686190D01*
X158488190Y-92638571D01*
X158392952Y-92590952D01*
X158345333Y-92543333D01*
X158297714Y-92448095D01*
X158297714Y-92352857D01*
X158345333Y-92257619D01*
X158392952Y-92210000D01*
X158488190Y-92162380D01*
X158726285Y-92162380D01*
X158869142Y-92210000D01*
X159297714Y-93162380D02*
X159297714Y-92162380D01*
X159535809Y-92162380D01*
X159678666Y-92210000D01*
X159773904Y-92305238D01*
X159821523Y-92400476D01*
X159869142Y-92590952D01*
X159869142Y-92733809D01*
X159821523Y-92924285D01*
X159773904Y-93019523D01*
X159678666Y-93114761D01*
X159535809Y-93162380D01*
X159297714Y-93162380D01*
X160250095Y-92876666D02*
X160726285Y-92876666D01*
X160154857Y-93162380D02*
X160488190Y-92162380D01*
X160821523Y-93162380D01*
X158321523Y-90320761D02*
X158464380Y-90368380D01*
X158702476Y-90368380D01*
X158797714Y-90320761D01*
X158845333Y-90273142D01*
X158892952Y-90177904D01*
X158892952Y-90082666D01*
X158845333Y-89987428D01*
X158797714Y-89939809D01*
X158702476Y-89892190D01*
X158512000Y-89844571D01*
X158416761Y-89796952D01*
X158369142Y-89749333D01*
X158321523Y-89654095D01*
X158321523Y-89558857D01*
X158369142Y-89463619D01*
X158416761Y-89416000D01*
X158512000Y-89368380D01*
X158750095Y-89368380D01*
X158892952Y-89416000D01*
X159892952Y-90273142D02*
X159845333Y-90320761D01*
X159702476Y-90368380D01*
X159607238Y-90368380D01*
X159464380Y-90320761D01*
X159369142Y-90225523D01*
X159321523Y-90130285D01*
X159273904Y-89939809D01*
X159273904Y-89796952D01*
X159321523Y-89606476D01*
X159369142Y-89511238D01*
X159464380Y-89416000D01*
X159607238Y-89368380D01*
X159702476Y-89368380D01*
X159845333Y-89416000D01*
X159892952Y-89463619D01*
X160797714Y-90368380D02*
X160321523Y-90368380D01*
X160321523Y-89368380D01*
X159051714Y-87542666D02*
X159527904Y-87542666D01*
X158956476Y-87828380D02*
X159289809Y-86828380D01*
X159623142Y-87828380D01*
X160146952Y-86828380D02*
X160242190Y-86828380D01*
X160337428Y-86876000D01*
X160385047Y-86923619D01*
X160432666Y-87018857D01*
X160480285Y-87209333D01*
X160480285Y-87447428D01*
X160432666Y-87637904D01*
X160385047Y-87733142D01*
X160337428Y-87780761D01*
X160242190Y-87828380D01*
X160146952Y-87828380D01*
X160051714Y-87780761D01*
X160004095Y-87733142D01*
X159956476Y-87637904D01*
X159908857Y-87447428D01*
X159908857Y-87209333D01*
X159956476Y-87018857D01*
X160004095Y-86923619D01*
X160051714Y-86876000D01*
X160146952Y-86828380D01*
X159051714Y-85002666D02*
X159527904Y-85002666D01*
X158956476Y-85288380D02*
X159289809Y-84288380D01*
X159623142Y-85288380D01*
X160480285Y-85288380D02*
X159908857Y-85288380D01*
X160194571Y-85288380D02*
X160194571Y-84288380D01*
X160099333Y-84431238D01*
X160004095Y-84526476D01*
X159908857Y-84574095D01*
D11*
%TO.C,J5*%
X205994000Y-93532000D02*
X204884000Y-93532000D01*
X204884000Y-93532000D02*
X204884000Y-92202000D01*
X216084000Y-93532000D02*
X216084000Y-80712000D01*
X216084000Y-80712000D02*
X207454000Y-80712000D01*
X207454000Y-93532000D02*
X207454000Y-80712000D01*
X216084000Y-93532000D02*
X207454000Y-93532000D01*
X216084000Y-83312000D02*
X207454000Y-83312000D01*
X216084000Y-85852000D02*
X207454000Y-85852000D01*
X216084000Y-88392000D02*
X207454000Y-88392000D01*
X216084000Y-90932000D02*
X207454000Y-90932000D01*
X207454000Y-81682000D02*
X207044000Y-81682000D01*
X207454000Y-82402000D02*
X207044000Y-82402000D01*
X207454000Y-84222000D02*
X207044000Y-84222000D01*
X207454000Y-84942000D02*
X207044000Y-84942000D01*
X207454000Y-86762000D02*
X207044000Y-86762000D01*
X207454000Y-87482000D02*
X207044000Y-87482000D01*
X207454000Y-89302000D02*
X207044000Y-89302000D01*
X207454000Y-90022000D02*
X207044000Y-90022000D01*
X207454000Y-91842000D02*
X207104000Y-91842000D01*
X207454000Y-92562000D02*
X207104000Y-92562000D01*
X216084000Y-91050100D02*
X207454000Y-91050100D01*
X216084000Y-91168195D02*
X207454000Y-91168195D01*
X216084000Y-91286290D02*
X207454000Y-91286290D01*
X216084000Y-91404385D02*
X207454000Y-91404385D01*
X216084000Y-91522480D02*
X207454000Y-91522480D01*
X216084000Y-91640575D02*
X207454000Y-91640575D01*
X216084000Y-91758670D02*
X207454000Y-91758670D01*
X216084000Y-91876765D02*
X207454000Y-91876765D01*
X216084000Y-91994860D02*
X207454000Y-91994860D01*
X216084000Y-92112955D02*
X207454000Y-92112955D01*
X216084000Y-92231050D02*
X207454000Y-92231050D01*
X216084000Y-92349145D02*
X207454000Y-92349145D01*
X216084000Y-92467240D02*
X207454000Y-92467240D01*
X216084000Y-92585335D02*
X207454000Y-92585335D01*
X216084000Y-92703430D02*
X207454000Y-92703430D01*
X216084000Y-92821525D02*
X207454000Y-92821525D01*
X216084000Y-92939620D02*
X207454000Y-92939620D01*
X216084000Y-93057715D02*
X207454000Y-93057715D01*
X216084000Y-93175810D02*
X207454000Y-93175810D01*
X216084000Y-93293905D02*
X207454000Y-93293905D01*
X216084000Y-93412000D02*
X207454000Y-93412000D01*
%TO.C,U3*%
X144700000Y-84870000D02*
X144700000Y-86180000D01*
X144700000Y-86180000D02*
X141980000Y-86180000D01*
X140840000Y-81690000D02*
X141980000Y-81690000D01*
X144700000Y-81460000D02*
X144700000Y-82770000D01*
X141980000Y-81460000D02*
X144700000Y-81460000D01*
X141980000Y-81460000D02*
X141980000Y-81690000D01*
X141980000Y-86180000D02*
X141980000Y-85950000D01*
%TO.C,U2*%
X153162000Y-96540000D02*
X155112000Y-96540000D01*
X153162000Y-96540000D02*
X151212000Y-96540000D01*
X153162000Y-91420000D02*
X155112000Y-91420000D01*
X153162000Y-91420000D02*
X149712000Y-91420000D01*
D12*
%TO.C,U1*%
X170488000Y-100060000D02*
X196904000Y-100060000D01*
X196904000Y-100060000D02*
X196904000Y-86630000D01*
X170488000Y-86630000D02*
X196904000Y-86630000D01*
X170488000Y-100060000D02*
X170488000Y-86630000D01*
D11*
%TO.C,R4*%
X156106724Y-85104500D02*
X155597276Y-85104500D01*
X156106724Y-84059500D02*
X155597276Y-84059500D01*
%TO.C,R3*%
X156106724Y-82310500D02*
X155597276Y-82310500D01*
X156106724Y-81265500D02*
X155597276Y-81265500D01*
%TO.C,R2*%
X146558724Y-95518500D02*
X146049276Y-95518500D01*
X146558724Y-94473500D02*
X146049276Y-94473500D01*
%TO.C,R1*%
X146558724Y-92470500D02*
X146049276Y-92470500D01*
X146558724Y-91425500D02*
X146049276Y-91425500D01*
%TO.C,J4*%
X141550000Y-88638000D02*
X139630000Y-88638000D01*
X139630000Y-97798000D02*
X141550000Y-97798000D01*
X137620000Y-97798000D02*
X135915000Y-97798000D01*
X135915000Y-88638000D02*
X137620000Y-88638000D01*
X135915000Y-97798000D02*
X135915000Y-88638000D01*
%TO.C,TEST*%
X163576000Y-96968000D02*
X163576000Y-99628000D01*
X163576000Y-96968000D02*
X160976000Y-96968000D01*
X160976000Y-96968000D02*
X160976000Y-99628000D01*
X163576000Y-99628000D02*
X160976000Y-99628000D01*
X166176000Y-99628000D02*
X164846000Y-99628000D01*
X166176000Y-98298000D02*
X166176000Y-99628000D01*
%TO.C,R*%
X152946000Y-83897000D02*
X150461000Y-83897000D01*
X150461000Y-83897000D02*
X150461000Y-85267000D01*
X150461000Y-85267000D02*
X152946000Y-85267000D01*
%TO.C,T*%
X152896000Y-81103000D02*
X150411000Y-81103000D01*
X150411000Y-81103000D02*
X150411000Y-82473000D01*
X150411000Y-82473000D02*
X152896000Y-82473000D01*
%TO.C,C8*%
X147830000Y-85859233D02*
X147830000Y-86151767D01*
X146810000Y-85859233D02*
X146810000Y-86151767D01*
%TO.C,C6*%
X138682000Y-84828767D02*
X138682000Y-84536233D01*
X139702000Y-84828767D02*
X139702000Y-84536233D01*
%TO.C,C4*%
X203348000Y-98473335D02*
X203348000Y-98241665D01*
X204068000Y-98473335D02*
X204068000Y-98241665D01*
%TO.C,C3*%
X201731835Y-98150000D02*
X201500165Y-98150000D01*
X201731835Y-97430000D02*
X201500165Y-97430000D01*
%TO.C,C2*%
X199030000Y-98473335D02*
X199030000Y-98241665D01*
X199750000Y-98473335D02*
X199750000Y-98241665D01*
%TO.C,C1*%
X152900267Y-90172000D02*
X152607733Y-90172000D01*
X152900267Y-89152000D02*
X152607733Y-89152000D01*
%TO.C,J2*%
X160976000Y-83506000D02*
X163576000Y-83506000D01*
X160976000Y-83506000D02*
X160976000Y-96326000D01*
X160976000Y-96326000D02*
X166176000Y-96326000D01*
X166176000Y-86106000D02*
X166176000Y-96326000D01*
X163576000Y-86106000D02*
X166176000Y-86106000D01*
X163576000Y-83506000D02*
X163576000Y-86106000D01*
X166176000Y-83506000D02*
X166176000Y-84836000D01*
X164846000Y-83506000D02*
X166176000Y-83506000D01*
%TO.C,AT*%
X160976000Y-101346000D02*
X160976000Y-100016000D01*
X160976000Y-100016000D02*
X162306000Y-100016000D01*
X163576000Y-100016000D02*
X168716000Y-100016000D01*
X168716000Y-102676000D02*
X168716000Y-100016000D01*
X163576000Y-102676000D02*
X168716000Y-102676000D01*
X163576000Y-102676000D02*
X163576000Y-100016000D01*
D13*
%TO.C,SW3*%
X195467232Y-82800000D02*
G75*
G03*
X195467232Y-82800000I-967232J0D01*
G01*
X191452000Y-81000004D02*
X191452000Y-82074855D01*
X194500000Y-81000004D02*
X191452000Y-81000004D01*
X197548000Y-84599996D02*
X197548000Y-83525145D01*
X194500000Y-84599996D02*
X197548000Y-84599996D01*
X191452000Y-84599996D02*
X191452000Y-83525145D01*
X194500000Y-84599996D02*
X191452000Y-84599996D01*
X197548000Y-81000004D02*
X197548000Y-82074855D01*
X194500000Y-81000004D02*
X197548000Y-81000004D01*
%TO.C,SW2*%
X183847232Y-82804000D02*
G75*
G03*
X183847232Y-82804000I-967232J0D01*
G01*
X179832000Y-81004004D02*
X179832000Y-82078855D01*
X182880000Y-81004004D02*
X179832000Y-81004004D01*
X185928000Y-84603996D02*
X185928000Y-83529145D01*
X182880000Y-84603996D02*
X185928000Y-84603996D01*
X179832000Y-84603996D02*
X179832000Y-83529145D01*
X182880000Y-84603996D02*
X179832000Y-84603996D01*
X185928000Y-81004004D02*
X185928000Y-82078855D01*
X182880000Y-81004004D02*
X185928000Y-81004004D01*
%TO.C,SW1*%
X172767232Y-82804000D02*
G75*
G03*
X172767232Y-82804000I-967232J0D01*
G01*
X168752000Y-81004004D02*
X168752000Y-82078855D01*
X171800000Y-81004004D02*
X168752000Y-81004004D01*
X174848000Y-84603996D02*
X174848000Y-83529145D01*
X171800000Y-84603996D02*
X174848000Y-84603996D01*
X168752000Y-84603996D02*
X168752000Y-83529145D01*
X171800000Y-84603996D02*
X168752000Y-84603996D01*
X174848000Y-81004004D02*
X174848000Y-82078855D01*
X171800000Y-81004004D02*
X174848000Y-81004004D01*
D11*
%TO.C,J6*%
X209370000Y-94435000D02*
X212270000Y-94435000D01*
X209370000Y-101145000D02*
X212270000Y-101145000D01*
X214175000Y-96340000D02*
X214175000Y-99240000D01*
X207465000Y-96340000D02*
X207465000Y-99240000D01*
%TO.C,C7*%
X147810000Y-82683767D02*
X147810000Y-82391233D01*
X146790000Y-82683767D02*
X146790000Y-82391233D01*
%TO.C,C5*%
X138010000Y-84883767D02*
X138010000Y-84591233D01*
X136990000Y-84883767D02*
X136990000Y-84591233D01*
%TO.C,J5*%
D10*
X210040666Y-94424380D02*
X210040666Y-95138666D01*
X209993047Y-95281523D01*
X209897809Y-95376761D01*
X209754952Y-95424380D01*
X209659714Y-95424380D01*
X210993047Y-94424380D02*
X210516857Y-94424380D01*
X210469238Y-94900571D01*
X210516857Y-94852952D01*
X210612095Y-94805333D01*
X210850190Y-94805333D01*
X210945428Y-94852952D01*
X210993047Y-94900571D01*
X211040666Y-94995809D01*
X211040666Y-95233904D01*
X210993047Y-95329142D01*
X210945428Y-95376761D01*
X210850190Y-95424380D01*
X210612095Y-95424380D01*
X210516857Y-95376761D01*
X210469238Y-95329142D01*
%TO.C,U3*%
X142747595Y-81748380D02*
X142747595Y-82557904D01*
X142795214Y-82653142D01*
X142842833Y-82700761D01*
X142938071Y-82748380D01*
X143128547Y-82748380D01*
X143223785Y-82700761D01*
X143271404Y-82653142D01*
X143319023Y-82557904D01*
X143319023Y-81748380D01*
X143699976Y-81748380D02*
X144319023Y-81748380D01*
X143985690Y-82129333D01*
X144128547Y-82129333D01*
X144223785Y-82176952D01*
X144271404Y-82224571D01*
X144319023Y-82319809D01*
X144319023Y-82557904D01*
X144271404Y-82653142D01*
X144223785Y-82700761D01*
X144128547Y-82748380D01*
X143842833Y-82748380D01*
X143747595Y-82700761D01*
X143699976Y-82653142D01*
%TO.C,U2*%
X152146095Y-93432380D02*
X152146095Y-94241904D01*
X152193714Y-94337142D01*
X152241333Y-94384761D01*
X152336571Y-94432380D01*
X152527047Y-94432380D01*
X152622285Y-94384761D01*
X152669904Y-94337142D01*
X152717523Y-94241904D01*
X152717523Y-93432380D01*
X153146095Y-93527619D02*
X153193714Y-93480000D01*
X153288952Y-93432380D01*
X153527047Y-93432380D01*
X153622285Y-93480000D01*
X153669904Y-93527619D01*
X153717523Y-93622857D01*
X153717523Y-93718095D01*
X153669904Y-93860952D01*
X153098476Y-94432380D01*
X153717523Y-94432380D01*
%TO.C,U1*%
X182372095Y-91908380D02*
X182372095Y-92717904D01*
X182419714Y-92813142D01*
X182467333Y-92860761D01*
X182562571Y-92908380D01*
X182753047Y-92908380D01*
X182848285Y-92860761D01*
X182895904Y-92813142D01*
X182943523Y-92717904D01*
X182943523Y-91908380D01*
X183943523Y-92908380D02*
X183372095Y-92908380D01*
X183657809Y-92908380D02*
X183657809Y-91908380D01*
X183562571Y-92051238D01*
X183467333Y-92146476D01*
X183372095Y-92194095D01*
%TO.C,R4*%
X155535333Y-86558380D02*
X155202000Y-86082190D01*
X154963904Y-86558380D02*
X154963904Y-85558380D01*
X155344857Y-85558380D01*
X155440095Y-85606000D01*
X155487714Y-85653619D01*
X155535333Y-85748857D01*
X155535333Y-85891714D01*
X155487714Y-85986952D01*
X155440095Y-86034571D01*
X155344857Y-86082190D01*
X154963904Y-86082190D01*
X156392476Y-85891714D02*
X156392476Y-86558380D01*
X156154380Y-85510761D02*
X155916285Y-86225047D01*
X156535333Y-86225047D01*
%TO.C,R3*%
X155535333Y-83764380D02*
X155202000Y-83288190D01*
X154963904Y-83764380D02*
X154963904Y-82764380D01*
X155344857Y-82764380D01*
X155440095Y-82812000D01*
X155487714Y-82859619D01*
X155535333Y-82954857D01*
X155535333Y-83097714D01*
X155487714Y-83192952D01*
X155440095Y-83240571D01*
X155344857Y-83288190D01*
X154963904Y-83288190D01*
X155868666Y-82764380D02*
X156487714Y-82764380D01*
X156154380Y-83145333D01*
X156297238Y-83145333D01*
X156392476Y-83192952D01*
X156440095Y-83240571D01*
X156487714Y-83335809D01*
X156487714Y-83573904D01*
X156440095Y-83669142D01*
X156392476Y-83716761D01*
X156297238Y-83764380D01*
X156011523Y-83764380D01*
X155916285Y-83716761D01*
X155868666Y-83669142D01*
%TO.C,R2*%
X146137333Y-96878380D02*
X145804000Y-96402190D01*
X145565904Y-96878380D02*
X145565904Y-95878380D01*
X145946857Y-95878380D01*
X146042095Y-95926000D01*
X146089714Y-95973619D01*
X146137333Y-96068857D01*
X146137333Y-96211714D01*
X146089714Y-96306952D01*
X146042095Y-96354571D01*
X145946857Y-96402190D01*
X145565904Y-96402190D01*
X146518285Y-95973619D02*
X146565904Y-95926000D01*
X146661142Y-95878380D01*
X146899238Y-95878380D01*
X146994476Y-95926000D01*
X147042095Y-95973619D01*
X147089714Y-96068857D01*
X147089714Y-96164095D01*
X147042095Y-96306952D01*
X146470666Y-96878380D01*
X147089714Y-96878380D01*
%TO.C,R1*%
X146137333Y-93830380D02*
X145804000Y-93354190D01*
X145565904Y-93830380D02*
X145565904Y-92830380D01*
X145946857Y-92830380D01*
X146042095Y-92878000D01*
X146089714Y-92925619D01*
X146137333Y-93020857D01*
X146137333Y-93163714D01*
X146089714Y-93258952D01*
X146042095Y-93306571D01*
X145946857Y-93354190D01*
X145565904Y-93354190D01*
X147089714Y-93830380D02*
X146518285Y-93830380D01*
X146804000Y-93830380D02*
X146804000Y-92830380D01*
X146708761Y-92973238D01*
X146613523Y-93068476D01*
X146518285Y-93116095D01*
%TO.C,J4*%
X139152380Y-93551333D02*
X139866666Y-93551333D01*
X140009523Y-93598952D01*
X140104761Y-93694190D01*
X140152380Y-93837047D01*
X140152380Y-93932285D01*
X139485714Y-92646571D02*
X140152380Y-92646571D01*
X139104761Y-92884666D02*
X139819047Y-93122761D01*
X139819047Y-92503714D01*
%TO.C,TEST*%
X157408761Y-98004380D02*
X157980190Y-98004380D01*
X157694476Y-99004380D02*
X157694476Y-98004380D01*
X158313523Y-98480571D02*
X158646857Y-98480571D01*
X158789714Y-99004380D02*
X158313523Y-99004380D01*
X158313523Y-98004380D01*
X158789714Y-98004380D01*
X159170666Y-98956761D02*
X159313523Y-99004380D01*
X159551619Y-99004380D01*
X159646857Y-98956761D01*
X159694476Y-98909142D01*
X159742095Y-98813904D01*
X159742095Y-98718666D01*
X159694476Y-98623428D01*
X159646857Y-98575809D01*
X159551619Y-98528190D01*
X159361142Y-98480571D01*
X159265904Y-98432952D01*
X159218285Y-98385333D01*
X159170666Y-98290095D01*
X159170666Y-98194857D01*
X159218285Y-98099619D01*
X159265904Y-98052000D01*
X159361142Y-98004380D01*
X159599238Y-98004380D01*
X159742095Y-98052000D01*
X160027809Y-98004380D02*
X160599238Y-98004380D01*
X160313523Y-99004380D02*
X160313523Y-98004380D01*
%TO.C,R*%
X150169523Y-85034380D02*
X149836190Y-84558190D01*
X149598095Y-85034380D02*
X149598095Y-84034380D01*
X149979047Y-84034380D01*
X150074285Y-84082000D01*
X150121904Y-84129619D01*
X150169523Y-84224857D01*
X150169523Y-84367714D01*
X150121904Y-84462952D01*
X150074285Y-84510571D01*
X149979047Y-84558190D01*
X149598095Y-84558190D01*
%TO.C,T*%
X149574785Y-81240380D02*
X150146214Y-81240380D01*
X149860500Y-82240380D02*
X149860500Y-81240380D01*
%TO.C,C8*%
X146153142Y-86526666D02*
X146200761Y-86574285D01*
X146248380Y-86717142D01*
X146248380Y-86812380D01*
X146200761Y-86955238D01*
X146105523Y-87050476D01*
X146010285Y-87098095D01*
X145819809Y-87145714D01*
X145676952Y-87145714D01*
X145486476Y-87098095D01*
X145391238Y-87050476D01*
X145296000Y-86955238D01*
X145248380Y-86812380D01*
X145248380Y-86717142D01*
X145296000Y-86574285D01*
X145343619Y-86526666D01*
X145676952Y-85955238D02*
X145629333Y-86050476D01*
X145581714Y-86098095D01*
X145486476Y-86145714D01*
X145438857Y-86145714D01*
X145343619Y-86098095D01*
X145296000Y-86050476D01*
X145248380Y-85955238D01*
X145248380Y-85764761D01*
X145296000Y-85669523D01*
X145343619Y-85621904D01*
X145438857Y-85574285D01*
X145486476Y-85574285D01*
X145581714Y-85621904D01*
X145629333Y-85669523D01*
X145676952Y-85764761D01*
X145676952Y-85955238D01*
X145724571Y-86050476D01*
X145772190Y-86098095D01*
X145867428Y-86145714D01*
X146057904Y-86145714D01*
X146153142Y-86098095D01*
X146200761Y-86050476D01*
X146248380Y-85955238D01*
X146248380Y-85764761D01*
X146200761Y-85669523D01*
X146153142Y-85621904D01*
X146057904Y-85574285D01*
X145867428Y-85574285D01*
X145772190Y-85621904D01*
X145724571Y-85669523D01*
X145676952Y-85764761D01*
%TO.C,C6*%
X139549142Y-82208666D02*
X139596761Y-82256285D01*
X139644380Y-82399142D01*
X139644380Y-82494380D01*
X139596761Y-82637238D01*
X139501523Y-82732476D01*
X139406285Y-82780095D01*
X139215809Y-82827714D01*
X139072952Y-82827714D01*
X138882476Y-82780095D01*
X138787238Y-82732476D01*
X138692000Y-82637238D01*
X138644380Y-82494380D01*
X138644380Y-82399142D01*
X138692000Y-82256285D01*
X138739619Y-82208666D01*
X138644380Y-81351523D02*
X138644380Y-81542000D01*
X138692000Y-81637238D01*
X138739619Y-81684857D01*
X138882476Y-81780095D01*
X139072952Y-81827714D01*
X139453904Y-81827714D01*
X139549142Y-81780095D01*
X139596761Y-81732476D01*
X139644380Y-81637238D01*
X139644380Y-81446761D01*
X139596761Y-81351523D01*
X139549142Y-81303904D01*
X139453904Y-81256285D01*
X139215809Y-81256285D01*
X139120571Y-81303904D01*
X139072952Y-81351523D01*
X139025333Y-81446761D01*
X139025333Y-81637238D01*
X139072952Y-81732476D01*
X139120571Y-81780095D01*
X139215809Y-81827714D01*
%TO.C,C4*%
X204319142Y-100750666D02*
X204366761Y-100798285D01*
X204414380Y-100941142D01*
X204414380Y-101036380D01*
X204366761Y-101179238D01*
X204271523Y-101274476D01*
X204176285Y-101322095D01*
X203985809Y-101369714D01*
X203842952Y-101369714D01*
X203652476Y-101322095D01*
X203557238Y-101274476D01*
X203462000Y-101179238D01*
X203414380Y-101036380D01*
X203414380Y-100941142D01*
X203462000Y-100798285D01*
X203509619Y-100750666D01*
X203747714Y-99893523D02*
X204414380Y-99893523D01*
X203366761Y-100131619D02*
X204081047Y-100369714D01*
X204081047Y-99750666D01*
%TO.C,C3*%
X201449333Y-99307142D02*
X201401714Y-99354761D01*
X201258857Y-99402380D01*
X201163619Y-99402380D01*
X201020761Y-99354761D01*
X200925523Y-99259523D01*
X200877904Y-99164285D01*
X200830285Y-98973809D01*
X200830285Y-98830952D01*
X200877904Y-98640476D01*
X200925523Y-98545238D01*
X201020761Y-98450000D01*
X201163619Y-98402380D01*
X201258857Y-98402380D01*
X201401714Y-98450000D01*
X201449333Y-98497619D01*
X201782666Y-98402380D02*
X202401714Y-98402380D01*
X202068380Y-98783333D01*
X202211238Y-98783333D01*
X202306476Y-98830952D01*
X202354095Y-98878571D01*
X202401714Y-98973809D01*
X202401714Y-99211904D01*
X202354095Y-99307142D01*
X202306476Y-99354761D01*
X202211238Y-99402380D01*
X201925523Y-99402380D01*
X201830285Y-99354761D01*
X201782666Y-99307142D01*
%TO.C,C2*%
X199747142Y-100750666D02*
X199794761Y-100798285D01*
X199842380Y-100941142D01*
X199842380Y-101036380D01*
X199794761Y-101179238D01*
X199699523Y-101274476D01*
X199604285Y-101322095D01*
X199413809Y-101369714D01*
X199270952Y-101369714D01*
X199080476Y-101322095D01*
X198985238Y-101274476D01*
X198890000Y-101179238D01*
X198842380Y-101036380D01*
X198842380Y-100941142D01*
X198890000Y-100798285D01*
X198937619Y-100750666D01*
X198937619Y-100369714D02*
X198890000Y-100322095D01*
X198842380Y-100226857D01*
X198842380Y-99988761D01*
X198890000Y-99893523D01*
X198937619Y-99845904D01*
X199032857Y-99798285D01*
X199128095Y-99798285D01*
X199270952Y-99845904D01*
X199842380Y-100417333D01*
X199842380Y-99798285D01*
%TO.C,C1*%
X155280833Y-90019142D02*
X155233214Y-90066761D01*
X155090357Y-90114380D01*
X154995119Y-90114380D01*
X154852261Y-90066761D01*
X154757023Y-89971523D01*
X154709404Y-89876285D01*
X154661785Y-89685809D01*
X154661785Y-89542952D01*
X154709404Y-89352476D01*
X154757023Y-89257238D01*
X154852261Y-89162000D01*
X154995119Y-89114380D01*
X155090357Y-89114380D01*
X155233214Y-89162000D01*
X155280833Y-89209619D01*
X156233214Y-90114380D02*
X155661785Y-90114380D01*
X155947500Y-90114380D02*
X155947500Y-89114380D01*
X155852261Y-89257238D01*
X155757023Y-89352476D01*
X155661785Y-89400095D01*
%TO.C,J2*%
X163242666Y-81518380D02*
X163242666Y-82232666D01*
X163195047Y-82375523D01*
X163099809Y-82470761D01*
X162956952Y-82518380D01*
X162861714Y-82518380D01*
X163671238Y-81613619D02*
X163718857Y-81566000D01*
X163814095Y-81518380D01*
X164052190Y-81518380D01*
X164147428Y-81566000D01*
X164195047Y-81613619D01*
X164242666Y-81708857D01*
X164242666Y-81804095D01*
X164195047Y-81946952D01*
X163623619Y-82518380D01*
X164242666Y-82518380D01*
%TO.C,AT*%
X158916952Y-101512666D02*
X159393142Y-101512666D01*
X158821714Y-101798380D02*
X159155047Y-100798380D01*
X159488380Y-101798380D01*
X159678857Y-100798380D02*
X160250285Y-100798380D01*
X159964571Y-101798380D02*
X159964571Y-100798380D01*
%TO.C,SW3*%
X193266666Y-83204761D02*
X193409523Y-83252380D01*
X193647619Y-83252380D01*
X193742857Y-83204761D01*
X193790476Y-83157142D01*
X193838095Y-83061904D01*
X193838095Y-82966666D01*
X193790476Y-82871428D01*
X193742857Y-82823809D01*
X193647619Y-82776190D01*
X193457142Y-82728571D01*
X193361904Y-82680952D01*
X193314285Y-82633333D01*
X193266666Y-82538095D01*
X193266666Y-82442857D01*
X193314285Y-82347619D01*
X193361904Y-82300000D01*
X193457142Y-82252380D01*
X193695238Y-82252380D01*
X193838095Y-82300000D01*
X194171428Y-82252380D02*
X194409523Y-83252380D01*
X194600000Y-82538095D01*
X194790476Y-83252380D01*
X195028571Y-82252380D01*
X195314285Y-82252380D02*
X195933333Y-82252380D01*
X195600000Y-82633333D01*
X195742857Y-82633333D01*
X195838095Y-82680952D01*
X195885714Y-82728571D01*
X195933333Y-82823809D01*
X195933333Y-83061904D01*
X195885714Y-83157142D01*
X195838095Y-83204761D01*
X195742857Y-83252380D01*
X195457142Y-83252380D01*
X195361904Y-83204761D01*
X195314285Y-83157142D01*
%TO.C,SW2*%
X182026666Y-83266761D02*
X182169523Y-83314380D01*
X182407619Y-83314380D01*
X182502857Y-83266761D01*
X182550476Y-83219142D01*
X182598095Y-83123904D01*
X182598095Y-83028666D01*
X182550476Y-82933428D01*
X182502857Y-82885809D01*
X182407619Y-82838190D01*
X182217142Y-82790571D01*
X182121904Y-82742952D01*
X182074285Y-82695333D01*
X182026666Y-82600095D01*
X182026666Y-82504857D01*
X182074285Y-82409619D01*
X182121904Y-82362000D01*
X182217142Y-82314380D01*
X182455238Y-82314380D01*
X182598095Y-82362000D01*
X182931428Y-82314380D02*
X183169523Y-83314380D01*
X183360000Y-82600095D01*
X183550476Y-83314380D01*
X183788571Y-82314380D01*
X184121904Y-82409619D02*
X184169523Y-82362000D01*
X184264761Y-82314380D01*
X184502857Y-82314380D01*
X184598095Y-82362000D01*
X184645714Y-82409619D01*
X184693333Y-82504857D01*
X184693333Y-82600095D01*
X184645714Y-82742952D01*
X184074285Y-83314380D01*
X184693333Y-83314380D01*
%TO.C,SW1*%
X170466666Y-83420761D02*
X170609523Y-83468380D01*
X170847619Y-83468380D01*
X170942857Y-83420761D01*
X170990476Y-83373142D01*
X171038095Y-83277904D01*
X171038095Y-83182666D01*
X170990476Y-83087428D01*
X170942857Y-83039809D01*
X170847619Y-82992190D01*
X170657142Y-82944571D01*
X170561904Y-82896952D01*
X170514285Y-82849333D01*
X170466666Y-82754095D01*
X170466666Y-82658857D01*
X170514285Y-82563619D01*
X170561904Y-82516000D01*
X170657142Y-82468380D01*
X170895238Y-82468380D01*
X171038095Y-82516000D01*
X171371428Y-82468380D02*
X171609523Y-83468380D01*
X171800000Y-82754095D01*
X171990476Y-83468380D01*
X172228571Y-82468380D01*
X173133333Y-83468380D02*
X172561904Y-83468380D01*
X172847619Y-83468380D02*
X172847619Y-82468380D01*
X172752380Y-82611238D01*
X172657142Y-82706476D01*
X172561904Y-82754095D01*
%TO.C,J6*%
X210486666Y-92492380D02*
X210486666Y-93206666D01*
X210439047Y-93349523D01*
X210343809Y-93444761D01*
X210200952Y-93492380D01*
X210105714Y-93492380D01*
X211391428Y-92492380D02*
X211200952Y-92492380D01*
X211105714Y-92540000D01*
X211058095Y-92587619D01*
X210962857Y-92730476D01*
X210915238Y-92920952D01*
X210915238Y-93301904D01*
X210962857Y-93397142D01*
X211010476Y-93444761D01*
X211105714Y-93492380D01*
X211296190Y-93492380D01*
X211391428Y-93444761D01*
X211439047Y-93397142D01*
X211486666Y-93301904D01*
X211486666Y-93063809D01*
X211439047Y-92968571D01*
X211391428Y-92920952D01*
X211296190Y-92873333D01*
X211105714Y-92873333D01*
X211010476Y-92920952D01*
X210962857Y-92968571D01*
X210915238Y-93063809D01*
%TO.C,C7*%
X146153142Y-81446666D02*
X146200761Y-81494285D01*
X146248380Y-81637142D01*
X146248380Y-81732380D01*
X146200761Y-81875238D01*
X146105523Y-81970476D01*
X146010285Y-82018095D01*
X145819809Y-82065714D01*
X145676952Y-82065714D01*
X145486476Y-82018095D01*
X145391238Y-81970476D01*
X145296000Y-81875238D01*
X145248380Y-81732380D01*
X145248380Y-81637142D01*
X145296000Y-81494285D01*
X145343619Y-81446666D01*
X145248380Y-81113333D02*
X145248380Y-80446666D01*
X146248380Y-80875238D01*
%TO.C,C5*%
X137771142Y-82208666D02*
X137818761Y-82256285D01*
X137866380Y-82399142D01*
X137866380Y-82494380D01*
X137818761Y-82637238D01*
X137723523Y-82732476D01*
X137628285Y-82780095D01*
X137437809Y-82827714D01*
X137294952Y-82827714D01*
X137104476Y-82780095D01*
X137009238Y-82732476D01*
X136914000Y-82637238D01*
X136866380Y-82494380D01*
X136866380Y-82399142D01*
X136914000Y-82256285D01*
X136961619Y-82208666D01*
X136866380Y-81303904D02*
X136866380Y-81780095D01*
X137342571Y-81827714D01*
X137294952Y-81780095D01*
X137247333Y-81684857D01*
X137247333Y-81446761D01*
X137294952Y-81351523D01*
X137342571Y-81303904D01*
X137437809Y-81256285D01*
X137675904Y-81256285D01*
X137771142Y-81303904D01*
X137818761Y-81351523D01*
X137866380Y-81446761D01*
X137866380Y-81684857D01*
X137818761Y-81780095D01*
X137771142Y-81827714D01*
%TD*%
M02*
