%TF.GenerationSoftware,KiCad,Pcbnew,(5.1.9)-1*%
%TF.CreationDate,2021-02-24T20:28:46+08:00*%
%TF.ProjectId,M-HL10-kit,4d2d484c-3130-42d6-9b69-742e6b696361,rev?*%
%TF.SameCoordinates,Original*%
%TF.FileFunction,Copper,L1,Top*%
%TF.FilePolarity,Positive*%
%FSLAX46Y46*%
G04 Gerber Fmt 4.6, Leading zero omitted, Abs format (unit mm)*
G04 Created by KiCad (PCBNEW (5.1.9)-1) date 2021-02-24 20:28:46*
%MOMM*%
%LPD*%
G01*
G04 APERTURE LIST*
%TA.AperFunction,ComponentPad*%
%ADD10O,1.700000X1.700000*%
%TD*%
%TA.AperFunction,ComponentPad*%
%ADD11R,1.700000X1.700000*%
%TD*%
%TA.AperFunction,SMDPad,CuDef*%
%ADD12C,0.350000*%
%TD*%
%TA.AperFunction,SMDPad,CuDef*%
%ADD13R,1.300000X0.900000*%
%TD*%
%TA.AperFunction,SMDPad,CuDef*%
%ADD14O,0.750000X1.800000*%
%TD*%
%TA.AperFunction,SMDPad,CuDef*%
%ADD15O,1.800000X0.750000*%
%TD*%
%TA.AperFunction,SMDPad,CuDef*%
%ADD16R,1.150000X0.300000*%
%TD*%
%TA.AperFunction,ComponentPad*%
%ADD17O,1.600000X1.000000*%
%TD*%
%TA.AperFunction,ComponentPad*%
%ADD18O,2.100000X1.000000*%
%TD*%
%TA.AperFunction,SMDPad,CuDef*%
%ADD19R,1.199998X0.999998*%
%TD*%
%TA.AperFunction,ComponentPad*%
%ADD20C,2.250000*%
%TD*%
%TA.AperFunction,ComponentPad*%
%ADD21C,2.050000*%
%TD*%
%TA.AperFunction,ViaPad*%
%ADD22C,0.600000*%
%TD*%
%TA.AperFunction,ViaPad*%
%ADD23C,0.800000*%
%TD*%
%TA.AperFunction,Conductor*%
%ADD24C,0.250000*%
%TD*%
%TA.AperFunction,Conductor*%
%ADD25C,0.254000*%
%TD*%
%TA.AperFunction,Conductor*%
%ADD26C,0.350000*%
%TD*%
%ADD27C,0.300000*%
%ADD28C,0.350000*%
%ADD29O,1.200000X0.600000*%
%ADD30O,1.700000X0.600000*%
G04 APERTURE END LIST*
D10*
%TO.P,J5,5*%
%TO.N,/RST*%
X205994000Y-82042000D03*
%TO.P,J5,4*%
%TO.N,GND*%
X205994000Y-84582000D03*
%TO.P,J5,3*%
%TO.N,Net-(J5-Pad3)*%
X205994000Y-87122000D03*
%TO.P,J5,2*%
%TO.N,Net-(J5-Pad2)*%
X205994000Y-89662000D03*
D11*
%TO.P,J5,1*%
%TO.N,+3V3*%
X205994000Y-92202000D03*
%TD*%
%TA.AperFunction,SMDPad,CuDef*%
D12*
%TO.P,U3,2*%
%TO.N,+3V3*%
G36*
X145340000Y-84686500D02*
G01*
X142215000Y-84686500D01*
X142215000Y-84270000D01*
X140740000Y-84270000D01*
X140740000Y-83370000D01*
X142215000Y-83370000D01*
X142215000Y-82953500D01*
X145340000Y-82953500D01*
X145340000Y-84686500D01*
G37*
%TD.AperFunction*%
D13*
%TO.P,U3,3*%
%TO.N,+5V*%
X141390000Y-85320000D03*
%TO.P,U3,1*%
%TO.N,GND*%
X141390000Y-82320000D03*
%TD*%
%TO.P,U2,8*%
%TO.N,Net-(C1-Pad1)*%
%TA.AperFunction,SMDPad,CuDef*%
G36*
G01*
X154662000Y-92225000D02*
X154662000Y-91925000D01*
G75*
G02*
X154812000Y-91775000I150000J0D01*
G01*
X156462000Y-91775000D01*
G75*
G02*
X156612000Y-91925000I0J-150000D01*
G01*
X156612000Y-92225000D01*
G75*
G02*
X156462000Y-92375000I-150000J0D01*
G01*
X154812000Y-92375000D01*
G75*
G02*
X154662000Y-92225000I0J150000D01*
G01*
G37*
%TD.AperFunction*%
%TO.P,U2,7*%
%TO.N,/TX*%
%TA.AperFunction,SMDPad,CuDef*%
G36*
G01*
X154662000Y-93495000D02*
X154662000Y-93195000D01*
G75*
G02*
X154812000Y-93045000I150000J0D01*
G01*
X156462000Y-93045000D01*
G75*
G02*
X156612000Y-93195000I0J-150000D01*
G01*
X156612000Y-93495000D01*
G75*
G02*
X156462000Y-93645000I-150000J0D01*
G01*
X154812000Y-93645000D01*
G75*
G02*
X154662000Y-93495000I0J150000D01*
G01*
G37*
%TD.AperFunction*%
%TO.P,U2,6*%
%TO.N,/RX*%
%TA.AperFunction,SMDPad,CuDef*%
G36*
G01*
X154662000Y-94765000D02*
X154662000Y-94465000D01*
G75*
G02*
X154812000Y-94315000I150000J0D01*
G01*
X156462000Y-94315000D01*
G75*
G02*
X156612000Y-94465000I0J-150000D01*
G01*
X156612000Y-94765000D01*
G75*
G02*
X156462000Y-94915000I-150000J0D01*
G01*
X154812000Y-94915000D01*
G75*
G02*
X154662000Y-94765000I0J150000D01*
G01*
G37*
%TD.AperFunction*%
%TO.P,U2,5*%
%TO.N,+5V*%
%TA.AperFunction,SMDPad,CuDef*%
G36*
G01*
X154662000Y-96035000D02*
X154662000Y-95735000D01*
G75*
G02*
X154812000Y-95585000I150000J0D01*
G01*
X156462000Y-95585000D01*
G75*
G02*
X156612000Y-95735000I0J-150000D01*
G01*
X156612000Y-96035000D01*
G75*
G02*
X156462000Y-96185000I-150000J0D01*
G01*
X154812000Y-96185000D01*
G75*
G02*
X154662000Y-96035000I0J150000D01*
G01*
G37*
%TD.AperFunction*%
%TO.P,U2,4*%
%TO.N,Net-(U2-Pad4)*%
%TA.AperFunction,SMDPad,CuDef*%
G36*
G01*
X149712000Y-96035000D02*
X149712000Y-95735000D01*
G75*
G02*
X149862000Y-95585000I150000J0D01*
G01*
X151512000Y-95585000D01*
G75*
G02*
X151662000Y-95735000I0J-150000D01*
G01*
X151662000Y-96035000D01*
G75*
G02*
X151512000Y-96185000I-150000J0D01*
G01*
X149862000Y-96185000D01*
G75*
G02*
X149712000Y-96035000I0J150000D01*
G01*
G37*
%TD.AperFunction*%
%TO.P,U2,3*%
%TO.N,GND*%
%TA.AperFunction,SMDPad,CuDef*%
G36*
G01*
X149712000Y-94765000D02*
X149712000Y-94465000D01*
G75*
G02*
X149862000Y-94315000I150000J0D01*
G01*
X151512000Y-94315000D01*
G75*
G02*
X151662000Y-94465000I0J-150000D01*
G01*
X151662000Y-94765000D01*
G75*
G02*
X151512000Y-94915000I-150000J0D01*
G01*
X149862000Y-94915000D01*
G75*
G02*
X149712000Y-94765000I0J150000D01*
G01*
G37*
%TD.AperFunction*%
%TO.P,U2,2*%
%TO.N,/D-*%
%TA.AperFunction,SMDPad,CuDef*%
G36*
G01*
X149712000Y-93495000D02*
X149712000Y-93195000D01*
G75*
G02*
X149862000Y-93045000I150000J0D01*
G01*
X151512000Y-93045000D01*
G75*
G02*
X151662000Y-93195000I0J-150000D01*
G01*
X151662000Y-93495000D01*
G75*
G02*
X151512000Y-93645000I-150000J0D01*
G01*
X149862000Y-93645000D01*
G75*
G02*
X149712000Y-93495000I0J150000D01*
G01*
G37*
%TD.AperFunction*%
%TO.P,U2,1*%
%TO.N,/D+*%
%TA.AperFunction,SMDPad,CuDef*%
G36*
G01*
X149712000Y-92225000D02*
X149712000Y-91925000D01*
G75*
G02*
X149862000Y-91775000I150000J0D01*
G01*
X151512000Y-91775000D01*
G75*
G02*
X151662000Y-91925000I0J-150000D01*
G01*
X151662000Y-92225000D01*
G75*
G02*
X151512000Y-92375000I-150000J0D01*
G01*
X149862000Y-92375000D01*
G75*
G02*
X149712000Y-92225000I0J150000D01*
G01*
G37*
%TD.AperFunction*%
%TD*%
D14*
%TO.P,U1,20*%
%TO.N,/A1*%
X193947000Y-86645000D03*
%TO.P,U1,19*%
%TO.N,/A0*%
X195217000Y-86645000D03*
D15*
%TO.P,U1,18*%
%TO.N,/BOOT*%
X196934000Y-87630000D03*
%TO.P,U1,17*%
%TO.N,Net-(J5-Pad3)*%
X196934000Y-88900000D03*
%TO.P,U1,16*%
%TO.N,Net-(J5-Pad2)*%
X196934000Y-90170000D03*
%TO.P,U1,15*%
%TO.N,GND*%
X196934000Y-96520000D03*
%TO.P,U1,14*%
%TO.N,Net-(C2-Pad2)*%
X196934000Y-97790000D03*
%TO.P,U1,13*%
%TO.N,GND*%
X196934000Y-99060000D03*
D14*
%TO.P,U1,12*%
%TO.N,/SCL*%
X195217000Y-100045000D03*
%TO.P,U1,11*%
%TO.N,/SDA*%
X193947000Y-100045000D03*
D15*
%TO.P,U1,10*%
%TO.N,Net-(J3-Pad1)*%
X170434000Y-99060000D03*
%TO.P,U1,9*%
%TO.N,GND*%
X170434000Y-97790000D03*
%TO.P,U1,8*%
%TO.N,/RST*%
X170434000Y-96520000D03*
%TO.P,U1,7*%
%TO.N,/WKUP*%
X170434000Y-95250000D03*
%TO.P,U1,6*%
%TO.N,/TX*%
X170434000Y-93980000D03*
%TO.P,U1,5*%
%TO.N,/RX*%
X170434000Y-92710000D03*
%TO.P,U1,4*%
%TO.N,/AT*%
X170434000Y-91440000D03*
%TO.P,U1,3*%
%TO.N,/P3*%
X170434000Y-90170000D03*
%TO.P,U1,2*%
%TO.N,/P2*%
X170434000Y-88900000D03*
%TO.P,U1,1*%
%TO.N,/P1*%
X170434000Y-87630000D03*
%TD*%
%TO.P,R4,2*%
%TO.N,Net-(D2-Pad2)*%
%TA.AperFunction,SMDPad,CuDef*%
G36*
G01*
X155427000Y-84344500D02*
X155427000Y-84819500D01*
G75*
G02*
X155189500Y-85057000I-237500J0D01*
G01*
X154689500Y-85057000D01*
G75*
G02*
X154452000Y-84819500I0J237500D01*
G01*
X154452000Y-84344500D01*
G75*
G02*
X154689500Y-84107000I237500J0D01*
G01*
X155189500Y-84107000D01*
G75*
G02*
X155427000Y-84344500I0J-237500D01*
G01*
G37*
%TD.AperFunction*%
%TO.P,R4,1*%
%TO.N,/P2*%
%TA.AperFunction,SMDPad,CuDef*%
G36*
G01*
X157252000Y-84344500D02*
X157252000Y-84819500D01*
G75*
G02*
X157014500Y-85057000I-237500J0D01*
G01*
X156514500Y-85057000D01*
G75*
G02*
X156277000Y-84819500I0J237500D01*
G01*
X156277000Y-84344500D01*
G75*
G02*
X156514500Y-84107000I237500J0D01*
G01*
X157014500Y-84107000D01*
G75*
G02*
X157252000Y-84344500I0J-237500D01*
G01*
G37*
%TD.AperFunction*%
%TD*%
%TO.P,R3,2*%
%TO.N,Net-(D1-Pad2)*%
%TA.AperFunction,SMDPad,CuDef*%
G36*
G01*
X155427000Y-81550500D02*
X155427000Y-82025500D01*
G75*
G02*
X155189500Y-82263000I-237500J0D01*
G01*
X154689500Y-82263000D01*
G75*
G02*
X154452000Y-82025500I0J237500D01*
G01*
X154452000Y-81550500D01*
G75*
G02*
X154689500Y-81313000I237500J0D01*
G01*
X155189500Y-81313000D01*
G75*
G02*
X155427000Y-81550500I0J-237500D01*
G01*
G37*
%TD.AperFunction*%
%TO.P,R3,1*%
%TO.N,/P1*%
%TA.AperFunction,SMDPad,CuDef*%
G36*
G01*
X157252000Y-81550500D02*
X157252000Y-82025500D01*
G75*
G02*
X157014500Y-82263000I-237500J0D01*
G01*
X156514500Y-82263000D01*
G75*
G02*
X156277000Y-82025500I0J237500D01*
G01*
X156277000Y-81550500D01*
G75*
G02*
X156514500Y-81313000I237500J0D01*
G01*
X157014500Y-81313000D01*
G75*
G02*
X157252000Y-81550500I0J-237500D01*
G01*
G37*
%TD.AperFunction*%
%TD*%
%TO.P,R2,2*%
%TO.N,Net-(J4-PadB5)*%
%TA.AperFunction,SMDPad,CuDef*%
G36*
G01*
X145879000Y-94758500D02*
X145879000Y-95233500D01*
G75*
G02*
X145641500Y-95471000I-237500J0D01*
G01*
X145141500Y-95471000D01*
G75*
G02*
X144904000Y-95233500I0J237500D01*
G01*
X144904000Y-94758500D01*
G75*
G02*
X145141500Y-94521000I237500J0D01*
G01*
X145641500Y-94521000D01*
G75*
G02*
X145879000Y-94758500I0J-237500D01*
G01*
G37*
%TD.AperFunction*%
%TO.P,R2,1*%
%TO.N,GND*%
%TA.AperFunction,SMDPad,CuDef*%
G36*
G01*
X147704000Y-94758500D02*
X147704000Y-95233500D01*
G75*
G02*
X147466500Y-95471000I-237500J0D01*
G01*
X146966500Y-95471000D01*
G75*
G02*
X146729000Y-95233500I0J237500D01*
G01*
X146729000Y-94758500D01*
G75*
G02*
X146966500Y-94521000I237500J0D01*
G01*
X147466500Y-94521000D01*
G75*
G02*
X147704000Y-94758500I0J-237500D01*
G01*
G37*
%TD.AperFunction*%
%TD*%
%TO.P,R1,2*%
%TO.N,Net-(J4-PadA5)*%
%TA.AperFunction,SMDPad,CuDef*%
G36*
G01*
X145879000Y-91710500D02*
X145879000Y-92185500D01*
G75*
G02*
X145641500Y-92423000I-237500J0D01*
G01*
X145141500Y-92423000D01*
G75*
G02*
X144904000Y-92185500I0J237500D01*
G01*
X144904000Y-91710500D01*
G75*
G02*
X145141500Y-91473000I237500J0D01*
G01*
X145641500Y-91473000D01*
G75*
G02*
X145879000Y-91710500I0J-237500D01*
G01*
G37*
%TD.AperFunction*%
%TO.P,R1,1*%
%TO.N,GND*%
%TA.AperFunction,SMDPad,CuDef*%
G36*
G01*
X147704000Y-91710500D02*
X147704000Y-92185500D01*
G75*
G02*
X147466500Y-92423000I-237500J0D01*
G01*
X146966500Y-92423000D01*
G75*
G02*
X146729000Y-92185500I0J237500D01*
G01*
X146729000Y-91710500D01*
G75*
G02*
X146966500Y-91473000I237500J0D01*
G01*
X147466500Y-91473000D01*
G75*
G02*
X147704000Y-91710500I0J-237500D01*
G01*
G37*
%TD.AperFunction*%
%TD*%
D16*
%TO.P,J4,A12*%
%TO.N,GND*%
X143370000Y-96568000D03*
%TO.P,J4,A9*%
%TO.N,+5V*%
X143370000Y-95768000D03*
%TO.P,J4,B9*%
X143370000Y-90968000D03*
%TO.P,J4,B12*%
%TO.N,GND*%
X143370000Y-90168000D03*
%TO.P,J4,A1*%
X143370000Y-89868000D03*
%TO.P,J4,A4*%
%TO.N,+5V*%
X143370000Y-90668000D03*
%TO.P,J4,B8*%
%TO.N,Net-(J4-PadB8)*%
X143370000Y-91468000D03*
%TO.P,J4,A5*%
%TO.N,Net-(J4-PadA5)*%
X143370000Y-91968000D03*
%TO.P,J4,B7*%
%TO.N,/D-*%
X143370000Y-92468000D03*
%TO.P,J4,A6*%
%TO.N,/D+*%
X143370000Y-92968000D03*
%TO.P,J4,A7*%
%TO.N,/D-*%
X143370000Y-93468000D03*
%TO.P,J4,B6*%
%TO.N,/D+*%
X143370000Y-93968000D03*
%TO.P,J4,A8*%
%TO.N,Net-(J4-PadA8)*%
X143370000Y-94468000D03*
%TO.P,J4,B5*%
%TO.N,Net-(J4-PadB5)*%
X143370000Y-94968000D03*
%TO.P,J4,B4*%
%TO.N,+5V*%
X143370000Y-95468000D03*
%TO.P,J4,B1*%
%TO.N,GND*%
X143370000Y-96268000D03*
D17*
%TO.P,J4,S1*%
X138625000Y-97538000D03*
X138625000Y-88898000D03*
D18*
X142805000Y-97538000D03*
X142805000Y-88898000D03*
%TD*%
D10*
%TO.P,TEST,2*%
%TO.N,+3V3*%
X162306000Y-98298000D03*
D11*
%TO.P,TEST,1*%
%TO.N,Net-(J3-Pad1)*%
X164846000Y-98298000D03*
%TD*%
%TO.P,R,2*%
%TO.N,Net-(D2-Pad2)*%
%TA.AperFunction,SMDPad,CuDef*%
G36*
G01*
X152346000Y-84794500D02*
X152346000Y-84369500D01*
G75*
G02*
X152558500Y-84157000I212500J0D01*
G01*
X153358500Y-84157000D01*
G75*
G02*
X153571000Y-84369500I0J-212500D01*
G01*
X153571000Y-84794500D01*
G75*
G02*
X153358500Y-85007000I-212500J0D01*
G01*
X152558500Y-85007000D01*
G75*
G02*
X152346000Y-84794500I0J212500D01*
G01*
G37*
%TD.AperFunction*%
%TO.P,R,1*%
%TO.N,GND*%
%TA.AperFunction,SMDPad,CuDef*%
G36*
G01*
X150721000Y-84794500D02*
X150721000Y-84369500D01*
G75*
G02*
X150933500Y-84157000I212500J0D01*
G01*
X151733500Y-84157000D01*
G75*
G02*
X151946000Y-84369500I0J-212500D01*
G01*
X151946000Y-84794500D01*
G75*
G02*
X151733500Y-85007000I-212500J0D01*
G01*
X150933500Y-85007000D01*
G75*
G02*
X150721000Y-84794500I0J212500D01*
G01*
G37*
%TD.AperFunction*%
%TD*%
%TO.P,T,2*%
%TO.N,Net-(D1-Pad2)*%
%TA.AperFunction,SMDPad,CuDef*%
G36*
G01*
X152296000Y-82000500D02*
X152296000Y-81575500D01*
G75*
G02*
X152508500Y-81363000I212500J0D01*
G01*
X153308500Y-81363000D01*
G75*
G02*
X153521000Y-81575500I0J-212500D01*
G01*
X153521000Y-82000500D01*
G75*
G02*
X153308500Y-82213000I-212500J0D01*
G01*
X152508500Y-82213000D01*
G75*
G02*
X152296000Y-82000500I0J212500D01*
G01*
G37*
%TD.AperFunction*%
%TO.P,T,1*%
%TO.N,GND*%
%TA.AperFunction,SMDPad,CuDef*%
G36*
G01*
X150671000Y-82000500D02*
X150671000Y-81575500D01*
G75*
G02*
X150883500Y-81363000I212500J0D01*
G01*
X151683500Y-81363000D01*
G75*
G02*
X151896000Y-81575500I0J-212500D01*
G01*
X151896000Y-82000500D01*
G75*
G02*
X151683500Y-82213000I-212500J0D01*
G01*
X150883500Y-82213000D01*
G75*
G02*
X150671000Y-82000500I0J212500D01*
G01*
G37*
%TD.AperFunction*%
%TD*%
%TO.P,C8,2*%
%TO.N,GND*%
%TA.AperFunction,SMDPad,CuDef*%
G36*
G01*
X147082500Y-86330500D02*
X147557500Y-86330500D01*
G75*
G02*
X147795000Y-86568000I0J-237500D01*
G01*
X147795000Y-87168000D01*
G75*
G02*
X147557500Y-87405500I-237500J0D01*
G01*
X147082500Y-87405500D01*
G75*
G02*
X146845000Y-87168000I0J237500D01*
G01*
X146845000Y-86568000D01*
G75*
G02*
X147082500Y-86330500I237500J0D01*
G01*
G37*
%TD.AperFunction*%
%TO.P,C8,1*%
%TO.N,+3V3*%
%TA.AperFunction,SMDPad,CuDef*%
G36*
G01*
X147082500Y-84605500D02*
X147557500Y-84605500D01*
G75*
G02*
X147795000Y-84843000I0J-237500D01*
G01*
X147795000Y-85443000D01*
G75*
G02*
X147557500Y-85680500I-237500J0D01*
G01*
X147082500Y-85680500D01*
G75*
G02*
X146845000Y-85443000I0J237500D01*
G01*
X146845000Y-84843000D01*
G75*
G02*
X147082500Y-84605500I237500J0D01*
G01*
G37*
%TD.AperFunction*%
%TD*%
%TO.P,C6,2*%
%TO.N,GND*%
%TA.AperFunction,SMDPad,CuDef*%
G36*
G01*
X139429500Y-84357500D02*
X138954500Y-84357500D01*
G75*
G02*
X138717000Y-84120000I0J237500D01*
G01*
X138717000Y-83520000D01*
G75*
G02*
X138954500Y-83282500I237500J0D01*
G01*
X139429500Y-83282500D01*
G75*
G02*
X139667000Y-83520000I0J-237500D01*
G01*
X139667000Y-84120000D01*
G75*
G02*
X139429500Y-84357500I-237500J0D01*
G01*
G37*
%TD.AperFunction*%
%TO.P,C6,1*%
%TO.N,+5V*%
%TA.AperFunction,SMDPad,CuDef*%
G36*
G01*
X139429500Y-86082500D02*
X138954500Y-86082500D01*
G75*
G02*
X138717000Y-85845000I0J237500D01*
G01*
X138717000Y-85245000D01*
G75*
G02*
X138954500Y-85007500I237500J0D01*
G01*
X139429500Y-85007500D01*
G75*
G02*
X139667000Y-85245000I0J-237500D01*
G01*
X139667000Y-85845000D01*
G75*
G02*
X139429500Y-86082500I-237500J0D01*
G01*
G37*
%TD.AperFunction*%
%TD*%
%TO.P,C4,2*%
%TO.N,Net-(C3-Pad1)*%
%TA.AperFunction,SMDPad,CuDef*%
G36*
G01*
X203863000Y-98157500D02*
X203553000Y-98157500D01*
G75*
G02*
X203398000Y-98002500I0J155000D01*
G01*
X203398000Y-97577500D01*
G75*
G02*
X203553000Y-97422500I155000J0D01*
G01*
X203863000Y-97422500D01*
G75*
G02*
X204018000Y-97577500I0J-155000D01*
G01*
X204018000Y-98002500D01*
G75*
G02*
X203863000Y-98157500I-155000J0D01*
G01*
G37*
%TD.AperFunction*%
%TO.P,C4,1*%
%TO.N,GND*%
%TA.AperFunction,SMDPad,CuDef*%
G36*
G01*
X203863000Y-99292500D02*
X203553000Y-99292500D01*
G75*
G02*
X203398000Y-99137500I0J155000D01*
G01*
X203398000Y-98712500D01*
G75*
G02*
X203553000Y-98557500I155000J0D01*
G01*
X203863000Y-98557500D01*
G75*
G02*
X204018000Y-98712500I0J-155000D01*
G01*
X204018000Y-99137500D01*
G75*
G02*
X203863000Y-99292500I-155000J0D01*
G01*
G37*
%TD.AperFunction*%
%TD*%
%TO.P,C3,2*%
%TO.N,Net-(C2-Pad2)*%
%TA.AperFunction,SMDPad,CuDef*%
G36*
G01*
X201416000Y-97635000D02*
X201416000Y-97945000D01*
G75*
G02*
X201261000Y-98100000I-155000J0D01*
G01*
X200836000Y-98100000D01*
G75*
G02*
X200681000Y-97945000I0J155000D01*
G01*
X200681000Y-97635000D01*
G75*
G02*
X200836000Y-97480000I155000J0D01*
G01*
X201261000Y-97480000D01*
G75*
G02*
X201416000Y-97635000I0J-155000D01*
G01*
G37*
%TD.AperFunction*%
%TO.P,C3,1*%
%TO.N,Net-(C3-Pad1)*%
%TA.AperFunction,SMDPad,CuDef*%
G36*
G01*
X202551000Y-97635000D02*
X202551000Y-97945000D01*
G75*
G02*
X202396000Y-98100000I-155000J0D01*
G01*
X201971000Y-98100000D01*
G75*
G02*
X201816000Y-97945000I0J155000D01*
G01*
X201816000Y-97635000D01*
G75*
G02*
X201971000Y-97480000I155000J0D01*
G01*
X202396000Y-97480000D01*
G75*
G02*
X202551000Y-97635000I0J-155000D01*
G01*
G37*
%TD.AperFunction*%
%TD*%
%TO.P,C2,2*%
%TO.N,Net-(C2-Pad2)*%
%TA.AperFunction,SMDPad,CuDef*%
G36*
G01*
X199545000Y-98157500D02*
X199235000Y-98157500D01*
G75*
G02*
X199080000Y-98002500I0J155000D01*
G01*
X199080000Y-97577500D01*
G75*
G02*
X199235000Y-97422500I155000J0D01*
G01*
X199545000Y-97422500D01*
G75*
G02*
X199700000Y-97577500I0J-155000D01*
G01*
X199700000Y-98002500D01*
G75*
G02*
X199545000Y-98157500I-155000J0D01*
G01*
G37*
%TD.AperFunction*%
%TO.P,C2,1*%
%TO.N,GND*%
%TA.AperFunction,SMDPad,CuDef*%
G36*
G01*
X199545000Y-99292500D02*
X199235000Y-99292500D01*
G75*
G02*
X199080000Y-99137500I0J155000D01*
G01*
X199080000Y-98712500D01*
G75*
G02*
X199235000Y-98557500I155000J0D01*
G01*
X199545000Y-98557500D01*
G75*
G02*
X199700000Y-98712500I0J-155000D01*
G01*
X199700000Y-99137500D01*
G75*
G02*
X199545000Y-99292500I-155000J0D01*
G01*
G37*
%TD.AperFunction*%
%TD*%
%TO.P,C1,2*%
%TO.N,GND*%
%TA.AperFunction,SMDPad,CuDef*%
G36*
G01*
X152429000Y-89424500D02*
X152429000Y-89899500D01*
G75*
G02*
X152191500Y-90137000I-237500J0D01*
G01*
X151591500Y-90137000D01*
G75*
G02*
X151354000Y-89899500I0J237500D01*
G01*
X151354000Y-89424500D01*
G75*
G02*
X151591500Y-89187000I237500J0D01*
G01*
X152191500Y-89187000D01*
G75*
G02*
X152429000Y-89424500I0J-237500D01*
G01*
G37*
%TD.AperFunction*%
%TO.P,C1,1*%
%TO.N,Net-(C1-Pad1)*%
%TA.AperFunction,SMDPad,CuDef*%
G36*
G01*
X154154000Y-89424500D02*
X154154000Y-89899500D01*
G75*
G02*
X153916500Y-90137000I-237500J0D01*
G01*
X153316500Y-90137000D01*
G75*
G02*
X153079000Y-89899500I0J237500D01*
G01*
X153079000Y-89424500D01*
G75*
G02*
X153316500Y-89187000I237500J0D01*
G01*
X153916500Y-89187000D01*
G75*
G02*
X154154000Y-89424500I0J-237500D01*
G01*
G37*
%TD.AperFunction*%
%TD*%
D10*
%TO.P,J2,10*%
%TO.N,GND*%
X162306000Y-94996000D03*
%TO.P,J2,9*%
%TO.N,+3V3*%
X164846000Y-94996000D03*
%TO.P,J2,8*%
%TO.N,/SDA*%
X162306000Y-92456000D03*
%TO.P,J2,7*%
%TO.N,GND*%
X164846000Y-92456000D03*
%TO.P,J2,6*%
%TO.N,/SCL*%
X162306000Y-89916000D03*
%TO.P,J2,5*%
%TO.N,/TX*%
X164846000Y-89916000D03*
%TO.P,J2,4*%
%TO.N,/A0*%
X162306000Y-87376000D03*
%TO.P,J2,3*%
%TO.N,/RX*%
X164846000Y-87376000D03*
%TO.P,J2,2*%
%TO.N,/A1*%
X162306000Y-84836000D03*
D11*
%TO.P,J2,1*%
%TO.N,/P3*%
X164846000Y-84836000D03*
%TD*%
D10*
%TO.P,AT,3*%
%TO.N,GND*%
X167386000Y-101346000D03*
%TO.P,AT,2*%
%TO.N,/AT*%
X164846000Y-101346000D03*
D11*
%TO.P,AT,1*%
%TO.N,+3V3*%
X162306000Y-101346000D03*
%TD*%
D19*
%TO.P,SW3,2*%
%TO.N,/BOOT*%
X198200018Y-82800000D03*
%TO.P,SW3,1*%
%TO.N,+3V3*%
X190799982Y-82800000D03*
%TD*%
%TO.P,SW2,2*%
%TO.N,/RST*%
X186580018Y-82804000D03*
%TO.P,SW2,1*%
%TO.N,GND*%
X179179982Y-82804000D03*
%TD*%
%TO.P,SW1,2*%
%TO.N,/WKUP*%
X175500018Y-82804000D03*
%TO.P,SW1,1*%
%TO.N,+3V3*%
X168099982Y-82804000D03*
%TD*%
D20*
%TO.P,J6,2*%
%TO.N,GND*%
X208280000Y-100330000D03*
X208280000Y-95250000D03*
X213360000Y-95250000D03*
X213360000Y-100330000D03*
D21*
%TO.P,J6,1*%
%TO.N,Net-(C3-Pad1)*%
X210820000Y-97790000D03*
%TD*%
%TO.P,C7,2*%
%TO.N,GND*%
%TA.AperFunction,SMDPad,CuDef*%
G36*
G01*
X147537500Y-82212500D02*
X147062500Y-82212500D01*
G75*
G02*
X146825000Y-81975000I0J237500D01*
G01*
X146825000Y-81375000D01*
G75*
G02*
X147062500Y-81137500I237500J0D01*
G01*
X147537500Y-81137500D01*
G75*
G02*
X147775000Y-81375000I0J-237500D01*
G01*
X147775000Y-81975000D01*
G75*
G02*
X147537500Y-82212500I-237500J0D01*
G01*
G37*
%TD.AperFunction*%
%TO.P,C7,1*%
%TO.N,+3V3*%
%TA.AperFunction,SMDPad,CuDef*%
G36*
G01*
X147537500Y-83937500D02*
X147062500Y-83937500D01*
G75*
G02*
X146825000Y-83700000I0J237500D01*
G01*
X146825000Y-83100000D01*
G75*
G02*
X147062500Y-82862500I237500J0D01*
G01*
X147537500Y-82862500D01*
G75*
G02*
X147775000Y-83100000I0J-237500D01*
G01*
X147775000Y-83700000D01*
G75*
G02*
X147537500Y-83937500I-237500J0D01*
G01*
G37*
%TD.AperFunction*%
%TD*%
%TO.P,C5,2*%
%TO.N,GND*%
%TA.AperFunction,SMDPad,CuDef*%
G36*
G01*
X137737500Y-84412500D02*
X137262500Y-84412500D01*
G75*
G02*
X137025000Y-84175000I0J237500D01*
G01*
X137025000Y-83575000D01*
G75*
G02*
X137262500Y-83337500I237500J0D01*
G01*
X137737500Y-83337500D01*
G75*
G02*
X137975000Y-83575000I0J-237500D01*
G01*
X137975000Y-84175000D01*
G75*
G02*
X137737500Y-84412500I-237500J0D01*
G01*
G37*
%TD.AperFunction*%
%TO.P,C5,1*%
%TO.N,+5V*%
%TA.AperFunction,SMDPad,CuDef*%
G36*
G01*
X137737500Y-86137500D02*
X137262500Y-86137500D01*
G75*
G02*
X137025000Y-85900000I0J237500D01*
G01*
X137025000Y-85300000D01*
G75*
G02*
X137262500Y-85062500I237500J0D01*
G01*
X137737500Y-85062500D01*
G75*
G02*
X137975000Y-85300000I0J-237500D01*
G01*
X137975000Y-85900000D01*
G75*
G02*
X137737500Y-86137500I-237500J0D01*
G01*
G37*
%TD.AperFunction*%
%TD*%
D22*
%TO.N,GND*%
X177038000Y-101600000D03*
X179070000Y-101600000D03*
X180848000Y-101600000D03*
X182626000Y-101600000D03*
X184150000Y-101600000D03*
X185928000Y-101600000D03*
X187706000Y-101600000D03*
X189738000Y-101600000D03*
X191770000Y-101600000D03*
X193548000Y-101600000D03*
X195326000Y-101600000D03*
X197358000Y-101600000D03*
X199644000Y-101600000D03*
X201422000Y-101600000D03*
X203454000Y-101600000D03*
X205486000Y-101600000D03*
X170942000Y-101600000D03*
X172974000Y-101600000D03*
X175006000Y-101600000D03*
X139446000Y-100330000D03*
X141986000Y-100330000D03*
X144272000Y-100330000D03*
X146812000Y-100330000D03*
X149860000Y-100330000D03*
X152654000Y-100330000D03*
X155448000Y-100330000D03*
X158242000Y-100330000D03*
D23*
%TO.N,/AT*%
X168554100Y-92056400D03*
%TO.N,/A1*%
X180517100Y-85699800D03*
%TO.N,/A0*%
X195083800Y-85112400D03*
%TO.N,/SCL*%
X177449600Y-92160500D03*
%TD*%
D24*
%TO.N,GND*%
X142805000Y-97538000D02*
X143370000Y-96973000D01*
X143370000Y-96973000D02*
X143370000Y-96568000D01*
X179180000Y-89968500D02*
X178615900Y-89968500D01*
X178615900Y-89968500D02*
X176724300Y-91860100D01*
X176724300Y-91860100D02*
X176724300Y-92725000D01*
X176724300Y-92725000D02*
X171659300Y-97790000D01*
X160633900Y-95250000D02*
X153873100Y-95250000D01*
X153873100Y-95250000D02*
X152510300Y-93887200D01*
X161130700Y-94996000D02*
X160876700Y-95250000D01*
X160876700Y-95250000D02*
X160633900Y-95250000D01*
X162306000Y-94996000D02*
X161130700Y-94996000D01*
X152510300Y-93887200D02*
X151782500Y-94615000D01*
X151782500Y-94615000D02*
X150687000Y-94615000D01*
X151891500Y-89662000D02*
X152510300Y-90280800D01*
X152510300Y-90280800D02*
X152510300Y-93887200D01*
X149072500Y-86843000D02*
X151891500Y-89662000D01*
X150687000Y-94615000D02*
X150306000Y-94996000D01*
X150306000Y-94996000D02*
X147216500Y-94996000D01*
X151283500Y-81788000D02*
X151283500Y-84532000D01*
X151283500Y-84532000D02*
X151333500Y-84582000D01*
X149072500Y-86843000D02*
X151333500Y-84582000D01*
X147320000Y-86868000D02*
X149047500Y-86868000D01*
X149047500Y-86868000D02*
X149072500Y-86843000D01*
X138625000Y-88898000D02*
X137499700Y-88898000D01*
X137499700Y-88898000D02*
X136693800Y-88092100D01*
X136693800Y-88092100D02*
X136693800Y-84681200D01*
X136693800Y-84681200D02*
X137500000Y-83875000D01*
X196934000Y-99060000D02*
X198159300Y-99060000D01*
X199390000Y-98925000D02*
X198294300Y-98925000D01*
X198294300Y-98925000D02*
X198159300Y-99060000D01*
X203708000Y-98925000D02*
X199390000Y-98925000D01*
X170434000Y-97790000D02*
X171659300Y-97790000D01*
X179180000Y-89968500D02*
X189157200Y-89968500D01*
X189157200Y-89968500D02*
X195708700Y-96520000D01*
X179180000Y-82804000D02*
X179180000Y-89968500D01*
X196934000Y-96520000D02*
X195708700Y-96520000D01*
X196934000Y-99060000D02*
X196673500Y-99060000D01*
X196673500Y-99060000D02*
X195708700Y-98095200D01*
X195708700Y-98095200D02*
X195708700Y-96520000D01*
X137500000Y-83875000D02*
X139137000Y-83875000D01*
X139137000Y-83875000D02*
X139192000Y-83820000D01*
X142805000Y-88898000D02*
X143370000Y-89463000D01*
X143370000Y-89463000D02*
X143370000Y-89868000D01*
X146024100Y-89868000D02*
X146024100Y-90755600D01*
X146024100Y-90755600D02*
X147216500Y-91948000D01*
X147320000Y-86868000D02*
X146024100Y-88163900D01*
X146024100Y-88163900D02*
X146024100Y-89868000D01*
X146024100Y-89868000D02*
X144270300Y-89868000D01*
X143370000Y-89868000D02*
X144270300Y-89868000D01*
X205523000Y-100740000D02*
X203708000Y-98925000D01*
X142365300Y-82320000D02*
X143010300Y-81675000D01*
X143010300Y-81675000D02*
X147300000Y-81675000D01*
X143370000Y-89868000D02*
X143370000Y-90168000D01*
X143370000Y-96568000D02*
X143370000Y-96268000D01*
X141390000Y-82320000D02*
X140414700Y-82320000D01*
X139192000Y-83820000D02*
X140414700Y-82597300D01*
X140414700Y-82597300D02*
X140414700Y-82320000D01*
X141390000Y-82320000D02*
X142365300Y-82320000D01*
X165171400Y-92781400D02*
X164846000Y-92456000D01*
X169330100Y-97790000D02*
X165171400Y-93631300D01*
X165171400Y-93631300D02*
X165171400Y-92781400D01*
X170434000Y-97790000D02*
X169330100Y-97790000D01*
X160633900Y-98997600D02*
X160633900Y-95250000D01*
X165402800Y-100170700D02*
X161807000Y-100170700D01*
X161807000Y-100170700D02*
X160633900Y-98997600D01*
X166021001Y-101251001D02*
X166021001Y-100788901D01*
X166021001Y-100788901D02*
X165402800Y-100170700D01*
X166116000Y-101346000D02*
X166021001Y-101251001D01*
X167386000Y-101346000D02*
X166116000Y-101346000D01*
%TO.N,Net-(C1-Pad1)*%
X153616500Y-89662000D02*
X155637000Y-91682500D01*
X155637000Y-91682500D02*
X155637000Y-92075000D01*
%TO.N,Net-(C2-Pad2)*%
X199390000Y-97790000D02*
X196934000Y-97790000D01*
X201048500Y-97790000D02*
X199390000Y-97790000D01*
%TO.N,Net-(C3-Pad1)*%
X202183500Y-97790000D02*
X203708000Y-97790000D01*
X203708000Y-97790000D02*
X210820000Y-97790000D01*
%TO.N,+5V*%
X143370000Y-95768000D02*
X144438900Y-95768000D01*
X144438900Y-95768000D02*
X145235300Y-96564400D01*
X145235300Y-96564400D02*
X154957600Y-96564400D01*
X154957600Y-96564400D02*
X155637000Y-95885000D01*
X143370000Y-95468000D02*
X143370000Y-95768000D01*
X140189700Y-85545000D02*
X140414700Y-85320000D01*
X139192000Y-85545000D02*
X140189700Y-85545000D01*
X140189700Y-85545000D02*
X140189700Y-89192800D01*
X140189700Y-89192800D02*
X141989500Y-90992600D01*
X141989500Y-90992600D02*
X143345400Y-90992600D01*
X143345400Y-90992600D02*
X143370000Y-90968000D01*
X143370000Y-95468000D02*
X142624800Y-95468000D01*
X142624800Y-95468000D02*
X141989500Y-94832700D01*
X141989500Y-94832700D02*
X141989500Y-90992600D01*
X137500000Y-85600000D02*
X139137000Y-85600000D01*
X139137000Y-85600000D02*
X139192000Y-85545000D01*
X143370000Y-90668000D02*
X143370000Y-90968000D01*
X141390000Y-85320000D02*
X140414700Y-85320000D01*
%TO.N,+3V3*%
X147300000Y-83400000D02*
X149760100Y-80939900D01*
X149760100Y-80939900D02*
X167522000Y-80939900D01*
X167522000Y-80939900D02*
X168100000Y-81517900D01*
X146880000Y-83820000D02*
X147300000Y-83400000D01*
X168100000Y-81517900D02*
X168100000Y-81978700D01*
X168100000Y-82804000D02*
X168100000Y-81978700D01*
X141477500Y-83820000D02*
X146880000Y-83820000D01*
X146880000Y-83820000D02*
X146880000Y-84703000D01*
X146880000Y-84703000D02*
X147320000Y-85143000D01*
X162306000Y-97536000D02*
X162306000Y-98298000D01*
X164846000Y-94996000D02*
X162306000Y-97536000D01*
X209042000Y-89408000D02*
X209042000Y-81534000D01*
X205994000Y-92456000D02*
X209042000Y-89408000D01*
X209042000Y-81534000D02*
X208280000Y-80772000D01*
X192827982Y-80772000D02*
X190799982Y-82800000D01*
X208280000Y-80772000D02*
X192827982Y-80772000D01*
X169375291Y-81528691D02*
X168099982Y-82804000D01*
X189528673Y-81528691D02*
X169375291Y-81528691D01*
X190799982Y-82800000D02*
X189528673Y-81528691D01*
%TO.N,Net-(D1-Pad2)*%
X152908500Y-81788000D02*
X154939500Y-81788000D01*
%TO.N,Net-(D2-Pad2)*%
X152958500Y-84582000D02*
X154939500Y-84582000D01*
%TO.N,/AT*%
X168554100Y-92056400D02*
X169170500Y-91440000D01*
X169170500Y-91440000D02*
X170434000Y-91440000D01*
%TO.N,/A1*%
X180517100Y-85699800D02*
X193001800Y-85699800D01*
X193001800Y-85699800D02*
X193947000Y-86645000D01*
%TO.N,/A0*%
X195217000Y-86645000D02*
X195217000Y-85245600D01*
X195217000Y-85245600D02*
X195083800Y-85112400D01*
%TO.N,/SCL*%
X195217000Y-100045000D02*
X195217000Y-98819700D01*
X177449600Y-92160500D02*
X188557800Y-92160500D01*
X188557800Y-92160500D02*
X195217000Y-98819700D01*
%TO.N,/SDA*%
X161101900Y-97791200D02*
X161101900Y-98761000D01*
X161101900Y-98761000D02*
X161851300Y-99510400D01*
X161851300Y-99510400D02*
X168788300Y-99510400D01*
X168788300Y-99510400D02*
X169322900Y-100045000D01*
X169322900Y-100045000D02*
X193947000Y-100045000D01*
X163481001Y-93631001D02*
X162306000Y-92456000D01*
X163481001Y-95560001D02*
X163481001Y-93631001D01*
X161979452Y-97061550D02*
X163481001Y-95560001D01*
X161831550Y-97061550D02*
X161979452Y-97061550D01*
X161831550Y-97061550D02*
X161101900Y-97791200D01*
%TO.N,/TX*%
X164846000Y-91091300D02*
X160489300Y-91091300D01*
X160489300Y-91091300D02*
X158235600Y-93345000D01*
X158235600Y-93345000D02*
X155637000Y-93345000D01*
X164846000Y-90978700D02*
X164846000Y-91091300D01*
X164846000Y-89916000D02*
X164846000Y-90978700D01*
X164846000Y-91091300D02*
X165926400Y-91091300D01*
X165926400Y-91091300D02*
X168815100Y-93980000D01*
X168815100Y-93980000D02*
X170434000Y-93980000D01*
%TO.N,/RX*%
X164846000Y-88551300D02*
X165213400Y-88551300D01*
X165213400Y-88551300D02*
X167828800Y-91166700D01*
X167828800Y-91166700D02*
X167828800Y-92356800D01*
X167828800Y-92356800D02*
X168258100Y-92786100D01*
X168258100Y-92786100D02*
X169132600Y-92786100D01*
X164846000Y-88551300D02*
X160862400Y-88551300D01*
X160862400Y-88551300D02*
X156703700Y-92710000D01*
X156703700Y-92710000D02*
X154600900Y-92710000D01*
X154600900Y-92710000D02*
X154287600Y-93023300D01*
X154287600Y-93023300D02*
X154287600Y-93666900D01*
X154287600Y-93666900D02*
X155235700Y-94615000D01*
X155235700Y-94615000D02*
X155637000Y-94615000D01*
X164846000Y-88438700D02*
X164846000Y-88551300D01*
X164846000Y-87376000D02*
X164846000Y-88438700D01*
X169837599Y-92781401D02*
X168252911Y-92781401D01*
X169909000Y-92710000D02*
X169837599Y-92781401D01*
X170434000Y-92710000D02*
X169909000Y-92710000D01*
%TO.N,/P3*%
X164846000Y-85636998D02*
X164846000Y-84836000D01*
X169208700Y-89999698D02*
X164846000Y-85636998D01*
X170263698Y-89999698D02*
X170434000Y-90170000D01*
X169208700Y-89999698D02*
X170263698Y-89999698D01*
%TO.N,Net-(J3-Pad1)*%
X170434000Y-99060000D02*
X169208700Y-99060000D01*
X169208700Y-99060000D02*
X168446700Y-98298000D01*
X168446700Y-98298000D02*
X166021300Y-98298000D01*
X164846000Y-98298000D02*
X166021300Y-98298000D01*
%TO.N,Net-(J4-PadA5)*%
X143370000Y-91968000D02*
X144270300Y-91968000D01*
X145391500Y-91948000D02*
X144290300Y-91948000D01*
X144290300Y-91948000D02*
X144270300Y-91968000D01*
%TO.N,/D-*%
X143370000Y-92468000D02*
X142469700Y-92468000D01*
X143370000Y-93468000D02*
X142469700Y-93468000D01*
X142469700Y-93468000D02*
X142469700Y-92468000D01*
X143370000Y-92468000D02*
X144270300Y-92468000D01*
X144270300Y-92468000D02*
X145147300Y-93345000D01*
X145147300Y-93345000D02*
X150687000Y-93345000D01*
%TO.N,/D+*%
X144270300Y-93968000D02*
X144282300Y-93980000D01*
X144282300Y-93980000D02*
X151723400Y-93980000D01*
X151723400Y-93980000D02*
X152017500Y-93685900D01*
X152017500Y-93685900D02*
X152017500Y-92976400D01*
X152017500Y-92976400D02*
X151116100Y-92075000D01*
X151116100Y-92075000D02*
X150687000Y-92075000D01*
X144157700Y-93968000D02*
X144270300Y-93968000D01*
X143370000Y-93968000D02*
X144157700Y-93968000D01*
X144270300Y-93968000D02*
X144270300Y-93104900D01*
X144270300Y-93104900D02*
X144133400Y-92968000D01*
X144133400Y-92968000D02*
X143370000Y-92968000D01*
%TO.N,Net-(J4-PadB5)*%
X143370000Y-94968000D02*
X145363500Y-94968000D01*
X145363500Y-94968000D02*
X145391500Y-94996000D01*
%TO.N,Net-(J5-Pad3)*%
X204216000Y-88900000D02*
X205994000Y-87122000D01*
X196934000Y-88900000D02*
X204216000Y-88900000D01*
%TO.N,/RST*%
X204818700Y-82296000D02*
X205994000Y-82296000D01*
X178432800Y-81978700D02*
X186467400Y-81978700D01*
X171427500Y-96520000D02*
X176967300Y-90980200D01*
X176967300Y-90980200D02*
X176967300Y-83444200D01*
X176967300Y-83444200D02*
X178432800Y-81978700D01*
X186580000Y-82804000D02*
X187505300Y-82804000D01*
X170434000Y-96520000D02*
X171427500Y-96520000D01*
X186580000Y-82091300D02*
X186580000Y-82804000D01*
X187505300Y-82804000D02*
X188326700Y-83625400D01*
X195451100Y-83625400D02*
X197147100Y-81929400D01*
X188326700Y-83625400D02*
X195451100Y-83625400D01*
X197147100Y-81929400D02*
X204452100Y-81929400D01*
X186467400Y-81978700D02*
X186580000Y-82091300D01*
X204452100Y-81929400D02*
X204818700Y-82296000D01*
%TO.N,/P1*%
X170434000Y-87626000D02*
X170434000Y-87630000D01*
X170434000Y-87005000D02*
X165217000Y-81788000D01*
X170434000Y-87630000D02*
X170434000Y-87005000D01*
X164084000Y-81788000D02*
X164596000Y-81788000D01*
X165217000Y-81788000D02*
X164084000Y-81788000D01*
X156764500Y-81788000D02*
X164084000Y-81788000D01*
%TO.N,/P2*%
X156764500Y-84582000D02*
X157716300Y-83630200D01*
X166021001Y-83725999D02*
X165925202Y-83630200D01*
X166021001Y-85637001D02*
X166021001Y-83725999D01*
X169284000Y-88900000D02*
X166021001Y-85637001D01*
X165925202Y-83630200D02*
X157716300Y-83630200D01*
X170434000Y-88900000D02*
X169284000Y-88900000D01*
%TO.N,/WKUP*%
X175500000Y-82804000D02*
X175500000Y-91409300D01*
X175500000Y-91409300D02*
X171659300Y-95250000D01*
X170434000Y-95250000D02*
X171659300Y-95250000D01*
%TO.N,/BOOT*%
X198200000Y-82800000D02*
X198200000Y-83625300D01*
X198200000Y-83625300D02*
X196934000Y-84891300D01*
X196934000Y-84891300D02*
X196934000Y-87630000D01*
%TO.N,Net-(J5-Pad2)*%
X205486000Y-90170000D02*
X205994000Y-89662000D01*
X196934000Y-90170000D02*
X205486000Y-90170000D01*
%TD*%
D25*
%TO.N,GND*%
X215065424Y-80669580D02*
X215128356Y-80688580D01*
X215186405Y-80719445D01*
X215237343Y-80760989D01*
X215279248Y-80811644D01*
X215310515Y-80869471D01*
X215329956Y-80932272D01*
X215340000Y-81027835D01*
X215340001Y-101967711D01*
X215330420Y-102065424D01*
X215311420Y-102128357D01*
X215280554Y-102186406D01*
X215239011Y-102237343D01*
X215188356Y-102279248D01*
X215130529Y-102310515D01*
X215067728Y-102329956D01*
X214972165Y-102340000D01*
X168479642Y-102340000D01*
X168581178Y-102227355D01*
X168730157Y-101977252D01*
X168827481Y-101702891D01*
X168706814Y-101473000D01*
X167513000Y-101473000D01*
X167513000Y-101493000D01*
X167259000Y-101493000D01*
X167259000Y-101473000D01*
X167239000Y-101473000D01*
X167239000Y-101219000D01*
X167259000Y-101219000D01*
X167259000Y-101199000D01*
X167513000Y-101199000D01*
X167513000Y-101219000D01*
X168706814Y-101219000D01*
X168827481Y-100989109D01*
X168730157Y-100714748D01*
X168581178Y-100464645D01*
X168406089Y-100270400D01*
X168473499Y-100270400D01*
X168759100Y-100556002D01*
X168782899Y-100585001D01*
X168811897Y-100608799D01*
X168898624Y-100679974D01*
X169030653Y-100750546D01*
X169173914Y-100794003D01*
X169322900Y-100808677D01*
X169360233Y-100805000D01*
X192962841Y-100805000D01*
X193009368Y-100958379D01*
X193103153Y-101133840D01*
X193229367Y-101287633D01*
X193383160Y-101413847D01*
X193558620Y-101507632D01*
X193749006Y-101565385D01*
X193947000Y-101584886D01*
X194144993Y-101565385D01*
X194335379Y-101507632D01*
X194510840Y-101413847D01*
X194582000Y-101355448D01*
X194653160Y-101413847D01*
X194828620Y-101507632D01*
X195019006Y-101565385D01*
X195217000Y-101584886D01*
X195414993Y-101565385D01*
X195450773Y-101554531D01*
X207235074Y-101554531D01*
X207345921Y-101831714D01*
X207656840Y-101985089D01*
X207991705Y-102074860D01*
X208337650Y-102097576D01*
X208681380Y-102052366D01*
X209009685Y-101940966D01*
X209214079Y-101831714D01*
X209324926Y-101554531D01*
X212315074Y-101554531D01*
X212425921Y-101831714D01*
X212736840Y-101985089D01*
X213071705Y-102074860D01*
X213417650Y-102097576D01*
X213761380Y-102052366D01*
X214089685Y-101940966D01*
X214294079Y-101831714D01*
X214404926Y-101554531D01*
X213360000Y-100509605D01*
X212315074Y-101554531D01*
X209324926Y-101554531D01*
X208280000Y-100509605D01*
X207235074Y-101554531D01*
X195450773Y-101554531D01*
X195605379Y-101507632D01*
X195780840Y-101413847D01*
X195934633Y-101287633D01*
X196060847Y-101133840D01*
X196154632Y-100958380D01*
X196212385Y-100767994D01*
X196227000Y-100619608D01*
X196227000Y-100387650D01*
X206512424Y-100387650D01*
X206557634Y-100731380D01*
X206669034Y-101059685D01*
X206778286Y-101264079D01*
X207055469Y-101374926D01*
X208100395Y-100330000D01*
X208459605Y-100330000D01*
X209504531Y-101374926D01*
X209781714Y-101264079D01*
X209935089Y-100953160D01*
X210024860Y-100618295D01*
X210040004Y-100387650D01*
X211592424Y-100387650D01*
X211637634Y-100731380D01*
X211749034Y-101059685D01*
X211858286Y-101264079D01*
X212135469Y-101374926D01*
X213180395Y-100330000D01*
X213539605Y-100330000D01*
X214584531Y-101374926D01*
X214861714Y-101264079D01*
X215015089Y-100953160D01*
X215104860Y-100618295D01*
X215127576Y-100272350D01*
X215082366Y-99928620D01*
X214970966Y-99600315D01*
X214861714Y-99395921D01*
X214584531Y-99285074D01*
X213539605Y-100330000D01*
X213180395Y-100330000D01*
X212135469Y-99285074D01*
X211858286Y-99395921D01*
X211704911Y-99706840D01*
X211615140Y-100041705D01*
X211592424Y-100387650D01*
X210040004Y-100387650D01*
X210047576Y-100272350D01*
X210002366Y-99928620D01*
X209890966Y-99600315D01*
X209781714Y-99395921D01*
X209504531Y-99285074D01*
X208459605Y-100330000D01*
X208100395Y-100330000D01*
X207055469Y-99285074D01*
X206778286Y-99395921D01*
X206624911Y-99706840D01*
X206535140Y-100041705D01*
X206512424Y-100387650D01*
X196227000Y-100387650D01*
X196227000Y-100057513D01*
X196282000Y-100070000D01*
X196807000Y-100070000D01*
X196807000Y-99187000D01*
X197061000Y-99187000D01*
X197061000Y-100070000D01*
X197586000Y-100070000D01*
X197780601Y-100025817D01*
X197962843Y-99944518D01*
X198125723Y-99829227D01*
X198262981Y-99684375D01*
X198369342Y-99515529D01*
X198428781Y-99342181D01*
X198387784Y-99292500D01*
X198441928Y-99292500D01*
X198454188Y-99416982D01*
X198490498Y-99536680D01*
X198549463Y-99646994D01*
X198628815Y-99743685D01*
X198725506Y-99823037D01*
X198835820Y-99882002D01*
X198955518Y-99918312D01*
X199080000Y-99930572D01*
X199104250Y-99927500D01*
X199263000Y-99768750D01*
X199263000Y-99052000D01*
X199517000Y-99052000D01*
X199517000Y-99768750D01*
X199675750Y-99927500D01*
X199700000Y-99930572D01*
X199824482Y-99918312D01*
X199944180Y-99882002D01*
X200054494Y-99823037D01*
X200151185Y-99743685D01*
X200230537Y-99646994D01*
X200289502Y-99536680D01*
X200325812Y-99416982D01*
X200338072Y-99292500D01*
X202759928Y-99292500D01*
X202772188Y-99416982D01*
X202808498Y-99536680D01*
X202867463Y-99646994D01*
X202946815Y-99743685D01*
X203043506Y-99823037D01*
X203153820Y-99882002D01*
X203273518Y-99918312D01*
X203398000Y-99930572D01*
X203422250Y-99927500D01*
X203581000Y-99768750D01*
X203581000Y-99052000D01*
X203835000Y-99052000D01*
X203835000Y-99768750D01*
X203993750Y-99927500D01*
X204018000Y-99930572D01*
X204142482Y-99918312D01*
X204262180Y-99882002D01*
X204372494Y-99823037D01*
X204469185Y-99743685D01*
X204548537Y-99646994D01*
X204607502Y-99536680D01*
X204643812Y-99416982D01*
X204656072Y-99292500D01*
X204653000Y-99210750D01*
X204547719Y-99105469D01*
X207235074Y-99105469D01*
X208280000Y-100150395D01*
X209324926Y-99105469D01*
X209214079Y-98828286D01*
X208903160Y-98674911D01*
X208568295Y-98585140D01*
X208222350Y-98562424D01*
X207878620Y-98607634D01*
X207550315Y-98719034D01*
X207345921Y-98828286D01*
X207235074Y-99105469D01*
X204547719Y-99105469D01*
X204494250Y-99052000D01*
X203835000Y-99052000D01*
X203581000Y-99052000D01*
X202921750Y-99052000D01*
X202763000Y-99210750D01*
X202759928Y-99292500D01*
X200338072Y-99292500D01*
X200335000Y-99210750D01*
X200176250Y-99052000D01*
X199517000Y-99052000D01*
X199263000Y-99052000D01*
X198603750Y-99052000D01*
X198445000Y-99210750D01*
X198441928Y-99292500D01*
X198387784Y-99292500D01*
X198300723Y-99187000D01*
X197061000Y-99187000D01*
X196807000Y-99187000D01*
X196787000Y-99187000D01*
X196787000Y-98933000D01*
X196807000Y-98933000D01*
X196807000Y-98913000D01*
X197061000Y-98913000D01*
X197061000Y-98933000D01*
X198300723Y-98933000D01*
X198428781Y-98777819D01*
X198369342Y-98604471D01*
X198335029Y-98550000D01*
X198442667Y-98550000D01*
X198441928Y-98557500D01*
X198445000Y-98639250D01*
X198603750Y-98798000D01*
X199263000Y-98798000D01*
X199263000Y-98795572D01*
X199517000Y-98795572D01*
X199517000Y-98798000D01*
X200176250Y-98798000D01*
X200335000Y-98639250D01*
X200338072Y-98557500D01*
X200338058Y-98557362D01*
X200395393Y-98604415D01*
X200532504Y-98677703D01*
X200681279Y-98722833D01*
X200836000Y-98738072D01*
X201261000Y-98738072D01*
X201415721Y-98722833D01*
X201564496Y-98677703D01*
X201616000Y-98650173D01*
X201667504Y-98677703D01*
X201816279Y-98722833D01*
X201971000Y-98738072D01*
X202396000Y-98738072D01*
X202550721Y-98722833D01*
X202699496Y-98677703D01*
X202765938Y-98642188D01*
X202921750Y-98798000D01*
X203581000Y-98798000D01*
X203581000Y-98795572D01*
X203835000Y-98795572D01*
X203835000Y-98798000D01*
X204494250Y-98798000D01*
X204653000Y-98639250D01*
X204656072Y-98557500D01*
X204655333Y-98550000D01*
X209338031Y-98550000D01*
X209348927Y-98576305D01*
X209530594Y-98848188D01*
X209761812Y-99079406D01*
X210033695Y-99261073D01*
X210335796Y-99386207D01*
X210656504Y-99450000D01*
X210983496Y-99450000D01*
X211304204Y-99386207D01*
X211606305Y-99261073D01*
X211839182Y-99105469D01*
X212315074Y-99105469D01*
X213360000Y-100150395D01*
X214404926Y-99105469D01*
X214294079Y-98828286D01*
X213983160Y-98674911D01*
X213648295Y-98585140D01*
X213302350Y-98562424D01*
X212958620Y-98607634D01*
X212630315Y-98719034D01*
X212425921Y-98828286D01*
X212315074Y-99105469D01*
X211839182Y-99105469D01*
X211878188Y-99079406D01*
X212109406Y-98848188D01*
X212291073Y-98576305D01*
X212416207Y-98274204D01*
X212480000Y-97953496D01*
X212480000Y-97626504D01*
X212416207Y-97305796D01*
X212291073Y-97003695D01*
X212109406Y-96731812D01*
X211878188Y-96500594D01*
X211839183Y-96474531D01*
X212315074Y-96474531D01*
X212425921Y-96751714D01*
X212736840Y-96905089D01*
X213071705Y-96994860D01*
X213417650Y-97017576D01*
X213761380Y-96972366D01*
X214089685Y-96860966D01*
X214294079Y-96751714D01*
X214404926Y-96474531D01*
X213360000Y-95429605D01*
X212315074Y-96474531D01*
X211839183Y-96474531D01*
X211606305Y-96318927D01*
X211304204Y-96193793D01*
X210983496Y-96130000D01*
X210656504Y-96130000D01*
X210335796Y-96193793D01*
X210033695Y-96318927D01*
X209761812Y-96500594D01*
X209530594Y-96731812D01*
X209348927Y-97003695D01*
X209338031Y-97030000D01*
X204434691Y-97030000D01*
X204423787Y-97016713D01*
X204303607Y-96918085D01*
X204166496Y-96844797D01*
X204017721Y-96799667D01*
X203863000Y-96784428D01*
X203553000Y-96784428D01*
X203398279Y-96799667D01*
X203249504Y-96844797D01*
X203112393Y-96918085D01*
X202992213Y-97016713D01*
X202981309Y-97030000D01*
X202902913Y-97030000D01*
X202836607Y-96975585D01*
X202699496Y-96902297D01*
X202550721Y-96857167D01*
X202396000Y-96841928D01*
X201971000Y-96841928D01*
X201816279Y-96857167D01*
X201667504Y-96902297D01*
X201616000Y-96929827D01*
X201564496Y-96902297D01*
X201415721Y-96857167D01*
X201261000Y-96841928D01*
X200836000Y-96841928D01*
X200681279Y-96857167D01*
X200532504Y-96902297D01*
X200395393Y-96975585D01*
X200329087Y-97030000D01*
X200116691Y-97030000D01*
X200105787Y-97016713D01*
X199985607Y-96918085D01*
X199848496Y-96844797D01*
X199699721Y-96799667D01*
X199545000Y-96784428D01*
X199235000Y-96784428D01*
X199080279Y-96799667D01*
X198931504Y-96844797D01*
X198794393Y-96918085D01*
X198674213Y-97016713D01*
X198663309Y-97030000D01*
X198335029Y-97030000D01*
X198369342Y-96975529D01*
X198428781Y-96802181D01*
X198300723Y-96647000D01*
X197061000Y-96647000D01*
X197061000Y-96667000D01*
X196807000Y-96667000D01*
X196807000Y-96647000D01*
X195567277Y-96647000D01*
X195439219Y-96802181D01*
X195498658Y-96975529D01*
X195605019Y-97144375D01*
X195619623Y-97159787D01*
X195565153Y-97226160D01*
X195471368Y-97401620D01*
X195413615Y-97592006D01*
X195394114Y-97790000D01*
X195408537Y-97936435D01*
X193946633Y-96474531D01*
X207235074Y-96474531D01*
X207345921Y-96751714D01*
X207656840Y-96905089D01*
X207991705Y-96994860D01*
X208337650Y-97017576D01*
X208681380Y-96972366D01*
X209009685Y-96860966D01*
X209214079Y-96751714D01*
X209324926Y-96474531D01*
X208280000Y-95429605D01*
X207235074Y-96474531D01*
X193946633Y-96474531D01*
X193709921Y-96237819D01*
X195439219Y-96237819D01*
X195567277Y-96393000D01*
X196807000Y-96393000D01*
X196807000Y-95510000D01*
X197061000Y-95510000D01*
X197061000Y-96393000D01*
X198300723Y-96393000D01*
X198428781Y-96237819D01*
X198369342Y-96064471D01*
X198262981Y-95895625D01*
X198125723Y-95750773D01*
X197962843Y-95635482D01*
X197780601Y-95554183D01*
X197586000Y-95510000D01*
X197061000Y-95510000D01*
X196807000Y-95510000D01*
X196282000Y-95510000D01*
X196087399Y-95554183D01*
X195905157Y-95635482D01*
X195742277Y-95750773D01*
X195605019Y-95895625D01*
X195498658Y-96064471D01*
X195439219Y-96237819D01*
X193709921Y-96237819D01*
X192779752Y-95307650D01*
X206512424Y-95307650D01*
X206557634Y-95651380D01*
X206669034Y-95979685D01*
X206778286Y-96184079D01*
X207055469Y-96294926D01*
X208100395Y-95250000D01*
X208459605Y-95250000D01*
X209504531Y-96294926D01*
X209781714Y-96184079D01*
X209935089Y-95873160D01*
X210024860Y-95538295D01*
X210040004Y-95307650D01*
X211592424Y-95307650D01*
X211637634Y-95651380D01*
X211749034Y-95979685D01*
X211858286Y-96184079D01*
X212135469Y-96294926D01*
X213180395Y-95250000D01*
X213539605Y-95250000D01*
X214584531Y-96294926D01*
X214861714Y-96184079D01*
X215015089Y-95873160D01*
X215104860Y-95538295D01*
X215127576Y-95192350D01*
X215082366Y-94848620D01*
X214970966Y-94520315D01*
X214861714Y-94315921D01*
X214584531Y-94205074D01*
X213539605Y-95250000D01*
X213180395Y-95250000D01*
X212135469Y-94205074D01*
X211858286Y-94315921D01*
X211704911Y-94626840D01*
X211615140Y-94961705D01*
X211592424Y-95307650D01*
X210040004Y-95307650D01*
X210047576Y-95192350D01*
X210002366Y-94848620D01*
X209890966Y-94520315D01*
X209781714Y-94315921D01*
X209504531Y-94205074D01*
X208459605Y-95250000D01*
X208100395Y-95250000D01*
X207055469Y-94205074D01*
X206778286Y-94315921D01*
X206624911Y-94626840D01*
X206535140Y-94961705D01*
X206512424Y-95307650D01*
X192779752Y-95307650D01*
X191497571Y-94025469D01*
X207235074Y-94025469D01*
X208280000Y-95070395D01*
X209324926Y-94025469D01*
X212315074Y-94025469D01*
X213360000Y-95070395D01*
X214404926Y-94025469D01*
X214294079Y-93748286D01*
X213983160Y-93594911D01*
X213648295Y-93505140D01*
X213302350Y-93482424D01*
X212958620Y-93527634D01*
X212630315Y-93639034D01*
X212425921Y-93748286D01*
X212315074Y-94025469D01*
X209324926Y-94025469D01*
X209214079Y-93748286D01*
X208903160Y-93594911D01*
X208568295Y-93505140D01*
X208222350Y-93482424D01*
X207878620Y-93527634D01*
X207550315Y-93639034D01*
X207345921Y-93748286D01*
X207235074Y-94025469D01*
X191497571Y-94025469D01*
X189121604Y-91649503D01*
X189097801Y-91620499D01*
X188982076Y-91525526D01*
X188850047Y-91454954D01*
X188706786Y-91411497D01*
X188595133Y-91400500D01*
X188595122Y-91400500D01*
X188557800Y-91396824D01*
X188520478Y-91400500D01*
X178153311Y-91400500D01*
X178109374Y-91356563D01*
X177939856Y-91243295D01*
X177751498Y-91165274D01*
X177707982Y-91156618D01*
X177716303Y-91129186D01*
X177727300Y-91017533D01*
X177727300Y-91017524D01*
X177730976Y-90980201D01*
X177727300Y-90942878D01*
X177727300Y-83759001D01*
X177978295Y-83508007D01*
X177990481Y-83548179D01*
X178049446Y-83658493D01*
X178128798Y-83755184D01*
X178225489Y-83834536D01*
X178335803Y-83893501D01*
X178455501Y-83929811D01*
X178579983Y-83942071D01*
X178894232Y-83938999D01*
X179052982Y-83780249D01*
X179052982Y-82931000D01*
X179306982Y-82931000D01*
X179306982Y-83780249D01*
X179465732Y-83938999D01*
X179779981Y-83942071D01*
X179904463Y-83929811D01*
X180024161Y-83893501D01*
X180134475Y-83834536D01*
X180231166Y-83755184D01*
X180310518Y-83658493D01*
X180369483Y-83548179D01*
X180405793Y-83428481D01*
X180418053Y-83303999D01*
X180414981Y-83089750D01*
X180256231Y-82931000D01*
X179306982Y-82931000D01*
X179052982Y-82931000D01*
X179032982Y-82931000D01*
X179032982Y-82738700D01*
X185341947Y-82738700D01*
X185341947Y-83303999D01*
X185354207Y-83428481D01*
X185390517Y-83548179D01*
X185449482Y-83658493D01*
X185528834Y-83755184D01*
X185625525Y-83834536D01*
X185735839Y-83893501D01*
X185855537Y-83929811D01*
X185980019Y-83942071D01*
X187180017Y-83942071D01*
X187304499Y-83929811D01*
X187424197Y-83893501D01*
X187486629Y-83860130D01*
X187762901Y-84136402D01*
X187786699Y-84165401D01*
X187815697Y-84189199D01*
X187902423Y-84260374D01*
X187969542Y-84296250D01*
X188034453Y-84330946D01*
X188177714Y-84374403D01*
X188289367Y-84385400D01*
X188289377Y-84385400D01*
X188326699Y-84389076D01*
X188364022Y-84385400D01*
X194347089Y-84385400D01*
X194279863Y-84452626D01*
X194166595Y-84622144D01*
X194088574Y-84810502D01*
X194048800Y-85010461D01*
X194048800Y-85115141D01*
X193947000Y-85105114D01*
X193749007Y-85124615D01*
X193559984Y-85181955D01*
X193541801Y-85159799D01*
X193426076Y-85064826D01*
X193294047Y-84994254D01*
X193150786Y-84950797D01*
X193039133Y-84939800D01*
X193039122Y-84939800D01*
X193001800Y-84936124D01*
X192964478Y-84939800D01*
X181220811Y-84939800D01*
X181176874Y-84895863D01*
X181007356Y-84782595D01*
X180818998Y-84704574D01*
X180619039Y-84664800D01*
X180415161Y-84664800D01*
X180215202Y-84704574D01*
X180026844Y-84782595D01*
X179857326Y-84895863D01*
X179713163Y-85040026D01*
X179599895Y-85209544D01*
X179521874Y-85397902D01*
X179482100Y-85597861D01*
X179482100Y-85801739D01*
X179521874Y-86001698D01*
X179599895Y-86190056D01*
X179713163Y-86359574D01*
X179857326Y-86503737D01*
X180026844Y-86617005D01*
X180215202Y-86695026D01*
X180415161Y-86734800D01*
X180619039Y-86734800D01*
X180818998Y-86695026D01*
X181007356Y-86617005D01*
X181176874Y-86503737D01*
X181220811Y-86459800D01*
X192686999Y-86459800D01*
X192937000Y-86709802D01*
X192937000Y-87219607D01*
X192951615Y-87367993D01*
X193009368Y-87558379D01*
X193103153Y-87733840D01*
X193229367Y-87887633D01*
X193383160Y-88013847D01*
X193558620Y-88107632D01*
X193749006Y-88165385D01*
X193947000Y-88184886D01*
X194144993Y-88165385D01*
X194335379Y-88107632D01*
X194510840Y-88013847D01*
X194582000Y-87955448D01*
X194653160Y-88013847D01*
X194828620Y-88107632D01*
X195019006Y-88165385D01*
X195217000Y-88184886D01*
X195414993Y-88165385D01*
X195531115Y-88130160D01*
X195565153Y-88193840D01*
X195623552Y-88265000D01*
X195565153Y-88336160D01*
X195471368Y-88511620D01*
X195413615Y-88702006D01*
X195394114Y-88900000D01*
X195413615Y-89097994D01*
X195471368Y-89288380D01*
X195565153Y-89463840D01*
X195623552Y-89535000D01*
X195565153Y-89606160D01*
X195471368Y-89781620D01*
X195413615Y-89972006D01*
X195394114Y-90170000D01*
X195413615Y-90367994D01*
X195471368Y-90558380D01*
X195565153Y-90733840D01*
X195691367Y-90887633D01*
X195845160Y-91013847D01*
X196020620Y-91107632D01*
X196211006Y-91165385D01*
X196359392Y-91180000D01*
X197508608Y-91180000D01*
X197656994Y-91165385D01*
X197847380Y-91107632D01*
X198022840Y-91013847D01*
X198125008Y-90930000D01*
X204668864Y-90930000D01*
X204613463Y-90997506D01*
X204554498Y-91107820D01*
X204518188Y-91227518D01*
X204505928Y-91352000D01*
X204505928Y-93052000D01*
X204518188Y-93176482D01*
X204554498Y-93296180D01*
X204613463Y-93406494D01*
X204692815Y-93503185D01*
X204789506Y-93582537D01*
X204899820Y-93641502D01*
X205019518Y-93677812D01*
X205144000Y-93690072D01*
X206844000Y-93690072D01*
X206968482Y-93677812D01*
X207088180Y-93641502D01*
X207198494Y-93582537D01*
X207295185Y-93503185D01*
X207374537Y-93406494D01*
X207433502Y-93296180D01*
X207469812Y-93176482D01*
X207482072Y-93052000D01*
X207482072Y-92042729D01*
X209553004Y-89971798D01*
X209582001Y-89948001D01*
X209627806Y-89892188D01*
X209676974Y-89832277D01*
X209747546Y-89700247D01*
X209751792Y-89686250D01*
X209791003Y-89556986D01*
X209802000Y-89445333D01*
X209802000Y-89445323D01*
X209805676Y-89408000D01*
X209802000Y-89370677D01*
X209802000Y-81571325D01*
X209805676Y-81534000D01*
X209802000Y-81496675D01*
X209802000Y-81496667D01*
X209791003Y-81385014D01*
X209747546Y-81241753D01*
X209676974Y-81109724D01*
X209582001Y-80993999D01*
X209553002Y-80970201D01*
X209242802Y-80660000D01*
X214967721Y-80660000D01*
X215065424Y-80669580D01*
%TA.AperFunction,Conductor*%
D26*
G36*
X215065424Y-80669580D02*
G01*
X215128356Y-80688580D01*
X215186405Y-80719445D01*
X215237343Y-80760989D01*
X215279248Y-80811644D01*
X215310515Y-80869471D01*
X215329956Y-80932272D01*
X215340000Y-81027835D01*
X215340001Y-101967711D01*
X215330420Y-102065424D01*
X215311420Y-102128357D01*
X215280554Y-102186406D01*
X215239011Y-102237343D01*
X215188356Y-102279248D01*
X215130529Y-102310515D01*
X215067728Y-102329956D01*
X214972165Y-102340000D01*
X168479642Y-102340000D01*
X168581178Y-102227355D01*
X168730157Y-101977252D01*
X168827481Y-101702891D01*
X168706814Y-101473000D01*
X167513000Y-101473000D01*
X167513000Y-101493000D01*
X167259000Y-101493000D01*
X167259000Y-101473000D01*
X167239000Y-101473000D01*
X167239000Y-101219000D01*
X167259000Y-101219000D01*
X167259000Y-101199000D01*
X167513000Y-101199000D01*
X167513000Y-101219000D01*
X168706814Y-101219000D01*
X168827481Y-100989109D01*
X168730157Y-100714748D01*
X168581178Y-100464645D01*
X168406089Y-100270400D01*
X168473499Y-100270400D01*
X168759100Y-100556002D01*
X168782899Y-100585001D01*
X168811897Y-100608799D01*
X168898624Y-100679974D01*
X169030653Y-100750546D01*
X169173914Y-100794003D01*
X169322900Y-100808677D01*
X169360233Y-100805000D01*
X192962841Y-100805000D01*
X193009368Y-100958379D01*
X193103153Y-101133840D01*
X193229367Y-101287633D01*
X193383160Y-101413847D01*
X193558620Y-101507632D01*
X193749006Y-101565385D01*
X193947000Y-101584886D01*
X194144993Y-101565385D01*
X194335379Y-101507632D01*
X194510840Y-101413847D01*
X194582000Y-101355448D01*
X194653160Y-101413847D01*
X194828620Y-101507632D01*
X195019006Y-101565385D01*
X195217000Y-101584886D01*
X195414993Y-101565385D01*
X195450773Y-101554531D01*
X207235074Y-101554531D01*
X207345921Y-101831714D01*
X207656840Y-101985089D01*
X207991705Y-102074860D01*
X208337650Y-102097576D01*
X208681380Y-102052366D01*
X209009685Y-101940966D01*
X209214079Y-101831714D01*
X209324926Y-101554531D01*
X212315074Y-101554531D01*
X212425921Y-101831714D01*
X212736840Y-101985089D01*
X213071705Y-102074860D01*
X213417650Y-102097576D01*
X213761380Y-102052366D01*
X214089685Y-101940966D01*
X214294079Y-101831714D01*
X214404926Y-101554531D01*
X213360000Y-100509605D01*
X212315074Y-101554531D01*
X209324926Y-101554531D01*
X208280000Y-100509605D01*
X207235074Y-101554531D01*
X195450773Y-101554531D01*
X195605379Y-101507632D01*
X195780840Y-101413847D01*
X195934633Y-101287633D01*
X196060847Y-101133840D01*
X196154632Y-100958380D01*
X196212385Y-100767994D01*
X196227000Y-100619608D01*
X196227000Y-100387650D01*
X206512424Y-100387650D01*
X206557634Y-100731380D01*
X206669034Y-101059685D01*
X206778286Y-101264079D01*
X207055469Y-101374926D01*
X208100395Y-100330000D01*
X208459605Y-100330000D01*
X209504531Y-101374926D01*
X209781714Y-101264079D01*
X209935089Y-100953160D01*
X210024860Y-100618295D01*
X210040004Y-100387650D01*
X211592424Y-100387650D01*
X211637634Y-100731380D01*
X211749034Y-101059685D01*
X211858286Y-101264079D01*
X212135469Y-101374926D01*
X213180395Y-100330000D01*
X213539605Y-100330000D01*
X214584531Y-101374926D01*
X214861714Y-101264079D01*
X215015089Y-100953160D01*
X215104860Y-100618295D01*
X215127576Y-100272350D01*
X215082366Y-99928620D01*
X214970966Y-99600315D01*
X214861714Y-99395921D01*
X214584531Y-99285074D01*
X213539605Y-100330000D01*
X213180395Y-100330000D01*
X212135469Y-99285074D01*
X211858286Y-99395921D01*
X211704911Y-99706840D01*
X211615140Y-100041705D01*
X211592424Y-100387650D01*
X210040004Y-100387650D01*
X210047576Y-100272350D01*
X210002366Y-99928620D01*
X209890966Y-99600315D01*
X209781714Y-99395921D01*
X209504531Y-99285074D01*
X208459605Y-100330000D01*
X208100395Y-100330000D01*
X207055469Y-99285074D01*
X206778286Y-99395921D01*
X206624911Y-99706840D01*
X206535140Y-100041705D01*
X206512424Y-100387650D01*
X196227000Y-100387650D01*
X196227000Y-100057513D01*
X196282000Y-100070000D01*
X196807000Y-100070000D01*
X196807000Y-99187000D01*
X197061000Y-99187000D01*
X197061000Y-100070000D01*
X197586000Y-100070000D01*
X197780601Y-100025817D01*
X197962843Y-99944518D01*
X198125723Y-99829227D01*
X198262981Y-99684375D01*
X198369342Y-99515529D01*
X198428781Y-99342181D01*
X198387784Y-99292500D01*
X198441928Y-99292500D01*
X198454188Y-99416982D01*
X198490498Y-99536680D01*
X198549463Y-99646994D01*
X198628815Y-99743685D01*
X198725506Y-99823037D01*
X198835820Y-99882002D01*
X198955518Y-99918312D01*
X199080000Y-99930572D01*
X199104250Y-99927500D01*
X199263000Y-99768750D01*
X199263000Y-99052000D01*
X199517000Y-99052000D01*
X199517000Y-99768750D01*
X199675750Y-99927500D01*
X199700000Y-99930572D01*
X199824482Y-99918312D01*
X199944180Y-99882002D01*
X200054494Y-99823037D01*
X200151185Y-99743685D01*
X200230537Y-99646994D01*
X200289502Y-99536680D01*
X200325812Y-99416982D01*
X200338072Y-99292500D01*
X202759928Y-99292500D01*
X202772188Y-99416982D01*
X202808498Y-99536680D01*
X202867463Y-99646994D01*
X202946815Y-99743685D01*
X203043506Y-99823037D01*
X203153820Y-99882002D01*
X203273518Y-99918312D01*
X203398000Y-99930572D01*
X203422250Y-99927500D01*
X203581000Y-99768750D01*
X203581000Y-99052000D01*
X203835000Y-99052000D01*
X203835000Y-99768750D01*
X203993750Y-99927500D01*
X204018000Y-99930572D01*
X204142482Y-99918312D01*
X204262180Y-99882002D01*
X204372494Y-99823037D01*
X204469185Y-99743685D01*
X204548537Y-99646994D01*
X204607502Y-99536680D01*
X204643812Y-99416982D01*
X204656072Y-99292500D01*
X204653000Y-99210750D01*
X204547719Y-99105469D01*
X207235074Y-99105469D01*
X208280000Y-100150395D01*
X209324926Y-99105469D01*
X209214079Y-98828286D01*
X208903160Y-98674911D01*
X208568295Y-98585140D01*
X208222350Y-98562424D01*
X207878620Y-98607634D01*
X207550315Y-98719034D01*
X207345921Y-98828286D01*
X207235074Y-99105469D01*
X204547719Y-99105469D01*
X204494250Y-99052000D01*
X203835000Y-99052000D01*
X203581000Y-99052000D01*
X202921750Y-99052000D01*
X202763000Y-99210750D01*
X202759928Y-99292500D01*
X200338072Y-99292500D01*
X200335000Y-99210750D01*
X200176250Y-99052000D01*
X199517000Y-99052000D01*
X199263000Y-99052000D01*
X198603750Y-99052000D01*
X198445000Y-99210750D01*
X198441928Y-99292500D01*
X198387784Y-99292500D01*
X198300723Y-99187000D01*
X197061000Y-99187000D01*
X196807000Y-99187000D01*
X196787000Y-99187000D01*
X196787000Y-98933000D01*
X196807000Y-98933000D01*
X196807000Y-98913000D01*
X197061000Y-98913000D01*
X197061000Y-98933000D01*
X198300723Y-98933000D01*
X198428781Y-98777819D01*
X198369342Y-98604471D01*
X198335029Y-98550000D01*
X198442667Y-98550000D01*
X198441928Y-98557500D01*
X198445000Y-98639250D01*
X198603750Y-98798000D01*
X199263000Y-98798000D01*
X199263000Y-98795572D01*
X199517000Y-98795572D01*
X199517000Y-98798000D01*
X200176250Y-98798000D01*
X200335000Y-98639250D01*
X200338072Y-98557500D01*
X200338058Y-98557362D01*
X200395393Y-98604415D01*
X200532504Y-98677703D01*
X200681279Y-98722833D01*
X200836000Y-98738072D01*
X201261000Y-98738072D01*
X201415721Y-98722833D01*
X201564496Y-98677703D01*
X201616000Y-98650173D01*
X201667504Y-98677703D01*
X201816279Y-98722833D01*
X201971000Y-98738072D01*
X202396000Y-98738072D01*
X202550721Y-98722833D01*
X202699496Y-98677703D01*
X202765938Y-98642188D01*
X202921750Y-98798000D01*
X203581000Y-98798000D01*
X203581000Y-98795572D01*
X203835000Y-98795572D01*
X203835000Y-98798000D01*
X204494250Y-98798000D01*
X204653000Y-98639250D01*
X204656072Y-98557500D01*
X204655333Y-98550000D01*
X209338031Y-98550000D01*
X209348927Y-98576305D01*
X209530594Y-98848188D01*
X209761812Y-99079406D01*
X210033695Y-99261073D01*
X210335796Y-99386207D01*
X210656504Y-99450000D01*
X210983496Y-99450000D01*
X211304204Y-99386207D01*
X211606305Y-99261073D01*
X211839182Y-99105469D01*
X212315074Y-99105469D01*
X213360000Y-100150395D01*
X214404926Y-99105469D01*
X214294079Y-98828286D01*
X213983160Y-98674911D01*
X213648295Y-98585140D01*
X213302350Y-98562424D01*
X212958620Y-98607634D01*
X212630315Y-98719034D01*
X212425921Y-98828286D01*
X212315074Y-99105469D01*
X211839182Y-99105469D01*
X211878188Y-99079406D01*
X212109406Y-98848188D01*
X212291073Y-98576305D01*
X212416207Y-98274204D01*
X212480000Y-97953496D01*
X212480000Y-97626504D01*
X212416207Y-97305796D01*
X212291073Y-97003695D01*
X212109406Y-96731812D01*
X211878188Y-96500594D01*
X211839183Y-96474531D01*
X212315074Y-96474531D01*
X212425921Y-96751714D01*
X212736840Y-96905089D01*
X213071705Y-96994860D01*
X213417650Y-97017576D01*
X213761380Y-96972366D01*
X214089685Y-96860966D01*
X214294079Y-96751714D01*
X214404926Y-96474531D01*
X213360000Y-95429605D01*
X212315074Y-96474531D01*
X211839183Y-96474531D01*
X211606305Y-96318927D01*
X211304204Y-96193793D01*
X210983496Y-96130000D01*
X210656504Y-96130000D01*
X210335796Y-96193793D01*
X210033695Y-96318927D01*
X209761812Y-96500594D01*
X209530594Y-96731812D01*
X209348927Y-97003695D01*
X209338031Y-97030000D01*
X204434691Y-97030000D01*
X204423787Y-97016713D01*
X204303607Y-96918085D01*
X204166496Y-96844797D01*
X204017721Y-96799667D01*
X203863000Y-96784428D01*
X203553000Y-96784428D01*
X203398279Y-96799667D01*
X203249504Y-96844797D01*
X203112393Y-96918085D01*
X202992213Y-97016713D01*
X202981309Y-97030000D01*
X202902913Y-97030000D01*
X202836607Y-96975585D01*
X202699496Y-96902297D01*
X202550721Y-96857167D01*
X202396000Y-96841928D01*
X201971000Y-96841928D01*
X201816279Y-96857167D01*
X201667504Y-96902297D01*
X201616000Y-96929827D01*
X201564496Y-96902297D01*
X201415721Y-96857167D01*
X201261000Y-96841928D01*
X200836000Y-96841928D01*
X200681279Y-96857167D01*
X200532504Y-96902297D01*
X200395393Y-96975585D01*
X200329087Y-97030000D01*
X200116691Y-97030000D01*
X200105787Y-97016713D01*
X199985607Y-96918085D01*
X199848496Y-96844797D01*
X199699721Y-96799667D01*
X199545000Y-96784428D01*
X199235000Y-96784428D01*
X199080279Y-96799667D01*
X198931504Y-96844797D01*
X198794393Y-96918085D01*
X198674213Y-97016713D01*
X198663309Y-97030000D01*
X198335029Y-97030000D01*
X198369342Y-96975529D01*
X198428781Y-96802181D01*
X198300723Y-96647000D01*
X197061000Y-96647000D01*
X197061000Y-96667000D01*
X196807000Y-96667000D01*
X196807000Y-96647000D01*
X195567277Y-96647000D01*
X195439219Y-96802181D01*
X195498658Y-96975529D01*
X195605019Y-97144375D01*
X195619623Y-97159787D01*
X195565153Y-97226160D01*
X195471368Y-97401620D01*
X195413615Y-97592006D01*
X195394114Y-97790000D01*
X195408537Y-97936435D01*
X193946633Y-96474531D01*
X207235074Y-96474531D01*
X207345921Y-96751714D01*
X207656840Y-96905089D01*
X207991705Y-96994860D01*
X208337650Y-97017576D01*
X208681380Y-96972366D01*
X209009685Y-96860966D01*
X209214079Y-96751714D01*
X209324926Y-96474531D01*
X208280000Y-95429605D01*
X207235074Y-96474531D01*
X193946633Y-96474531D01*
X193709921Y-96237819D01*
X195439219Y-96237819D01*
X195567277Y-96393000D01*
X196807000Y-96393000D01*
X196807000Y-95510000D01*
X197061000Y-95510000D01*
X197061000Y-96393000D01*
X198300723Y-96393000D01*
X198428781Y-96237819D01*
X198369342Y-96064471D01*
X198262981Y-95895625D01*
X198125723Y-95750773D01*
X197962843Y-95635482D01*
X197780601Y-95554183D01*
X197586000Y-95510000D01*
X197061000Y-95510000D01*
X196807000Y-95510000D01*
X196282000Y-95510000D01*
X196087399Y-95554183D01*
X195905157Y-95635482D01*
X195742277Y-95750773D01*
X195605019Y-95895625D01*
X195498658Y-96064471D01*
X195439219Y-96237819D01*
X193709921Y-96237819D01*
X192779752Y-95307650D01*
X206512424Y-95307650D01*
X206557634Y-95651380D01*
X206669034Y-95979685D01*
X206778286Y-96184079D01*
X207055469Y-96294926D01*
X208100395Y-95250000D01*
X208459605Y-95250000D01*
X209504531Y-96294926D01*
X209781714Y-96184079D01*
X209935089Y-95873160D01*
X210024860Y-95538295D01*
X210040004Y-95307650D01*
X211592424Y-95307650D01*
X211637634Y-95651380D01*
X211749034Y-95979685D01*
X211858286Y-96184079D01*
X212135469Y-96294926D01*
X213180395Y-95250000D01*
X213539605Y-95250000D01*
X214584531Y-96294926D01*
X214861714Y-96184079D01*
X215015089Y-95873160D01*
X215104860Y-95538295D01*
X215127576Y-95192350D01*
X215082366Y-94848620D01*
X214970966Y-94520315D01*
X214861714Y-94315921D01*
X214584531Y-94205074D01*
X213539605Y-95250000D01*
X213180395Y-95250000D01*
X212135469Y-94205074D01*
X211858286Y-94315921D01*
X211704911Y-94626840D01*
X211615140Y-94961705D01*
X211592424Y-95307650D01*
X210040004Y-95307650D01*
X210047576Y-95192350D01*
X210002366Y-94848620D01*
X209890966Y-94520315D01*
X209781714Y-94315921D01*
X209504531Y-94205074D01*
X208459605Y-95250000D01*
X208100395Y-95250000D01*
X207055469Y-94205074D01*
X206778286Y-94315921D01*
X206624911Y-94626840D01*
X206535140Y-94961705D01*
X206512424Y-95307650D01*
X192779752Y-95307650D01*
X191497571Y-94025469D01*
X207235074Y-94025469D01*
X208280000Y-95070395D01*
X209324926Y-94025469D01*
X212315074Y-94025469D01*
X213360000Y-95070395D01*
X214404926Y-94025469D01*
X214294079Y-93748286D01*
X213983160Y-93594911D01*
X213648295Y-93505140D01*
X213302350Y-93482424D01*
X212958620Y-93527634D01*
X212630315Y-93639034D01*
X212425921Y-93748286D01*
X212315074Y-94025469D01*
X209324926Y-94025469D01*
X209214079Y-93748286D01*
X208903160Y-93594911D01*
X208568295Y-93505140D01*
X208222350Y-93482424D01*
X207878620Y-93527634D01*
X207550315Y-93639034D01*
X207345921Y-93748286D01*
X207235074Y-94025469D01*
X191497571Y-94025469D01*
X189121604Y-91649503D01*
X189097801Y-91620499D01*
X188982076Y-91525526D01*
X188850047Y-91454954D01*
X188706786Y-91411497D01*
X188595133Y-91400500D01*
X188595122Y-91400500D01*
X188557800Y-91396824D01*
X188520478Y-91400500D01*
X178153311Y-91400500D01*
X178109374Y-91356563D01*
X177939856Y-91243295D01*
X177751498Y-91165274D01*
X177707982Y-91156618D01*
X177716303Y-91129186D01*
X177727300Y-91017533D01*
X177727300Y-91017524D01*
X177730976Y-90980201D01*
X177727300Y-90942878D01*
X177727300Y-83759001D01*
X177978295Y-83508007D01*
X177990481Y-83548179D01*
X178049446Y-83658493D01*
X178128798Y-83755184D01*
X178225489Y-83834536D01*
X178335803Y-83893501D01*
X178455501Y-83929811D01*
X178579983Y-83942071D01*
X178894232Y-83938999D01*
X179052982Y-83780249D01*
X179052982Y-82931000D01*
X179306982Y-82931000D01*
X179306982Y-83780249D01*
X179465732Y-83938999D01*
X179779981Y-83942071D01*
X179904463Y-83929811D01*
X180024161Y-83893501D01*
X180134475Y-83834536D01*
X180231166Y-83755184D01*
X180310518Y-83658493D01*
X180369483Y-83548179D01*
X180405793Y-83428481D01*
X180418053Y-83303999D01*
X180414981Y-83089750D01*
X180256231Y-82931000D01*
X179306982Y-82931000D01*
X179052982Y-82931000D01*
X179032982Y-82931000D01*
X179032982Y-82738700D01*
X185341947Y-82738700D01*
X185341947Y-83303999D01*
X185354207Y-83428481D01*
X185390517Y-83548179D01*
X185449482Y-83658493D01*
X185528834Y-83755184D01*
X185625525Y-83834536D01*
X185735839Y-83893501D01*
X185855537Y-83929811D01*
X185980019Y-83942071D01*
X187180017Y-83942071D01*
X187304499Y-83929811D01*
X187424197Y-83893501D01*
X187486629Y-83860130D01*
X187762901Y-84136402D01*
X187786699Y-84165401D01*
X187815697Y-84189199D01*
X187902423Y-84260374D01*
X187969542Y-84296250D01*
X188034453Y-84330946D01*
X188177714Y-84374403D01*
X188289367Y-84385400D01*
X188289377Y-84385400D01*
X188326699Y-84389076D01*
X188364022Y-84385400D01*
X194347089Y-84385400D01*
X194279863Y-84452626D01*
X194166595Y-84622144D01*
X194088574Y-84810502D01*
X194048800Y-85010461D01*
X194048800Y-85115141D01*
X193947000Y-85105114D01*
X193749007Y-85124615D01*
X193559984Y-85181955D01*
X193541801Y-85159799D01*
X193426076Y-85064826D01*
X193294047Y-84994254D01*
X193150786Y-84950797D01*
X193039133Y-84939800D01*
X193039122Y-84939800D01*
X193001800Y-84936124D01*
X192964478Y-84939800D01*
X181220811Y-84939800D01*
X181176874Y-84895863D01*
X181007356Y-84782595D01*
X180818998Y-84704574D01*
X180619039Y-84664800D01*
X180415161Y-84664800D01*
X180215202Y-84704574D01*
X180026844Y-84782595D01*
X179857326Y-84895863D01*
X179713163Y-85040026D01*
X179599895Y-85209544D01*
X179521874Y-85397902D01*
X179482100Y-85597861D01*
X179482100Y-85801739D01*
X179521874Y-86001698D01*
X179599895Y-86190056D01*
X179713163Y-86359574D01*
X179857326Y-86503737D01*
X180026844Y-86617005D01*
X180215202Y-86695026D01*
X180415161Y-86734800D01*
X180619039Y-86734800D01*
X180818998Y-86695026D01*
X181007356Y-86617005D01*
X181176874Y-86503737D01*
X181220811Y-86459800D01*
X192686999Y-86459800D01*
X192937000Y-86709802D01*
X192937000Y-87219607D01*
X192951615Y-87367993D01*
X193009368Y-87558379D01*
X193103153Y-87733840D01*
X193229367Y-87887633D01*
X193383160Y-88013847D01*
X193558620Y-88107632D01*
X193749006Y-88165385D01*
X193947000Y-88184886D01*
X194144993Y-88165385D01*
X194335379Y-88107632D01*
X194510840Y-88013847D01*
X194582000Y-87955448D01*
X194653160Y-88013847D01*
X194828620Y-88107632D01*
X195019006Y-88165385D01*
X195217000Y-88184886D01*
X195414993Y-88165385D01*
X195531115Y-88130160D01*
X195565153Y-88193840D01*
X195623552Y-88265000D01*
X195565153Y-88336160D01*
X195471368Y-88511620D01*
X195413615Y-88702006D01*
X195394114Y-88900000D01*
X195413615Y-89097994D01*
X195471368Y-89288380D01*
X195565153Y-89463840D01*
X195623552Y-89535000D01*
X195565153Y-89606160D01*
X195471368Y-89781620D01*
X195413615Y-89972006D01*
X195394114Y-90170000D01*
X195413615Y-90367994D01*
X195471368Y-90558380D01*
X195565153Y-90733840D01*
X195691367Y-90887633D01*
X195845160Y-91013847D01*
X196020620Y-91107632D01*
X196211006Y-91165385D01*
X196359392Y-91180000D01*
X197508608Y-91180000D01*
X197656994Y-91165385D01*
X197847380Y-91107632D01*
X198022840Y-91013847D01*
X198125008Y-90930000D01*
X204668864Y-90930000D01*
X204613463Y-90997506D01*
X204554498Y-91107820D01*
X204518188Y-91227518D01*
X204505928Y-91352000D01*
X204505928Y-93052000D01*
X204518188Y-93176482D01*
X204554498Y-93296180D01*
X204613463Y-93406494D01*
X204692815Y-93503185D01*
X204789506Y-93582537D01*
X204899820Y-93641502D01*
X205019518Y-93677812D01*
X205144000Y-93690072D01*
X206844000Y-93690072D01*
X206968482Y-93677812D01*
X207088180Y-93641502D01*
X207198494Y-93582537D01*
X207295185Y-93503185D01*
X207374537Y-93406494D01*
X207433502Y-93296180D01*
X207469812Y-93176482D01*
X207482072Y-93052000D01*
X207482072Y-92042729D01*
X209553004Y-89971798D01*
X209582001Y-89948001D01*
X209627806Y-89892188D01*
X209676974Y-89832277D01*
X209747546Y-89700247D01*
X209751792Y-89686250D01*
X209791003Y-89556986D01*
X209802000Y-89445333D01*
X209802000Y-89445323D01*
X209805676Y-89408000D01*
X209802000Y-89370677D01*
X209802000Y-81571325D01*
X209805676Y-81534000D01*
X209802000Y-81496675D01*
X209802000Y-81496667D01*
X209791003Y-81385014D01*
X209747546Y-81241753D01*
X209676974Y-81109724D01*
X209582001Y-80993999D01*
X209553002Y-80970201D01*
X209242802Y-80660000D01*
X214967721Y-80660000D01*
X215065424Y-80669580D01*
G37*
%TD.AperFunction*%
D25*
X138468058Y-86573012D02*
X138619433Y-86653923D01*
X138783684Y-86703748D01*
X138954500Y-86720572D01*
X139429500Y-86720572D01*
X139429700Y-86720552D01*
X139429701Y-87877805D01*
X139270987Y-87809585D01*
X139052000Y-87763000D01*
X138752000Y-87763000D01*
X138752000Y-88771000D01*
X138772000Y-88771000D01*
X138772000Y-89025000D01*
X138752000Y-89025000D01*
X138752000Y-90033000D01*
X139052000Y-90033000D01*
X139270987Y-89986415D01*
X139476678Y-89898003D01*
X139661169Y-89771161D01*
X139676837Y-89755072D01*
X139678698Y-89756599D01*
X141229501Y-91307403D01*
X141229500Y-94795377D01*
X141225824Y-94832700D01*
X141229500Y-94870022D01*
X141229500Y-94870032D01*
X141240497Y-94981685D01*
X141276695Y-95101015D01*
X141283954Y-95124946D01*
X141354526Y-95256976D01*
X141374858Y-95281750D01*
X141449499Y-95372701D01*
X141478502Y-95396503D01*
X141568677Y-95486678D01*
X141559319Y-95496036D01*
X141454259Y-95653269D01*
X141381892Y-95827978D01*
X141345000Y-96013448D01*
X141345000Y-96202552D01*
X141381892Y-96388022D01*
X141454259Y-96562731D01*
X141521335Y-96663117D01*
X141518831Y-96664839D01*
X141362631Y-96825236D01*
X141240724Y-97013024D01*
X141160881Y-97236126D01*
X141287046Y-97411000D01*
X142678000Y-97411000D01*
X142678000Y-97391000D01*
X142932000Y-97391000D01*
X142932000Y-97411000D01*
X144322954Y-97411000D01*
X144449119Y-97236126D01*
X144416190Y-97144113D01*
X144469149Y-97081873D01*
X144530066Y-96972625D01*
X144539501Y-96943403D01*
X144671501Y-97075402D01*
X144695299Y-97104401D01*
X144811024Y-97199374D01*
X144943053Y-97269946D01*
X145086314Y-97313403D01*
X145197967Y-97324400D01*
X145197975Y-97324400D01*
X145235300Y-97328076D01*
X145272625Y-97324400D01*
X154920278Y-97324400D01*
X154957600Y-97328076D01*
X154994922Y-97324400D01*
X154994933Y-97324400D01*
X155106586Y-97313403D01*
X155249847Y-97269946D01*
X155381876Y-97199374D01*
X155497601Y-97104401D01*
X155521403Y-97075398D01*
X155773729Y-96823072D01*
X156462000Y-96823072D01*
X156615745Y-96807929D01*
X156763582Y-96763084D01*
X156899829Y-96690258D01*
X157019251Y-96592251D01*
X157117258Y-96472829D01*
X157190084Y-96336582D01*
X157234929Y-96188745D01*
X157250072Y-96035000D01*
X157250072Y-95735000D01*
X157234929Y-95581255D01*
X157190084Y-95433418D01*
X157117258Y-95297171D01*
X157078546Y-95250000D01*
X157117258Y-95202829D01*
X157190084Y-95066582D01*
X157234929Y-94918745D01*
X157250072Y-94765000D01*
X157250072Y-94465000D01*
X157234929Y-94311255D01*
X157190084Y-94163418D01*
X157158859Y-94105000D01*
X158198278Y-94105000D01*
X158235600Y-94108676D01*
X158272922Y-94105000D01*
X158272933Y-94105000D01*
X158384586Y-94094003D01*
X158527847Y-94050546D01*
X158659876Y-93979974D01*
X158775601Y-93885001D01*
X158799404Y-93855997D01*
X160804102Y-91851300D01*
X160949123Y-91851300D01*
X160878068Y-92022842D01*
X160821000Y-92309740D01*
X160821000Y-92602260D01*
X160878068Y-92889158D01*
X160990010Y-93159411D01*
X161152525Y-93402632D01*
X161359368Y-93609475D01*
X161541534Y-93731195D01*
X161424645Y-93800822D01*
X161208412Y-93995731D01*
X161034359Y-94229080D01*
X160909175Y-94491901D01*
X160864524Y-94639110D01*
X160985845Y-94869000D01*
X162179000Y-94869000D01*
X162179000Y-94849000D01*
X162433000Y-94849000D01*
X162433000Y-94869000D01*
X162453000Y-94869000D01*
X162453000Y-95123000D01*
X162433000Y-95123000D01*
X162433000Y-95143000D01*
X162179000Y-95143000D01*
X162179000Y-95123000D01*
X160985845Y-95123000D01*
X160864524Y-95352890D01*
X160909175Y-95500099D01*
X161034359Y-95762920D01*
X161208412Y-95996269D01*
X161424645Y-96191178D01*
X161644225Y-96321976D01*
X161641066Y-96325135D01*
X161539303Y-96356004D01*
X161407273Y-96426576D01*
X161340958Y-96481000D01*
X161291549Y-96521549D01*
X161267751Y-96550548D01*
X160590902Y-97227397D01*
X160561899Y-97251199D01*
X160530691Y-97289227D01*
X160466926Y-97366924D01*
X160443367Y-97411000D01*
X160396354Y-97498954D01*
X160352897Y-97642215D01*
X160341900Y-97753868D01*
X160341900Y-97753878D01*
X160338224Y-97791200D01*
X160341900Y-97828523D01*
X160341901Y-98723668D01*
X160338224Y-98761000D01*
X160341901Y-98798333D01*
X160344006Y-98819700D01*
X160352898Y-98909985D01*
X160396354Y-99053246D01*
X160466926Y-99185276D01*
X160515639Y-99244632D01*
X160561900Y-99301001D01*
X160590898Y-99324799D01*
X161186259Y-99920161D01*
X161101506Y-99965463D01*
X161004815Y-100044815D01*
X160925463Y-100141506D01*
X160866498Y-100251820D01*
X160830188Y-100371518D01*
X160817928Y-100496000D01*
X160817928Y-102196000D01*
X160830188Y-102320482D01*
X160836109Y-102340000D01*
X137032279Y-102340000D01*
X136934576Y-102330420D01*
X136871643Y-102311420D01*
X136813594Y-102280554D01*
X136762657Y-102239011D01*
X136720752Y-102188356D01*
X136689485Y-102130529D01*
X136670044Y-102067728D01*
X136660000Y-101972165D01*
X136660000Y-97839874D01*
X137230881Y-97839874D01*
X137310724Y-98062976D01*
X137432631Y-98250764D01*
X137588831Y-98411161D01*
X137773322Y-98538003D01*
X137979013Y-98626415D01*
X138198000Y-98673000D01*
X138498000Y-98673000D01*
X138498000Y-97665000D01*
X138752000Y-97665000D01*
X138752000Y-98673000D01*
X139052000Y-98673000D01*
X139270987Y-98626415D01*
X139476678Y-98538003D01*
X139661169Y-98411161D01*
X139817369Y-98250764D01*
X139939276Y-98062976D01*
X140019119Y-97839874D01*
X141160881Y-97839874D01*
X141240724Y-98062976D01*
X141362631Y-98250764D01*
X141518831Y-98411161D01*
X141703322Y-98538003D01*
X141909013Y-98626415D01*
X142128000Y-98673000D01*
X142678000Y-98673000D01*
X142678000Y-97665000D01*
X142932000Y-97665000D01*
X142932000Y-98673000D01*
X143482000Y-98673000D01*
X143700987Y-98626415D01*
X143906678Y-98538003D01*
X144091169Y-98411161D01*
X144247369Y-98250764D01*
X144369276Y-98062976D01*
X144449119Y-97839874D01*
X144322954Y-97665000D01*
X142932000Y-97665000D01*
X142678000Y-97665000D01*
X141287046Y-97665000D01*
X141160881Y-97839874D01*
X140019119Y-97839874D01*
X139892954Y-97665000D01*
X138752000Y-97665000D01*
X138498000Y-97665000D01*
X137357046Y-97665000D01*
X137230881Y-97839874D01*
X136660000Y-97839874D01*
X136660000Y-97236126D01*
X137230881Y-97236126D01*
X137357046Y-97411000D01*
X138498000Y-97411000D01*
X138498000Y-96403000D01*
X138752000Y-96403000D01*
X138752000Y-97411000D01*
X139892954Y-97411000D01*
X140019119Y-97236126D01*
X139939276Y-97013024D01*
X139817369Y-96825236D01*
X139661169Y-96664839D01*
X139476678Y-96537997D01*
X139270987Y-96449585D01*
X139052000Y-96403000D01*
X138752000Y-96403000D01*
X138498000Y-96403000D01*
X138198000Y-96403000D01*
X137979013Y-96449585D01*
X137773322Y-96537997D01*
X137588831Y-96664839D01*
X137432631Y-96825236D01*
X137310724Y-97013024D01*
X137230881Y-97236126D01*
X136660000Y-97236126D01*
X136660000Y-89199874D01*
X137230881Y-89199874D01*
X137310724Y-89422976D01*
X137432631Y-89610764D01*
X137588831Y-89771161D01*
X137773322Y-89898003D01*
X137979013Y-89986415D01*
X138198000Y-90033000D01*
X138498000Y-90033000D01*
X138498000Y-89025000D01*
X137357046Y-89025000D01*
X137230881Y-89199874D01*
X136660000Y-89199874D01*
X136660000Y-88596126D01*
X137230881Y-88596126D01*
X137357046Y-88771000D01*
X138498000Y-88771000D01*
X138498000Y-87763000D01*
X138198000Y-87763000D01*
X137979013Y-87809585D01*
X137773322Y-87897997D01*
X137588831Y-88024839D01*
X137432631Y-88185236D01*
X137310724Y-88373024D01*
X137230881Y-88596126D01*
X136660000Y-88596126D01*
X136660000Y-86532765D01*
X136776058Y-86628012D01*
X136927433Y-86708923D01*
X137091684Y-86758748D01*
X137262500Y-86775572D01*
X137737500Y-86775572D01*
X137908316Y-86758748D01*
X138072567Y-86708923D01*
X138223942Y-86628012D01*
X138356623Y-86519123D01*
X138375044Y-86496677D01*
X138468058Y-86573012D01*
%TA.AperFunction,Conductor*%
D26*
G36*
X138468058Y-86573012D02*
G01*
X138619433Y-86653923D01*
X138783684Y-86703748D01*
X138954500Y-86720572D01*
X139429500Y-86720572D01*
X139429700Y-86720552D01*
X139429701Y-87877805D01*
X139270987Y-87809585D01*
X139052000Y-87763000D01*
X138752000Y-87763000D01*
X138752000Y-88771000D01*
X138772000Y-88771000D01*
X138772000Y-89025000D01*
X138752000Y-89025000D01*
X138752000Y-90033000D01*
X139052000Y-90033000D01*
X139270987Y-89986415D01*
X139476678Y-89898003D01*
X139661169Y-89771161D01*
X139676837Y-89755072D01*
X139678698Y-89756599D01*
X141229501Y-91307403D01*
X141229500Y-94795377D01*
X141225824Y-94832700D01*
X141229500Y-94870022D01*
X141229500Y-94870032D01*
X141240497Y-94981685D01*
X141276695Y-95101015D01*
X141283954Y-95124946D01*
X141354526Y-95256976D01*
X141374858Y-95281750D01*
X141449499Y-95372701D01*
X141478502Y-95396503D01*
X141568677Y-95486678D01*
X141559319Y-95496036D01*
X141454259Y-95653269D01*
X141381892Y-95827978D01*
X141345000Y-96013448D01*
X141345000Y-96202552D01*
X141381892Y-96388022D01*
X141454259Y-96562731D01*
X141521335Y-96663117D01*
X141518831Y-96664839D01*
X141362631Y-96825236D01*
X141240724Y-97013024D01*
X141160881Y-97236126D01*
X141287046Y-97411000D01*
X142678000Y-97411000D01*
X142678000Y-97391000D01*
X142932000Y-97391000D01*
X142932000Y-97411000D01*
X144322954Y-97411000D01*
X144449119Y-97236126D01*
X144416190Y-97144113D01*
X144469149Y-97081873D01*
X144530066Y-96972625D01*
X144539501Y-96943403D01*
X144671501Y-97075402D01*
X144695299Y-97104401D01*
X144811024Y-97199374D01*
X144943053Y-97269946D01*
X145086314Y-97313403D01*
X145197967Y-97324400D01*
X145197975Y-97324400D01*
X145235300Y-97328076D01*
X145272625Y-97324400D01*
X154920278Y-97324400D01*
X154957600Y-97328076D01*
X154994922Y-97324400D01*
X154994933Y-97324400D01*
X155106586Y-97313403D01*
X155249847Y-97269946D01*
X155381876Y-97199374D01*
X155497601Y-97104401D01*
X155521403Y-97075398D01*
X155773729Y-96823072D01*
X156462000Y-96823072D01*
X156615745Y-96807929D01*
X156763582Y-96763084D01*
X156899829Y-96690258D01*
X157019251Y-96592251D01*
X157117258Y-96472829D01*
X157190084Y-96336582D01*
X157234929Y-96188745D01*
X157250072Y-96035000D01*
X157250072Y-95735000D01*
X157234929Y-95581255D01*
X157190084Y-95433418D01*
X157117258Y-95297171D01*
X157078546Y-95250000D01*
X157117258Y-95202829D01*
X157190084Y-95066582D01*
X157234929Y-94918745D01*
X157250072Y-94765000D01*
X157250072Y-94465000D01*
X157234929Y-94311255D01*
X157190084Y-94163418D01*
X157158859Y-94105000D01*
X158198278Y-94105000D01*
X158235600Y-94108676D01*
X158272922Y-94105000D01*
X158272933Y-94105000D01*
X158384586Y-94094003D01*
X158527847Y-94050546D01*
X158659876Y-93979974D01*
X158775601Y-93885001D01*
X158799404Y-93855997D01*
X160804102Y-91851300D01*
X160949123Y-91851300D01*
X160878068Y-92022842D01*
X160821000Y-92309740D01*
X160821000Y-92602260D01*
X160878068Y-92889158D01*
X160990010Y-93159411D01*
X161152525Y-93402632D01*
X161359368Y-93609475D01*
X161541534Y-93731195D01*
X161424645Y-93800822D01*
X161208412Y-93995731D01*
X161034359Y-94229080D01*
X160909175Y-94491901D01*
X160864524Y-94639110D01*
X160985845Y-94869000D01*
X162179000Y-94869000D01*
X162179000Y-94849000D01*
X162433000Y-94849000D01*
X162433000Y-94869000D01*
X162453000Y-94869000D01*
X162453000Y-95123000D01*
X162433000Y-95123000D01*
X162433000Y-95143000D01*
X162179000Y-95143000D01*
X162179000Y-95123000D01*
X160985845Y-95123000D01*
X160864524Y-95352890D01*
X160909175Y-95500099D01*
X161034359Y-95762920D01*
X161208412Y-95996269D01*
X161424645Y-96191178D01*
X161644225Y-96321976D01*
X161641066Y-96325135D01*
X161539303Y-96356004D01*
X161407273Y-96426576D01*
X161340958Y-96481000D01*
X161291549Y-96521549D01*
X161267751Y-96550548D01*
X160590902Y-97227397D01*
X160561899Y-97251199D01*
X160530691Y-97289227D01*
X160466926Y-97366924D01*
X160443367Y-97411000D01*
X160396354Y-97498954D01*
X160352897Y-97642215D01*
X160341900Y-97753868D01*
X160341900Y-97753878D01*
X160338224Y-97791200D01*
X160341900Y-97828523D01*
X160341901Y-98723668D01*
X160338224Y-98761000D01*
X160341901Y-98798333D01*
X160344006Y-98819700D01*
X160352898Y-98909985D01*
X160396354Y-99053246D01*
X160466926Y-99185276D01*
X160515639Y-99244632D01*
X160561900Y-99301001D01*
X160590898Y-99324799D01*
X161186259Y-99920161D01*
X161101506Y-99965463D01*
X161004815Y-100044815D01*
X160925463Y-100141506D01*
X160866498Y-100251820D01*
X160830188Y-100371518D01*
X160817928Y-100496000D01*
X160817928Y-102196000D01*
X160830188Y-102320482D01*
X160836109Y-102340000D01*
X137032279Y-102340000D01*
X136934576Y-102330420D01*
X136871643Y-102311420D01*
X136813594Y-102280554D01*
X136762657Y-102239011D01*
X136720752Y-102188356D01*
X136689485Y-102130529D01*
X136670044Y-102067728D01*
X136660000Y-101972165D01*
X136660000Y-97839874D01*
X137230881Y-97839874D01*
X137310724Y-98062976D01*
X137432631Y-98250764D01*
X137588831Y-98411161D01*
X137773322Y-98538003D01*
X137979013Y-98626415D01*
X138198000Y-98673000D01*
X138498000Y-98673000D01*
X138498000Y-97665000D01*
X138752000Y-97665000D01*
X138752000Y-98673000D01*
X139052000Y-98673000D01*
X139270987Y-98626415D01*
X139476678Y-98538003D01*
X139661169Y-98411161D01*
X139817369Y-98250764D01*
X139939276Y-98062976D01*
X140019119Y-97839874D01*
X141160881Y-97839874D01*
X141240724Y-98062976D01*
X141362631Y-98250764D01*
X141518831Y-98411161D01*
X141703322Y-98538003D01*
X141909013Y-98626415D01*
X142128000Y-98673000D01*
X142678000Y-98673000D01*
X142678000Y-97665000D01*
X142932000Y-97665000D01*
X142932000Y-98673000D01*
X143482000Y-98673000D01*
X143700987Y-98626415D01*
X143906678Y-98538003D01*
X144091169Y-98411161D01*
X144247369Y-98250764D01*
X144369276Y-98062976D01*
X144449119Y-97839874D01*
X144322954Y-97665000D01*
X142932000Y-97665000D01*
X142678000Y-97665000D01*
X141287046Y-97665000D01*
X141160881Y-97839874D01*
X140019119Y-97839874D01*
X139892954Y-97665000D01*
X138752000Y-97665000D01*
X138498000Y-97665000D01*
X137357046Y-97665000D01*
X137230881Y-97839874D01*
X136660000Y-97839874D01*
X136660000Y-97236126D01*
X137230881Y-97236126D01*
X137357046Y-97411000D01*
X138498000Y-97411000D01*
X138498000Y-96403000D01*
X138752000Y-96403000D01*
X138752000Y-97411000D01*
X139892954Y-97411000D01*
X140019119Y-97236126D01*
X139939276Y-97013024D01*
X139817369Y-96825236D01*
X139661169Y-96664839D01*
X139476678Y-96537997D01*
X139270987Y-96449585D01*
X139052000Y-96403000D01*
X138752000Y-96403000D01*
X138498000Y-96403000D01*
X138198000Y-96403000D01*
X137979013Y-96449585D01*
X137773322Y-96537997D01*
X137588831Y-96664839D01*
X137432631Y-96825236D01*
X137310724Y-97013024D01*
X137230881Y-97236126D01*
X136660000Y-97236126D01*
X136660000Y-89199874D01*
X137230881Y-89199874D01*
X137310724Y-89422976D01*
X137432631Y-89610764D01*
X137588831Y-89771161D01*
X137773322Y-89898003D01*
X137979013Y-89986415D01*
X138198000Y-90033000D01*
X138498000Y-90033000D01*
X138498000Y-89025000D01*
X137357046Y-89025000D01*
X137230881Y-89199874D01*
X136660000Y-89199874D01*
X136660000Y-88596126D01*
X137230881Y-88596126D01*
X137357046Y-88771000D01*
X138498000Y-88771000D01*
X138498000Y-87763000D01*
X138198000Y-87763000D01*
X137979013Y-87809585D01*
X137773322Y-87897997D01*
X137588831Y-88024839D01*
X137432631Y-88185236D01*
X137310724Y-88373024D01*
X137230881Y-88596126D01*
X136660000Y-88596126D01*
X136660000Y-86532765D01*
X136776058Y-86628012D01*
X136927433Y-86708923D01*
X137091684Y-86758748D01*
X137262500Y-86775572D01*
X137737500Y-86775572D01*
X137908316Y-86758748D01*
X138072567Y-86708923D01*
X138223942Y-86628012D01*
X138356623Y-86519123D01*
X138375044Y-86496677D01*
X138468058Y-86573012D01*
G37*
%TD.AperFunction*%
D25*
X176532395Y-92650756D02*
X176645663Y-92820274D01*
X176789826Y-92964437D01*
X176959344Y-93077705D01*
X177147702Y-93155726D01*
X177347661Y-93195500D01*
X177551539Y-93195500D01*
X177751498Y-93155726D01*
X177939856Y-93077705D01*
X178109374Y-92964437D01*
X178153311Y-92920500D01*
X188242999Y-92920500D01*
X193838317Y-98515819D01*
X193749007Y-98524615D01*
X193558621Y-98582368D01*
X193383161Y-98676153D01*
X193229368Y-98802367D01*
X193103154Y-98956160D01*
X193009369Y-99131620D01*
X192962842Y-99285000D01*
X171946193Y-99285000D01*
X171954385Y-99257994D01*
X171973886Y-99060000D01*
X171954385Y-98862006D01*
X171896632Y-98671620D01*
X171802847Y-98496160D01*
X171748377Y-98429787D01*
X171762981Y-98414375D01*
X171869342Y-98245529D01*
X171928781Y-98072181D01*
X171800723Y-97917000D01*
X170561000Y-97917000D01*
X170561000Y-97937000D01*
X170307000Y-97937000D01*
X170307000Y-97917000D01*
X170287000Y-97917000D01*
X170287000Y-97663000D01*
X170307000Y-97663000D01*
X170307000Y-97643000D01*
X170561000Y-97643000D01*
X170561000Y-97663000D01*
X171800723Y-97663000D01*
X171928781Y-97507819D01*
X171869342Y-97334471D01*
X171780329Y-97193164D01*
X171851776Y-97154974D01*
X171967501Y-97060001D01*
X171991304Y-97030997D01*
X176485283Y-92537019D01*
X176532395Y-92650756D01*
%TA.AperFunction,Conductor*%
D26*
G36*
X176532395Y-92650756D02*
G01*
X176645663Y-92820274D01*
X176789826Y-92964437D01*
X176959344Y-93077705D01*
X177147702Y-93155726D01*
X177347661Y-93195500D01*
X177551539Y-93195500D01*
X177751498Y-93155726D01*
X177939856Y-93077705D01*
X178109374Y-92964437D01*
X178153311Y-92920500D01*
X188242999Y-92920500D01*
X193838317Y-98515819D01*
X193749007Y-98524615D01*
X193558621Y-98582368D01*
X193383161Y-98676153D01*
X193229368Y-98802367D01*
X193103154Y-98956160D01*
X193009369Y-99131620D01*
X192962842Y-99285000D01*
X171946193Y-99285000D01*
X171954385Y-99257994D01*
X171973886Y-99060000D01*
X171954385Y-98862006D01*
X171896632Y-98671620D01*
X171802847Y-98496160D01*
X171748377Y-98429787D01*
X171762981Y-98414375D01*
X171869342Y-98245529D01*
X171928781Y-98072181D01*
X171800723Y-97917000D01*
X170561000Y-97917000D01*
X170561000Y-97937000D01*
X170307000Y-97937000D01*
X170307000Y-97917000D01*
X170287000Y-97917000D01*
X170287000Y-97663000D01*
X170307000Y-97663000D01*
X170307000Y-97643000D01*
X170561000Y-97643000D01*
X170561000Y-97663000D01*
X171800723Y-97663000D01*
X171928781Y-97507819D01*
X171869342Y-97334471D01*
X171780329Y-97193164D01*
X171851776Y-97154974D01*
X171967501Y-97060001D01*
X171991304Y-97030997D01*
X176485283Y-92537019D01*
X176532395Y-92650756D01*
G37*
%TD.AperFunction*%
D25*
X149077000Y-94742002D02*
X149235748Y-94742002D01*
X149077000Y-94900750D01*
X149073928Y-94915000D01*
X149086188Y-95039482D01*
X149122498Y-95159180D01*
X149181463Y-95269494D01*
X149205730Y-95299064D01*
X149133916Y-95433418D01*
X149089071Y-95581255D01*
X149073928Y-95735000D01*
X149073928Y-95804400D01*
X148245812Y-95804400D01*
X148293502Y-95715180D01*
X148329812Y-95595482D01*
X148342072Y-95471000D01*
X148339000Y-95281750D01*
X148180250Y-95123000D01*
X147343500Y-95123000D01*
X147343500Y-95143000D01*
X147089500Y-95143000D01*
X147089500Y-95123000D01*
X147069500Y-95123000D01*
X147069500Y-94869000D01*
X147089500Y-94869000D01*
X147089500Y-94849000D01*
X147343500Y-94849000D01*
X147343500Y-94869000D01*
X148180250Y-94869000D01*
X148309250Y-94740000D01*
X149077000Y-94740000D01*
X149077000Y-94742002D01*
%TA.AperFunction,Conductor*%
D26*
G36*
X149077000Y-94742002D02*
G01*
X149235748Y-94742002D01*
X149077000Y-94900750D01*
X149073928Y-94915000D01*
X149086188Y-95039482D01*
X149122498Y-95159180D01*
X149181463Y-95269494D01*
X149205730Y-95299064D01*
X149133916Y-95433418D01*
X149089071Y-95581255D01*
X149073928Y-95735000D01*
X149073928Y-95804400D01*
X148245812Y-95804400D01*
X148293502Y-95715180D01*
X148329812Y-95595482D01*
X148342072Y-95471000D01*
X148339000Y-95281750D01*
X148180250Y-95123000D01*
X147343500Y-95123000D01*
X147343500Y-95143000D01*
X147089500Y-95143000D01*
X147089500Y-95123000D01*
X147069500Y-95123000D01*
X147069500Y-94869000D01*
X147089500Y-94869000D01*
X147089500Y-94849000D01*
X147343500Y-94849000D01*
X147343500Y-94869000D01*
X148180250Y-94869000D01*
X148309250Y-94740000D01*
X149077000Y-94740000D01*
X149077000Y-94742002D01*
G37*
%TD.AperFunction*%
D25*
X151430500Y-81915000D02*
X151410500Y-81915000D01*
X151410500Y-82689250D01*
X151569250Y-82848000D01*
X151896000Y-82851072D01*
X152020482Y-82838812D01*
X152140180Y-82802502D01*
X152176721Y-82782970D01*
X152183000Y-82786326D01*
X152342562Y-82834728D01*
X152508500Y-82851072D01*
X153308500Y-82851072D01*
X153474438Y-82834728D01*
X153634000Y-82786326D01*
X153781052Y-82707725D01*
X153909945Y-82601945D01*
X153954217Y-82548000D01*
X153991080Y-82548000D01*
X154070377Y-82644623D01*
X154203058Y-82753512D01*
X154354433Y-82834423D01*
X154518684Y-82884248D01*
X154689500Y-82901072D01*
X155189500Y-82901072D01*
X155360316Y-82884248D01*
X155524567Y-82834423D01*
X155675942Y-82753512D01*
X155808623Y-82644623D01*
X155852000Y-82591768D01*
X155895377Y-82644623D01*
X156028058Y-82753512D01*
X156179433Y-82834423D01*
X156343684Y-82884248D01*
X156514500Y-82901072D01*
X157014500Y-82901072D01*
X157185316Y-82884248D01*
X157349567Y-82834423D01*
X157500942Y-82753512D01*
X157633623Y-82644623D01*
X157712920Y-82548000D01*
X164902199Y-82548000D01*
X165224399Y-82870200D01*
X157753622Y-82870200D01*
X157716299Y-82866524D01*
X157678976Y-82870200D01*
X157678967Y-82870200D01*
X157567314Y-82881197D01*
X157424053Y-82924654D01*
X157292024Y-82995226D01*
X157292022Y-82995227D01*
X157292023Y-82995227D01*
X157205296Y-83066401D01*
X157205292Y-83066405D01*
X157176299Y-83090199D01*
X157152505Y-83119192D01*
X156802770Y-83468928D01*
X156514500Y-83468928D01*
X156343684Y-83485752D01*
X156179433Y-83535577D01*
X156028058Y-83616488D01*
X155895377Y-83725377D01*
X155852000Y-83778232D01*
X155808623Y-83725377D01*
X155675942Y-83616488D01*
X155524567Y-83535577D01*
X155360316Y-83485752D01*
X155189500Y-83468928D01*
X154689500Y-83468928D01*
X154518684Y-83485752D01*
X154354433Y-83535577D01*
X154203058Y-83616488D01*
X154070377Y-83725377D01*
X153997648Y-83813997D01*
X153959945Y-83768055D01*
X153831052Y-83662275D01*
X153684000Y-83583674D01*
X153524438Y-83535272D01*
X153358500Y-83518928D01*
X152558500Y-83518928D01*
X152392562Y-83535272D01*
X152233000Y-83583674D01*
X152226721Y-83587030D01*
X152190180Y-83567498D01*
X152070482Y-83531188D01*
X151946000Y-83518928D01*
X151619250Y-83522000D01*
X151460500Y-83680750D01*
X151460500Y-84455000D01*
X151480500Y-84455000D01*
X151480500Y-84709000D01*
X151460500Y-84709000D01*
X151460500Y-85483250D01*
X151619250Y-85642000D01*
X151946000Y-85645072D01*
X152070482Y-85632812D01*
X152190180Y-85596502D01*
X152226721Y-85576970D01*
X152233000Y-85580326D01*
X152392562Y-85628728D01*
X152558500Y-85645072D01*
X153358500Y-85645072D01*
X153524438Y-85628728D01*
X153684000Y-85580326D01*
X153831052Y-85501725D01*
X153959945Y-85395945D01*
X153997648Y-85350003D01*
X154070377Y-85438623D01*
X154203058Y-85547512D01*
X154354433Y-85628423D01*
X154518684Y-85678248D01*
X154689500Y-85695072D01*
X155189500Y-85695072D01*
X155360316Y-85678248D01*
X155524567Y-85628423D01*
X155675942Y-85547512D01*
X155808623Y-85438623D01*
X155852000Y-85385768D01*
X155895377Y-85438623D01*
X156028058Y-85547512D01*
X156179433Y-85628423D01*
X156343684Y-85678248D01*
X156514500Y-85695072D01*
X157014500Y-85695072D01*
X157185316Y-85678248D01*
X157349567Y-85628423D01*
X157500942Y-85547512D01*
X157633623Y-85438623D01*
X157742512Y-85305942D01*
X157823423Y-85154567D01*
X157873248Y-84990316D01*
X157890072Y-84819500D01*
X157890072Y-84531230D01*
X158031103Y-84390200D01*
X160883304Y-84390200D01*
X160878068Y-84402842D01*
X160821000Y-84689740D01*
X160821000Y-84982260D01*
X160878068Y-85269158D01*
X160990010Y-85539411D01*
X161152525Y-85782632D01*
X161359368Y-85989475D01*
X161533760Y-86106000D01*
X161359368Y-86222525D01*
X161152525Y-86429368D01*
X160990010Y-86672589D01*
X160878068Y-86942842D01*
X160821000Y-87229740D01*
X160821000Y-87522260D01*
X160874012Y-87788768D01*
X160862400Y-87787624D01*
X160825077Y-87791300D01*
X160825067Y-87791300D01*
X160713414Y-87802297D01*
X160570153Y-87845754D01*
X160438123Y-87916326D01*
X160354483Y-87984968D01*
X160322399Y-88011299D01*
X160298601Y-88040297D01*
X156992832Y-91346067D01*
X156899829Y-91269742D01*
X156763582Y-91196916D01*
X156615745Y-91152071D01*
X156462000Y-91136928D01*
X156170213Y-91136928D01*
X156148004Y-91118702D01*
X154792072Y-89762771D01*
X154792072Y-89424500D01*
X154775248Y-89253684D01*
X154725423Y-89089433D01*
X154644512Y-88938058D01*
X154535623Y-88805377D01*
X154402942Y-88696488D01*
X154251567Y-88615577D01*
X154087316Y-88565752D01*
X153916500Y-88548928D01*
X153316500Y-88548928D01*
X153145684Y-88565752D01*
X152981433Y-88615577D01*
X152831394Y-88695774D01*
X152783494Y-88656463D01*
X152673180Y-88597498D01*
X152553482Y-88561188D01*
X152429000Y-88548928D01*
X152177250Y-88552000D01*
X152018500Y-88710750D01*
X152018500Y-89535000D01*
X152038500Y-89535000D01*
X152038500Y-89789000D01*
X152018500Y-89789000D01*
X152018500Y-90613250D01*
X152177250Y-90772000D01*
X152429000Y-90775072D01*
X152553482Y-90762812D01*
X152673180Y-90726502D01*
X152783494Y-90667537D01*
X152831394Y-90628226D01*
X152981433Y-90708423D01*
X153145684Y-90758248D01*
X153316500Y-90775072D01*
X153654771Y-90775072D01*
X154251458Y-91371759D01*
X154156742Y-91487171D01*
X154083916Y-91623418D01*
X154039071Y-91771255D01*
X154023928Y-91925000D01*
X154023928Y-92212171D01*
X153776603Y-92459496D01*
X153747599Y-92483299D01*
X153701278Y-92539742D01*
X153652626Y-92599024D01*
X153588499Y-92718997D01*
X153582054Y-92731054D01*
X153538597Y-92874315D01*
X153527600Y-92985968D01*
X153527600Y-92985978D01*
X153523924Y-93023300D01*
X153527600Y-93060622D01*
X153527600Y-93629578D01*
X153523924Y-93666900D01*
X153527600Y-93704222D01*
X153527600Y-93704233D01*
X153538597Y-93815886D01*
X153582054Y-93959147D01*
X153598793Y-93990463D01*
X153652626Y-94091176D01*
X153720226Y-94173546D01*
X153747600Y-94206901D01*
X153776598Y-94230699D01*
X154023928Y-94478029D01*
X154023928Y-94765000D01*
X154039071Y-94918745D01*
X154083916Y-95066582D01*
X154156742Y-95202829D01*
X154195454Y-95250000D01*
X154156742Y-95297171D01*
X154083916Y-95433418D01*
X154039071Y-95581255D01*
X154023928Y-95735000D01*
X154023928Y-95804400D01*
X152300072Y-95804400D01*
X152300072Y-95735000D01*
X152284929Y-95581255D01*
X152240084Y-95433418D01*
X152168270Y-95299064D01*
X152192537Y-95269494D01*
X152251502Y-95159180D01*
X152287812Y-95039482D01*
X152300072Y-94915000D01*
X152297000Y-94900750D01*
X152138250Y-94742000D01*
X151740416Y-94742000D01*
X151760722Y-94740000D01*
X151760733Y-94740000D01*
X151872386Y-94729003D01*
X152015647Y-94685546D01*
X152147676Y-94614974D01*
X152263401Y-94520001D01*
X152287204Y-94490997D01*
X152528498Y-94249703D01*
X152557501Y-94225901D01*
X152652474Y-94110176D01*
X152723046Y-93978147D01*
X152766503Y-93834886D01*
X152777500Y-93723233D01*
X152777500Y-93723224D01*
X152781176Y-93685901D01*
X152777500Y-93648578D01*
X152777500Y-93013722D01*
X152781176Y-92976399D01*
X152777500Y-92939076D01*
X152777500Y-92939067D01*
X152766503Y-92827414D01*
X152723046Y-92684153D01*
X152695391Y-92632415D01*
X152652474Y-92552123D01*
X152581299Y-92465397D01*
X152557501Y-92436399D01*
X152528503Y-92412601D01*
X152300072Y-92184170D01*
X152300072Y-91925000D01*
X152284929Y-91771255D01*
X152240084Y-91623418D01*
X152167258Y-91487171D01*
X152069251Y-91367749D01*
X151949829Y-91269742D01*
X151813582Y-91196916D01*
X151665745Y-91152071D01*
X151512000Y-91136928D01*
X149862000Y-91136928D01*
X149708255Y-91152071D01*
X149560418Y-91196916D01*
X149424171Y-91269742D01*
X149304749Y-91367749D01*
X149206742Y-91487171D01*
X149133916Y-91623418D01*
X149089071Y-91771255D01*
X149073928Y-91925000D01*
X149073928Y-92225000D01*
X149089071Y-92378745D01*
X149133916Y-92526582D01*
X149165141Y-92585000D01*
X148318431Y-92585000D01*
X148329812Y-92547482D01*
X148342072Y-92423000D01*
X148339000Y-92233750D01*
X148180250Y-92075000D01*
X147343500Y-92075000D01*
X147343500Y-92095000D01*
X147089500Y-92095000D01*
X147089500Y-92075000D01*
X147069500Y-92075000D01*
X147069500Y-91821000D01*
X147089500Y-91821000D01*
X147089500Y-90996750D01*
X147343500Y-90996750D01*
X147343500Y-91821000D01*
X148180250Y-91821000D01*
X148339000Y-91662250D01*
X148342072Y-91473000D01*
X148329812Y-91348518D01*
X148293502Y-91228820D01*
X148234537Y-91118506D01*
X148155185Y-91021815D01*
X148058494Y-90942463D01*
X147948180Y-90883498D01*
X147828482Y-90847188D01*
X147704000Y-90834928D01*
X147502250Y-90838000D01*
X147343500Y-90996750D01*
X147089500Y-90996750D01*
X146930750Y-90838000D01*
X146729000Y-90834928D01*
X146604518Y-90847188D01*
X146484820Y-90883498D01*
X146374506Y-90942463D01*
X146277815Y-91021815D01*
X146236783Y-91071812D01*
X146127942Y-90982488D01*
X145976567Y-90901577D01*
X145812316Y-90851752D01*
X145641500Y-90834928D01*
X145141500Y-90834928D01*
X144970684Y-90851752D01*
X144806433Y-90901577D01*
X144655058Y-90982488D01*
X144583072Y-91041566D01*
X144583072Y-90518000D01*
X144572855Y-90414262D01*
X144580000Y-90349750D01*
X144547753Y-90317503D01*
X144534502Y-90273820D01*
X144531496Y-90268196D01*
X144568499Y-90153592D01*
X144570336Y-90137000D01*
X150715928Y-90137000D01*
X150728188Y-90261482D01*
X150764498Y-90381180D01*
X150823463Y-90491494D01*
X150902815Y-90588185D01*
X150999506Y-90667537D01*
X151109820Y-90726502D01*
X151229518Y-90762812D01*
X151354000Y-90775072D01*
X151605750Y-90772000D01*
X151764500Y-90613250D01*
X151764500Y-89789000D01*
X150877750Y-89789000D01*
X150719000Y-89947750D01*
X150715928Y-90137000D01*
X144570336Y-90137000D01*
X144580000Y-90049750D01*
X144548250Y-90018000D01*
X144580000Y-89986250D01*
X144568499Y-89882408D01*
X144530066Y-89763375D01*
X144520332Y-89745918D01*
X144580000Y-89686250D01*
X144568499Y-89582408D01*
X144530066Y-89463375D01*
X144469149Y-89354127D01*
X144416190Y-89291887D01*
X144449119Y-89199874D01*
X144439831Y-89187000D01*
X150715928Y-89187000D01*
X150719000Y-89376250D01*
X150877750Y-89535000D01*
X151764500Y-89535000D01*
X151764500Y-88710750D01*
X151605750Y-88552000D01*
X151354000Y-88548928D01*
X151229518Y-88561188D01*
X151109820Y-88597498D01*
X150999506Y-88656463D01*
X150902815Y-88735815D01*
X150823463Y-88832506D01*
X150764498Y-88942820D01*
X150728188Y-89062518D01*
X150715928Y-89187000D01*
X144439831Y-89187000D01*
X144322954Y-89025000D01*
X142932000Y-89025000D01*
X142932000Y-89045000D01*
X142678000Y-89045000D01*
X142678000Y-89025000D01*
X141287046Y-89025000D01*
X141207273Y-89135572D01*
X140949700Y-88877999D01*
X140949700Y-88596126D01*
X141160881Y-88596126D01*
X141287046Y-88771000D01*
X142678000Y-88771000D01*
X142678000Y-87763000D01*
X142932000Y-87763000D01*
X142932000Y-88771000D01*
X144322954Y-88771000D01*
X144449119Y-88596126D01*
X144369276Y-88373024D01*
X144247369Y-88185236D01*
X144091169Y-88024839D01*
X143906678Y-87897997D01*
X143700987Y-87809585D01*
X143482000Y-87763000D01*
X142932000Y-87763000D01*
X142678000Y-87763000D01*
X142128000Y-87763000D01*
X141909013Y-87809585D01*
X141703322Y-87897997D01*
X141518831Y-88024839D01*
X141362631Y-88185236D01*
X141240724Y-88373024D01*
X141160881Y-88596126D01*
X140949700Y-88596126D01*
X140949700Y-87405500D01*
X146206928Y-87405500D01*
X146219188Y-87529982D01*
X146255498Y-87649680D01*
X146314463Y-87759994D01*
X146393815Y-87856685D01*
X146490506Y-87936037D01*
X146600820Y-87995002D01*
X146720518Y-88031312D01*
X146845000Y-88043572D01*
X147034250Y-88040500D01*
X147193000Y-87881750D01*
X147193000Y-86995000D01*
X147447000Y-86995000D01*
X147447000Y-87881750D01*
X147605750Y-88040500D01*
X147795000Y-88043572D01*
X147919482Y-88031312D01*
X148039180Y-87995002D01*
X148149494Y-87936037D01*
X148246185Y-87856685D01*
X148325537Y-87759994D01*
X148384502Y-87649680D01*
X148420812Y-87529982D01*
X148433072Y-87405500D01*
X148430000Y-87153750D01*
X148271250Y-86995000D01*
X147447000Y-86995000D01*
X147193000Y-86995000D01*
X146368750Y-86995000D01*
X146210000Y-87153750D01*
X146206928Y-87405500D01*
X140949700Y-87405500D01*
X140949700Y-86408072D01*
X142040000Y-86408072D01*
X142164482Y-86395812D01*
X142284180Y-86359502D01*
X142394494Y-86300537D01*
X142491185Y-86221185D01*
X142570537Y-86124494D01*
X142629502Y-86014180D01*
X142665812Y-85894482D01*
X142678072Y-85770000D01*
X142678072Y-85324572D01*
X145340000Y-85324572D01*
X145464482Y-85312312D01*
X145584180Y-85276002D01*
X145694494Y-85217037D01*
X145791185Y-85137685D01*
X145870537Y-85040994D01*
X145929502Y-84930680D01*
X145965812Y-84810982D01*
X145978072Y-84686500D01*
X145978072Y-84580000D01*
X146120000Y-84580000D01*
X146120000Y-84665678D01*
X146116324Y-84703000D01*
X146120000Y-84740322D01*
X146120000Y-84740333D01*
X146130998Y-84851986D01*
X146137751Y-84874247D01*
X146174454Y-84995246D01*
X146206928Y-85056000D01*
X146206928Y-85443000D01*
X146223752Y-85613816D01*
X146273577Y-85778067D01*
X146353774Y-85928106D01*
X146314463Y-85976006D01*
X146255498Y-86086320D01*
X146219188Y-86206018D01*
X146206928Y-86330500D01*
X146210000Y-86582250D01*
X146368750Y-86741000D01*
X147193000Y-86741000D01*
X147193000Y-86721000D01*
X147447000Y-86721000D01*
X147447000Y-86741000D01*
X148271250Y-86741000D01*
X148430000Y-86582250D01*
X148433072Y-86330500D01*
X148420812Y-86206018D01*
X148384502Y-86086320D01*
X148325537Y-85976006D01*
X148286226Y-85928106D01*
X148366423Y-85778067D01*
X148416248Y-85613816D01*
X148433072Y-85443000D01*
X148433072Y-85007000D01*
X150082928Y-85007000D01*
X150095188Y-85131482D01*
X150131498Y-85251180D01*
X150190463Y-85361494D01*
X150269815Y-85458185D01*
X150366506Y-85537537D01*
X150476820Y-85596502D01*
X150596518Y-85632812D01*
X150721000Y-85645072D01*
X151047750Y-85642000D01*
X151206500Y-85483250D01*
X151206500Y-84709000D01*
X150244750Y-84709000D01*
X150086000Y-84867750D01*
X150082928Y-85007000D01*
X148433072Y-85007000D01*
X148433072Y-84843000D01*
X148416248Y-84672184D01*
X148366423Y-84507933D01*
X148285512Y-84356558D01*
X148205706Y-84259315D01*
X148265512Y-84186442D01*
X148281248Y-84157000D01*
X150082928Y-84157000D01*
X150086000Y-84296250D01*
X150244750Y-84455000D01*
X151206500Y-84455000D01*
X151206500Y-83680750D01*
X151047750Y-83522000D01*
X150721000Y-83518928D01*
X150596518Y-83531188D01*
X150476820Y-83567498D01*
X150366506Y-83626463D01*
X150269815Y-83705815D01*
X150190463Y-83802506D01*
X150131498Y-83912820D01*
X150095188Y-84032518D01*
X150082928Y-84157000D01*
X148281248Y-84157000D01*
X148346423Y-84035067D01*
X148396248Y-83870816D01*
X148413072Y-83700000D01*
X148413072Y-83361729D01*
X149561801Y-82213000D01*
X150032928Y-82213000D01*
X150045188Y-82337482D01*
X150081498Y-82457180D01*
X150140463Y-82567494D01*
X150219815Y-82664185D01*
X150316506Y-82743537D01*
X150426820Y-82802502D01*
X150546518Y-82838812D01*
X150671000Y-82851072D01*
X150997750Y-82848000D01*
X151156500Y-82689250D01*
X151156500Y-81915000D01*
X150194750Y-81915000D01*
X150036000Y-82073750D01*
X150032928Y-82213000D01*
X149561801Y-82213000D01*
X150074902Y-81699900D01*
X151430500Y-81699900D01*
X151430500Y-81915000D01*
%TA.AperFunction,Conductor*%
D26*
G36*
X151430500Y-81915000D02*
G01*
X151410500Y-81915000D01*
X151410500Y-82689250D01*
X151569250Y-82848000D01*
X151896000Y-82851072D01*
X152020482Y-82838812D01*
X152140180Y-82802502D01*
X152176721Y-82782970D01*
X152183000Y-82786326D01*
X152342562Y-82834728D01*
X152508500Y-82851072D01*
X153308500Y-82851072D01*
X153474438Y-82834728D01*
X153634000Y-82786326D01*
X153781052Y-82707725D01*
X153909945Y-82601945D01*
X153954217Y-82548000D01*
X153991080Y-82548000D01*
X154070377Y-82644623D01*
X154203058Y-82753512D01*
X154354433Y-82834423D01*
X154518684Y-82884248D01*
X154689500Y-82901072D01*
X155189500Y-82901072D01*
X155360316Y-82884248D01*
X155524567Y-82834423D01*
X155675942Y-82753512D01*
X155808623Y-82644623D01*
X155852000Y-82591768D01*
X155895377Y-82644623D01*
X156028058Y-82753512D01*
X156179433Y-82834423D01*
X156343684Y-82884248D01*
X156514500Y-82901072D01*
X157014500Y-82901072D01*
X157185316Y-82884248D01*
X157349567Y-82834423D01*
X157500942Y-82753512D01*
X157633623Y-82644623D01*
X157712920Y-82548000D01*
X164902199Y-82548000D01*
X165224399Y-82870200D01*
X157753622Y-82870200D01*
X157716299Y-82866524D01*
X157678976Y-82870200D01*
X157678967Y-82870200D01*
X157567314Y-82881197D01*
X157424053Y-82924654D01*
X157292024Y-82995226D01*
X157292022Y-82995227D01*
X157292023Y-82995227D01*
X157205296Y-83066401D01*
X157205292Y-83066405D01*
X157176299Y-83090199D01*
X157152505Y-83119192D01*
X156802770Y-83468928D01*
X156514500Y-83468928D01*
X156343684Y-83485752D01*
X156179433Y-83535577D01*
X156028058Y-83616488D01*
X155895377Y-83725377D01*
X155852000Y-83778232D01*
X155808623Y-83725377D01*
X155675942Y-83616488D01*
X155524567Y-83535577D01*
X155360316Y-83485752D01*
X155189500Y-83468928D01*
X154689500Y-83468928D01*
X154518684Y-83485752D01*
X154354433Y-83535577D01*
X154203058Y-83616488D01*
X154070377Y-83725377D01*
X153997648Y-83813997D01*
X153959945Y-83768055D01*
X153831052Y-83662275D01*
X153684000Y-83583674D01*
X153524438Y-83535272D01*
X153358500Y-83518928D01*
X152558500Y-83518928D01*
X152392562Y-83535272D01*
X152233000Y-83583674D01*
X152226721Y-83587030D01*
X152190180Y-83567498D01*
X152070482Y-83531188D01*
X151946000Y-83518928D01*
X151619250Y-83522000D01*
X151460500Y-83680750D01*
X151460500Y-84455000D01*
X151480500Y-84455000D01*
X151480500Y-84709000D01*
X151460500Y-84709000D01*
X151460500Y-85483250D01*
X151619250Y-85642000D01*
X151946000Y-85645072D01*
X152070482Y-85632812D01*
X152190180Y-85596502D01*
X152226721Y-85576970D01*
X152233000Y-85580326D01*
X152392562Y-85628728D01*
X152558500Y-85645072D01*
X153358500Y-85645072D01*
X153524438Y-85628728D01*
X153684000Y-85580326D01*
X153831052Y-85501725D01*
X153959945Y-85395945D01*
X153997648Y-85350003D01*
X154070377Y-85438623D01*
X154203058Y-85547512D01*
X154354433Y-85628423D01*
X154518684Y-85678248D01*
X154689500Y-85695072D01*
X155189500Y-85695072D01*
X155360316Y-85678248D01*
X155524567Y-85628423D01*
X155675942Y-85547512D01*
X155808623Y-85438623D01*
X155852000Y-85385768D01*
X155895377Y-85438623D01*
X156028058Y-85547512D01*
X156179433Y-85628423D01*
X156343684Y-85678248D01*
X156514500Y-85695072D01*
X157014500Y-85695072D01*
X157185316Y-85678248D01*
X157349567Y-85628423D01*
X157500942Y-85547512D01*
X157633623Y-85438623D01*
X157742512Y-85305942D01*
X157823423Y-85154567D01*
X157873248Y-84990316D01*
X157890072Y-84819500D01*
X157890072Y-84531230D01*
X158031103Y-84390200D01*
X160883304Y-84390200D01*
X160878068Y-84402842D01*
X160821000Y-84689740D01*
X160821000Y-84982260D01*
X160878068Y-85269158D01*
X160990010Y-85539411D01*
X161152525Y-85782632D01*
X161359368Y-85989475D01*
X161533760Y-86106000D01*
X161359368Y-86222525D01*
X161152525Y-86429368D01*
X160990010Y-86672589D01*
X160878068Y-86942842D01*
X160821000Y-87229740D01*
X160821000Y-87522260D01*
X160874012Y-87788768D01*
X160862400Y-87787624D01*
X160825077Y-87791300D01*
X160825067Y-87791300D01*
X160713414Y-87802297D01*
X160570153Y-87845754D01*
X160438123Y-87916326D01*
X160354483Y-87984968D01*
X160322399Y-88011299D01*
X160298601Y-88040297D01*
X156992832Y-91346067D01*
X156899829Y-91269742D01*
X156763582Y-91196916D01*
X156615745Y-91152071D01*
X156462000Y-91136928D01*
X156170213Y-91136928D01*
X156148004Y-91118702D01*
X154792072Y-89762771D01*
X154792072Y-89424500D01*
X154775248Y-89253684D01*
X154725423Y-89089433D01*
X154644512Y-88938058D01*
X154535623Y-88805377D01*
X154402942Y-88696488D01*
X154251567Y-88615577D01*
X154087316Y-88565752D01*
X153916500Y-88548928D01*
X153316500Y-88548928D01*
X153145684Y-88565752D01*
X152981433Y-88615577D01*
X152831394Y-88695774D01*
X152783494Y-88656463D01*
X152673180Y-88597498D01*
X152553482Y-88561188D01*
X152429000Y-88548928D01*
X152177250Y-88552000D01*
X152018500Y-88710750D01*
X152018500Y-89535000D01*
X152038500Y-89535000D01*
X152038500Y-89789000D01*
X152018500Y-89789000D01*
X152018500Y-90613250D01*
X152177250Y-90772000D01*
X152429000Y-90775072D01*
X152553482Y-90762812D01*
X152673180Y-90726502D01*
X152783494Y-90667537D01*
X152831394Y-90628226D01*
X152981433Y-90708423D01*
X153145684Y-90758248D01*
X153316500Y-90775072D01*
X153654771Y-90775072D01*
X154251458Y-91371759D01*
X154156742Y-91487171D01*
X154083916Y-91623418D01*
X154039071Y-91771255D01*
X154023928Y-91925000D01*
X154023928Y-92212171D01*
X153776603Y-92459496D01*
X153747599Y-92483299D01*
X153701278Y-92539742D01*
X153652626Y-92599024D01*
X153588499Y-92718997D01*
X153582054Y-92731054D01*
X153538597Y-92874315D01*
X153527600Y-92985968D01*
X153527600Y-92985978D01*
X153523924Y-93023300D01*
X153527600Y-93060622D01*
X153527600Y-93629578D01*
X153523924Y-93666900D01*
X153527600Y-93704222D01*
X153527600Y-93704233D01*
X153538597Y-93815886D01*
X153582054Y-93959147D01*
X153598793Y-93990463D01*
X153652626Y-94091176D01*
X153720226Y-94173546D01*
X153747600Y-94206901D01*
X153776598Y-94230699D01*
X154023928Y-94478029D01*
X154023928Y-94765000D01*
X154039071Y-94918745D01*
X154083916Y-95066582D01*
X154156742Y-95202829D01*
X154195454Y-95250000D01*
X154156742Y-95297171D01*
X154083916Y-95433418D01*
X154039071Y-95581255D01*
X154023928Y-95735000D01*
X154023928Y-95804400D01*
X152300072Y-95804400D01*
X152300072Y-95735000D01*
X152284929Y-95581255D01*
X152240084Y-95433418D01*
X152168270Y-95299064D01*
X152192537Y-95269494D01*
X152251502Y-95159180D01*
X152287812Y-95039482D01*
X152300072Y-94915000D01*
X152297000Y-94900750D01*
X152138250Y-94742000D01*
X151740416Y-94742000D01*
X151760722Y-94740000D01*
X151760733Y-94740000D01*
X151872386Y-94729003D01*
X152015647Y-94685546D01*
X152147676Y-94614974D01*
X152263401Y-94520001D01*
X152287204Y-94490997D01*
X152528498Y-94249703D01*
X152557501Y-94225901D01*
X152652474Y-94110176D01*
X152723046Y-93978147D01*
X152766503Y-93834886D01*
X152777500Y-93723233D01*
X152777500Y-93723224D01*
X152781176Y-93685901D01*
X152777500Y-93648578D01*
X152777500Y-93013722D01*
X152781176Y-92976399D01*
X152777500Y-92939076D01*
X152777500Y-92939067D01*
X152766503Y-92827414D01*
X152723046Y-92684153D01*
X152695391Y-92632415D01*
X152652474Y-92552123D01*
X152581299Y-92465397D01*
X152557501Y-92436399D01*
X152528503Y-92412601D01*
X152300072Y-92184170D01*
X152300072Y-91925000D01*
X152284929Y-91771255D01*
X152240084Y-91623418D01*
X152167258Y-91487171D01*
X152069251Y-91367749D01*
X151949829Y-91269742D01*
X151813582Y-91196916D01*
X151665745Y-91152071D01*
X151512000Y-91136928D01*
X149862000Y-91136928D01*
X149708255Y-91152071D01*
X149560418Y-91196916D01*
X149424171Y-91269742D01*
X149304749Y-91367749D01*
X149206742Y-91487171D01*
X149133916Y-91623418D01*
X149089071Y-91771255D01*
X149073928Y-91925000D01*
X149073928Y-92225000D01*
X149089071Y-92378745D01*
X149133916Y-92526582D01*
X149165141Y-92585000D01*
X148318431Y-92585000D01*
X148329812Y-92547482D01*
X148342072Y-92423000D01*
X148339000Y-92233750D01*
X148180250Y-92075000D01*
X147343500Y-92075000D01*
X147343500Y-92095000D01*
X147089500Y-92095000D01*
X147089500Y-92075000D01*
X147069500Y-92075000D01*
X147069500Y-91821000D01*
X147089500Y-91821000D01*
X147089500Y-90996750D01*
X147343500Y-90996750D01*
X147343500Y-91821000D01*
X148180250Y-91821000D01*
X148339000Y-91662250D01*
X148342072Y-91473000D01*
X148329812Y-91348518D01*
X148293502Y-91228820D01*
X148234537Y-91118506D01*
X148155185Y-91021815D01*
X148058494Y-90942463D01*
X147948180Y-90883498D01*
X147828482Y-90847188D01*
X147704000Y-90834928D01*
X147502250Y-90838000D01*
X147343500Y-90996750D01*
X147089500Y-90996750D01*
X146930750Y-90838000D01*
X146729000Y-90834928D01*
X146604518Y-90847188D01*
X146484820Y-90883498D01*
X146374506Y-90942463D01*
X146277815Y-91021815D01*
X146236783Y-91071812D01*
X146127942Y-90982488D01*
X145976567Y-90901577D01*
X145812316Y-90851752D01*
X145641500Y-90834928D01*
X145141500Y-90834928D01*
X144970684Y-90851752D01*
X144806433Y-90901577D01*
X144655058Y-90982488D01*
X144583072Y-91041566D01*
X144583072Y-90518000D01*
X144572855Y-90414262D01*
X144580000Y-90349750D01*
X144547753Y-90317503D01*
X144534502Y-90273820D01*
X144531496Y-90268196D01*
X144568499Y-90153592D01*
X144570336Y-90137000D01*
X150715928Y-90137000D01*
X150728188Y-90261482D01*
X150764498Y-90381180D01*
X150823463Y-90491494D01*
X150902815Y-90588185D01*
X150999506Y-90667537D01*
X151109820Y-90726502D01*
X151229518Y-90762812D01*
X151354000Y-90775072D01*
X151605750Y-90772000D01*
X151764500Y-90613250D01*
X151764500Y-89789000D01*
X150877750Y-89789000D01*
X150719000Y-89947750D01*
X150715928Y-90137000D01*
X144570336Y-90137000D01*
X144580000Y-90049750D01*
X144548250Y-90018000D01*
X144580000Y-89986250D01*
X144568499Y-89882408D01*
X144530066Y-89763375D01*
X144520332Y-89745918D01*
X144580000Y-89686250D01*
X144568499Y-89582408D01*
X144530066Y-89463375D01*
X144469149Y-89354127D01*
X144416190Y-89291887D01*
X144449119Y-89199874D01*
X144439831Y-89187000D01*
X150715928Y-89187000D01*
X150719000Y-89376250D01*
X150877750Y-89535000D01*
X151764500Y-89535000D01*
X151764500Y-88710750D01*
X151605750Y-88552000D01*
X151354000Y-88548928D01*
X151229518Y-88561188D01*
X151109820Y-88597498D01*
X150999506Y-88656463D01*
X150902815Y-88735815D01*
X150823463Y-88832506D01*
X150764498Y-88942820D01*
X150728188Y-89062518D01*
X150715928Y-89187000D01*
X144439831Y-89187000D01*
X144322954Y-89025000D01*
X142932000Y-89025000D01*
X142932000Y-89045000D01*
X142678000Y-89045000D01*
X142678000Y-89025000D01*
X141287046Y-89025000D01*
X141207273Y-89135572D01*
X140949700Y-88877999D01*
X140949700Y-88596126D01*
X141160881Y-88596126D01*
X141287046Y-88771000D01*
X142678000Y-88771000D01*
X142678000Y-87763000D01*
X142932000Y-87763000D01*
X142932000Y-88771000D01*
X144322954Y-88771000D01*
X144449119Y-88596126D01*
X144369276Y-88373024D01*
X144247369Y-88185236D01*
X144091169Y-88024839D01*
X143906678Y-87897997D01*
X143700987Y-87809585D01*
X143482000Y-87763000D01*
X142932000Y-87763000D01*
X142678000Y-87763000D01*
X142128000Y-87763000D01*
X141909013Y-87809585D01*
X141703322Y-87897997D01*
X141518831Y-88024839D01*
X141362631Y-88185236D01*
X141240724Y-88373024D01*
X141160881Y-88596126D01*
X140949700Y-88596126D01*
X140949700Y-87405500D01*
X146206928Y-87405500D01*
X146219188Y-87529982D01*
X146255498Y-87649680D01*
X146314463Y-87759994D01*
X146393815Y-87856685D01*
X146490506Y-87936037D01*
X146600820Y-87995002D01*
X146720518Y-88031312D01*
X146845000Y-88043572D01*
X147034250Y-88040500D01*
X147193000Y-87881750D01*
X147193000Y-86995000D01*
X147447000Y-86995000D01*
X147447000Y-87881750D01*
X147605750Y-88040500D01*
X147795000Y-88043572D01*
X147919482Y-88031312D01*
X148039180Y-87995002D01*
X148149494Y-87936037D01*
X148246185Y-87856685D01*
X148325537Y-87759994D01*
X148384502Y-87649680D01*
X148420812Y-87529982D01*
X148433072Y-87405500D01*
X148430000Y-87153750D01*
X148271250Y-86995000D01*
X147447000Y-86995000D01*
X147193000Y-86995000D01*
X146368750Y-86995000D01*
X146210000Y-87153750D01*
X146206928Y-87405500D01*
X140949700Y-87405500D01*
X140949700Y-86408072D01*
X142040000Y-86408072D01*
X142164482Y-86395812D01*
X142284180Y-86359502D01*
X142394494Y-86300537D01*
X142491185Y-86221185D01*
X142570537Y-86124494D01*
X142629502Y-86014180D01*
X142665812Y-85894482D01*
X142678072Y-85770000D01*
X142678072Y-85324572D01*
X145340000Y-85324572D01*
X145464482Y-85312312D01*
X145584180Y-85276002D01*
X145694494Y-85217037D01*
X145791185Y-85137685D01*
X145870537Y-85040994D01*
X145929502Y-84930680D01*
X145965812Y-84810982D01*
X145978072Y-84686500D01*
X145978072Y-84580000D01*
X146120000Y-84580000D01*
X146120000Y-84665678D01*
X146116324Y-84703000D01*
X146120000Y-84740322D01*
X146120000Y-84740333D01*
X146130998Y-84851986D01*
X146137751Y-84874247D01*
X146174454Y-84995246D01*
X146206928Y-85056000D01*
X146206928Y-85443000D01*
X146223752Y-85613816D01*
X146273577Y-85778067D01*
X146353774Y-85928106D01*
X146314463Y-85976006D01*
X146255498Y-86086320D01*
X146219188Y-86206018D01*
X146206928Y-86330500D01*
X146210000Y-86582250D01*
X146368750Y-86741000D01*
X147193000Y-86741000D01*
X147193000Y-86721000D01*
X147447000Y-86721000D01*
X147447000Y-86741000D01*
X148271250Y-86741000D01*
X148430000Y-86582250D01*
X148433072Y-86330500D01*
X148420812Y-86206018D01*
X148384502Y-86086320D01*
X148325537Y-85976006D01*
X148286226Y-85928106D01*
X148366423Y-85778067D01*
X148416248Y-85613816D01*
X148433072Y-85443000D01*
X148433072Y-85007000D01*
X150082928Y-85007000D01*
X150095188Y-85131482D01*
X150131498Y-85251180D01*
X150190463Y-85361494D01*
X150269815Y-85458185D01*
X150366506Y-85537537D01*
X150476820Y-85596502D01*
X150596518Y-85632812D01*
X150721000Y-85645072D01*
X151047750Y-85642000D01*
X151206500Y-85483250D01*
X151206500Y-84709000D01*
X150244750Y-84709000D01*
X150086000Y-84867750D01*
X150082928Y-85007000D01*
X148433072Y-85007000D01*
X148433072Y-84843000D01*
X148416248Y-84672184D01*
X148366423Y-84507933D01*
X148285512Y-84356558D01*
X148205706Y-84259315D01*
X148265512Y-84186442D01*
X148281248Y-84157000D01*
X150082928Y-84157000D01*
X150086000Y-84296250D01*
X150244750Y-84455000D01*
X151206500Y-84455000D01*
X151206500Y-83680750D01*
X151047750Y-83522000D01*
X150721000Y-83518928D01*
X150596518Y-83531188D01*
X150476820Y-83567498D01*
X150366506Y-83626463D01*
X150269815Y-83705815D01*
X150190463Y-83802506D01*
X150131498Y-83912820D01*
X150095188Y-84032518D01*
X150082928Y-84157000D01*
X148281248Y-84157000D01*
X148346423Y-84035067D01*
X148396248Y-83870816D01*
X148413072Y-83700000D01*
X148413072Y-83361729D01*
X149561801Y-82213000D01*
X150032928Y-82213000D01*
X150045188Y-82337482D01*
X150081498Y-82457180D01*
X150140463Y-82567494D01*
X150219815Y-82664185D01*
X150316506Y-82743537D01*
X150426820Y-82802502D01*
X150546518Y-82838812D01*
X150671000Y-82851072D01*
X150997750Y-82848000D01*
X151156500Y-82689250D01*
X151156500Y-81915000D01*
X150194750Y-81915000D01*
X150036000Y-82073750D01*
X150032928Y-82213000D01*
X149561801Y-82213000D01*
X150074902Y-81699900D01*
X151430500Y-81699900D01*
X151430500Y-81915000D01*
G37*
%TD.AperFunction*%
D25*
X164973000Y-92329000D02*
X164993000Y-92329000D01*
X164993000Y-92583000D01*
X164973000Y-92583000D01*
X164973000Y-92603000D01*
X164719000Y-92603000D01*
X164719000Y-92583000D01*
X164699000Y-92583000D01*
X164699000Y-92329000D01*
X164719000Y-92329000D01*
X164719000Y-92309000D01*
X164973000Y-92309000D01*
X164973000Y-92329000D01*
%TA.AperFunction,Conductor*%
D26*
G36*
X164973000Y-92329000D02*
G01*
X164993000Y-92329000D01*
X164993000Y-92583000D01*
X164973000Y-92583000D01*
X164973000Y-92603000D01*
X164719000Y-92603000D01*
X164719000Y-92583000D01*
X164699000Y-92583000D01*
X164699000Y-92329000D01*
X164719000Y-92329000D01*
X164719000Y-92309000D01*
X164973000Y-92309000D01*
X164973000Y-92329000D01*
G37*
%TD.AperFunction*%
D25*
X208282001Y-81848803D02*
X208282000Y-89093198D01*
X207457164Y-89918034D01*
X207479000Y-89808260D01*
X207479000Y-89515740D01*
X207421932Y-89228842D01*
X207309990Y-88958589D01*
X207147475Y-88715368D01*
X206940632Y-88508525D01*
X206766240Y-88392000D01*
X206940632Y-88275475D01*
X207147475Y-88068632D01*
X207309990Y-87825411D01*
X207421932Y-87555158D01*
X207479000Y-87268260D01*
X207479000Y-86975740D01*
X207421932Y-86688842D01*
X207309990Y-86418589D01*
X207147475Y-86175368D01*
X206940632Y-85968525D01*
X206758466Y-85846805D01*
X206875355Y-85777178D01*
X207091588Y-85582269D01*
X207265641Y-85348920D01*
X207390825Y-85086099D01*
X207435476Y-84938890D01*
X207314155Y-84709000D01*
X206121000Y-84709000D01*
X206121000Y-84729000D01*
X205867000Y-84729000D01*
X205867000Y-84709000D01*
X204673845Y-84709000D01*
X204552524Y-84938890D01*
X204597175Y-85086099D01*
X204722359Y-85348920D01*
X204896412Y-85582269D01*
X205112645Y-85777178D01*
X205229534Y-85846805D01*
X205047368Y-85968525D01*
X204840525Y-86175368D01*
X204678010Y-86418589D01*
X204566068Y-86688842D01*
X204509000Y-86975740D01*
X204509000Y-87268260D01*
X204552790Y-87488408D01*
X203901199Y-88140000D01*
X198331625Y-88140000D01*
X198396632Y-88018380D01*
X198454385Y-87827994D01*
X198473886Y-87630000D01*
X198454385Y-87432006D01*
X198396632Y-87241620D01*
X198302847Y-87066160D01*
X198176633Y-86912367D01*
X198022840Y-86786153D01*
X197847380Y-86692368D01*
X197694000Y-86645841D01*
X197694000Y-85206101D01*
X198711003Y-84189099D01*
X198740001Y-84165301D01*
X198834974Y-84049576D01*
X198899830Y-83928241D01*
X198924499Y-83925811D01*
X199044197Y-83889501D01*
X199154511Y-83830536D01*
X199251202Y-83751184D01*
X199330554Y-83654493D01*
X199389519Y-83544179D01*
X199425829Y-83424481D01*
X199438089Y-83299999D01*
X199438089Y-82689400D01*
X204137299Y-82689400D01*
X204254896Y-82806997D01*
X204278699Y-82836001D01*
X204394424Y-82930974D01*
X204526453Y-83001546D01*
X204669714Y-83045003D01*
X204781367Y-83056000D01*
X204781375Y-83056000D01*
X204818700Y-83059676D01*
X204856025Y-83056000D01*
X204907893Y-83056000D01*
X205047368Y-83195475D01*
X205229534Y-83317195D01*
X205112645Y-83386822D01*
X204896412Y-83581731D01*
X204722359Y-83815080D01*
X204597175Y-84077901D01*
X204552524Y-84225110D01*
X204673845Y-84455000D01*
X205867000Y-84455000D01*
X205867000Y-84435000D01*
X206121000Y-84435000D01*
X206121000Y-84455000D01*
X207314155Y-84455000D01*
X207435476Y-84225110D01*
X207390825Y-84077901D01*
X207265641Y-83815080D01*
X207091588Y-83581731D01*
X206875355Y-83386822D01*
X206758466Y-83317195D01*
X206940632Y-83195475D01*
X207147475Y-82988632D01*
X207309990Y-82745411D01*
X207421932Y-82475158D01*
X207479000Y-82188260D01*
X207479000Y-81895740D01*
X207421932Y-81608842D01*
X207390103Y-81532000D01*
X207965199Y-81532000D01*
X208282001Y-81848803D01*
%TA.AperFunction,Conductor*%
D26*
G36*
X208282001Y-81848803D02*
G01*
X208282000Y-89093198D01*
X207457164Y-89918034D01*
X207479000Y-89808260D01*
X207479000Y-89515740D01*
X207421932Y-89228842D01*
X207309990Y-88958589D01*
X207147475Y-88715368D01*
X206940632Y-88508525D01*
X206766240Y-88392000D01*
X206940632Y-88275475D01*
X207147475Y-88068632D01*
X207309990Y-87825411D01*
X207421932Y-87555158D01*
X207479000Y-87268260D01*
X207479000Y-86975740D01*
X207421932Y-86688842D01*
X207309990Y-86418589D01*
X207147475Y-86175368D01*
X206940632Y-85968525D01*
X206758466Y-85846805D01*
X206875355Y-85777178D01*
X207091588Y-85582269D01*
X207265641Y-85348920D01*
X207390825Y-85086099D01*
X207435476Y-84938890D01*
X207314155Y-84709000D01*
X206121000Y-84709000D01*
X206121000Y-84729000D01*
X205867000Y-84729000D01*
X205867000Y-84709000D01*
X204673845Y-84709000D01*
X204552524Y-84938890D01*
X204597175Y-85086099D01*
X204722359Y-85348920D01*
X204896412Y-85582269D01*
X205112645Y-85777178D01*
X205229534Y-85846805D01*
X205047368Y-85968525D01*
X204840525Y-86175368D01*
X204678010Y-86418589D01*
X204566068Y-86688842D01*
X204509000Y-86975740D01*
X204509000Y-87268260D01*
X204552790Y-87488408D01*
X203901199Y-88140000D01*
X198331625Y-88140000D01*
X198396632Y-88018380D01*
X198454385Y-87827994D01*
X198473886Y-87630000D01*
X198454385Y-87432006D01*
X198396632Y-87241620D01*
X198302847Y-87066160D01*
X198176633Y-86912367D01*
X198022840Y-86786153D01*
X197847380Y-86692368D01*
X197694000Y-86645841D01*
X197694000Y-85206101D01*
X198711003Y-84189099D01*
X198740001Y-84165301D01*
X198834974Y-84049576D01*
X198899830Y-83928241D01*
X198924499Y-83925811D01*
X199044197Y-83889501D01*
X199154511Y-83830536D01*
X199251202Y-83751184D01*
X199330554Y-83654493D01*
X199389519Y-83544179D01*
X199425829Y-83424481D01*
X199438089Y-83299999D01*
X199438089Y-82689400D01*
X204137299Y-82689400D01*
X204254896Y-82806997D01*
X204278699Y-82836001D01*
X204394424Y-82930974D01*
X204526453Y-83001546D01*
X204669714Y-83045003D01*
X204781367Y-83056000D01*
X204781375Y-83056000D01*
X204818700Y-83059676D01*
X204856025Y-83056000D01*
X204907893Y-83056000D01*
X205047368Y-83195475D01*
X205229534Y-83317195D01*
X205112645Y-83386822D01*
X204896412Y-83581731D01*
X204722359Y-83815080D01*
X204597175Y-84077901D01*
X204552524Y-84225110D01*
X204673845Y-84455000D01*
X205867000Y-84455000D01*
X205867000Y-84435000D01*
X206121000Y-84435000D01*
X206121000Y-84455000D01*
X207314155Y-84455000D01*
X207435476Y-84225110D01*
X207390825Y-84077901D01*
X207265641Y-83815080D01*
X207091588Y-83581731D01*
X206875355Y-83386822D01*
X206758466Y-83317195D01*
X206940632Y-83195475D01*
X207147475Y-82988632D01*
X207309990Y-82745411D01*
X207421932Y-82475158D01*
X207479000Y-82188260D01*
X207479000Y-81895740D01*
X207421932Y-81608842D01*
X207390103Y-81532000D01*
X207965199Y-81532000D01*
X208282001Y-81848803D01*
G37*
%TD.AperFunction*%
D25*
X146373815Y-80686315D02*
X146294463Y-80783006D01*
X146235498Y-80893320D01*
X146199188Y-81013018D01*
X146186928Y-81137500D01*
X146190000Y-81389250D01*
X146348750Y-81548000D01*
X147173000Y-81548000D01*
X147173000Y-81528000D01*
X147427000Y-81528000D01*
X147427000Y-81548000D01*
X147447000Y-81548000D01*
X147447000Y-81802000D01*
X147427000Y-81802000D01*
X147427000Y-81822000D01*
X147173000Y-81822000D01*
X147173000Y-81802000D01*
X146348750Y-81802000D01*
X146190000Y-81960750D01*
X146186928Y-82212500D01*
X146199188Y-82336982D01*
X146235498Y-82456680D01*
X146294463Y-82566994D01*
X146333774Y-82614894D01*
X146253577Y-82764933D01*
X146203752Y-82929184D01*
X146190868Y-83060000D01*
X145978072Y-83060000D01*
X145978072Y-82953500D01*
X145965812Y-82829018D01*
X145929502Y-82709320D01*
X145870537Y-82599006D01*
X145791185Y-82502315D01*
X145694494Y-82422963D01*
X145584180Y-82363998D01*
X145464482Y-82327688D01*
X145340000Y-82315428D01*
X142675000Y-82315428D01*
X142675000Y-82192998D01*
X142516252Y-82192998D01*
X142675000Y-82034250D01*
X142678072Y-81870000D01*
X142665812Y-81745518D01*
X142629502Y-81625820D01*
X142570537Y-81515506D01*
X142491185Y-81418815D01*
X142394494Y-81339463D01*
X142284180Y-81280498D01*
X142164482Y-81244188D01*
X142040000Y-81231928D01*
X141675750Y-81235000D01*
X141517000Y-81393750D01*
X141517000Y-82193000D01*
X141537000Y-82193000D01*
X141537000Y-82447000D01*
X141517000Y-82447000D01*
X141517000Y-82467000D01*
X141263000Y-82467000D01*
X141263000Y-82447000D01*
X140263750Y-82447000D01*
X140105000Y-82605750D01*
X140101928Y-82770000D01*
X140107068Y-82822192D01*
X140021494Y-82751963D01*
X139911180Y-82692998D01*
X139791482Y-82656688D01*
X139667000Y-82644428D01*
X139477750Y-82647500D01*
X139319000Y-82806250D01*
X139319000Y-83693000D01*
X139339000Y-83693000D01*
X139339000Y-83947000D01*
X139319000Y-83947000D01*
X139319000Y-83967000D01*
X139065000Y-83967000D01*
X139065000Y-83947000D01*
X138240750Y-83947000D01*
X138185750Y-84002000D01*
X137627000Y-84002000D01*
X137627000Y-84022000D01*
X137373000Y-84022000D01*
X137373000Y-84002000D01*
X137353000Y-84002000D01*
X137353000Y-83748000D01*
X137373000Y-83748000D01*
X137373000Y-82861250D01*
X137627000Y-82861250D01*
X137627000Y-83748000D01*
X138451250Y-83748000D01*
X138506250Y-83693000D01*
X139065000Y-83693000D01*
X139065000Y-82806250D01*
X138906250Y-82647500D01*
X138717000Y-82644428D01*
X138592518Y-82656688D01*
X138472820Y-82692998D01*
X138362506Y-82751963D01*
X138308901Y-82795956D01*
X138219180Y-82747998D01*
X138099482Y-82711688D01*
X137975000Y-82699428D01*
X137785750Y-82702500D01*
X137627000Y-82861250D01*
X137373000Y-82861250D01*
X137214250Y-82702500D01*
X137025000Y-82699428D01*
X136900518Y-82711688D01*
X136780820Y-82747998D01*
X136670506Y-82806963D01*
X136660000Y-82815585D01*
X136660000Y-81870000D01*
X140101928Y-81870000D01*
X140105000Y-82034250D01*
X140263750Y-82193000D01*
X141263000Y-82193000D01*
X141263000Y-81393750D01*
X141104250Y-81235000D01*
X140740000Y-81231928D01*
X140615518Y-81244188D01*
X140495820Y-81280498D01*
X140385506Y-81339463D01*
X140288815Y-81418815D01*
X140209463Y-81515506D01*
X140150498Y-81625820D01*
X140114188Y-81745518D01*
X140101928Y-81870000D01*
X136660000Y-81870000D01*
X136660000Y-81032279D01*
X136669580Y-80934576D01*
X136688580Y-80871644D01*
X136719445Y-80813595D01*
X136760989Y-80762657D01*
X136811644Y-80720752D01*
X136869471Y-80689485D01*
X136932272Y-80670044D01*
X137027835Y-80660000D01*
X146405880Y-80660000D01*
X146373815Y-80686315D01*
%TA.AperFunction,Conductor*%
D26*
G36*
X146373815Y-80686315D02*
G01*
X146294463Y-80783006D01*
X146235498Y-80893320D01*
X146199188Y-81013018D01*
X146186928Y-81137500D01*
X146190000Y-81389250D01*
X146348750Y-81548000D01*
X147173000Y-81548000D01*
X147173000Y-81528000D01*
X147427000Y-81528000D01*
X147427000Y-81548000D01*
X147447000Y-81548000D01*
X147447000Y-81802000D01*
X147427000Y-81802000D01*
X147427000Y-81822000D01*
X147173000Y-81822000D01*
X147173000Y-81802000D01*
X146348750Y-81802000D01*
X146190000Y-81960750D01*
X146186928Y-82212500D01*
X146199188Y-82336982D01*
X146235498Y-82456680D01*
X146294463Y-82566994D01*
X146333774Y-82614894D01*
X146253577Y-82764933D01*
X146203752Y-82929184D01*
X146190868Y-83060000D01*
X145978072Y-83060000D01*
X145978072Y-82953500D01*
X145965812Y-82829018D01*
X145929502Y-82709320D01*
X145870537Y-82599006D01*
X145791185Y-82502315D01*
X145694494Y-82422963D01*
X145584180Y-82363998D01*
X145464482Y-82327688D01*
X145340000Y-82315428D01*
X142675000Y-82315428D01*
X142675000Y-82192998D01*
X142516252Y-82192998D01*
X142675000Y-82034250D01*
X142678072Y-81870000D01*
X142665812Y-81745518D01*
X142629502Y-81625820D01*
X142570537Y-81515506D01*
X142491185Y-81418815D01*
X142394494Y-81339463D01*
X142284180Y-81280498D01*
X142164482Y-81244188D01*
X142040000Y-81231928D01*
X141675750Y-81235000D01*
X141517000Y-81393750D01*
X141517000Y-82193000D01*
X141537000Y-82193000D01*
X141537000Y-82447000D01*
X141517000Y-82447000D01*
X141517000Y-82467000D01*
X141263000Y-82467000D01*
X141263000Y-82447000D01*
X140263750Y-82447000D01*
X140105000Y-82605750D01*
X140101928Y-82770000D01*
X140107068Y-82822192D01*
X140021494Y-82751963D01*
X139911180Y-82692998D01*
X139791482Y-82656688D01*
X139667000Y-82644428D01*
X139477750Y-82647500D01*
X139319000Y-82806250D01*
X139319000Y-83693000D01*
X139339000Y-83693000D01*
X139339000Y-83947000D01*
X139319000Y-83947000D01*
X139319000Y-83967000D01*
X139065000Y-83967000D01*
X139065000Y-83947000D01*
X138240750Y-83947000D01*
X138185750Y-84002000D01*
X137627000Y-84002000D01*
X137627000Y-84022000D01*
X137373000Y-84022000D01*
X137373000Y-84002000D01*
X137353000Y-84002000D01*
X137353000Y-83748000D01*
X137373000Y-83748000D01*
X137373000Y-82861250D01*
X137627000Y-82861250D01*
X137627000Y-83748000D01*
X138451250Y-83748000D01*
X138506250Y-83693000D01*
X139065000Y-83693000D01*
X139065000Y-82806250D01*
X138906250Y-82647500D01*
X138717000Y-82644428D01*
X138592518Y-82656688D01*
X138472820Y-82692998D01*
X138362506Y-82751963D01*
X138308901Y-82795956D01*
X138219180Y-82747998D01*
X138099482Y-82711688D01*
X137975000Y-82699428D01*
X137785750Y-82702500D01*
X137627000Y-82861250D01*
X137373000Y-82861250D01*
X137214250Y-82702500D01*
X137025000Y-82699428D01*
X136900518Y-82711688D01*
X136780820Y-82747998D01*
X136670506Y-82806963D01*
X136660000Y-82815585D01*
X136660000Y-81870000D01*
X140101928Y-81870000D01*
X140105000Y-82034250D01*
X140263750Y-82193000D01*
X141263000Y-82193000D01*
X141263000Y-81393750D01*
X141104250Y-81235000D01*
X140740000Y-81231928D01*
X140615518Y-81244188D01*
X140495820Y-81280498D01*
X140385506Y-81339463D01*
X140288815Y-81418815D01*
X140209463Y-81515506D01*
X140150498Y-81625820D01*
X140114188Y-81745518D01*
X140101928Y-81870000D01*
X136660000Y-81870000D01*
X136660000Y-81032279D01*
X136669580Y-80934576D01*
X136688580Y-80871644D01*
X136719445Y-80813595D01*
X136760989Y-80762657D01*
X136811644Y-80720752D01*
X136869471Y-80689485D01*
X136932272Y-80670044D01*
X137027835Y-80660000D01*
X146405880Y-80660000D01*
X146373815Y-80686315D01*
G37*
%TD.AperFunction*%
%TD*%
D27*
X177038000Y-101600000D03*
X179070000Y-101600000D03*
X180848000Y-101600000D03*
X182626000Y-101600000D03*
X184150000Y-101600000D03*
X185928000Y-101600000D03*
X187706000Y-101600000D03*
X189738000Y-101600000D03*
X191770000Y-101600000D03*
X193548000Y-101600000D03*
X195326000Y-101600000D03*
X197358000Y-101600000D03*
X199644000Y-101600000D03*
X201422000Y-101600000D03*
X203454000Y-101600000D03*
X205486000Y-101600000D03*
X170942000Y-101600000D03*
X172974000Y-101600000D03*
X175006000Y-101600000D03*
X139446000Y-100330000D03*
X141986000Y-100330000D03*
X144272000Y-100330000D03*
X146812000Y-100330000D03*
X149860000Y-100330000D03*
X152654000Y-100330000D03*
X155448000Y-100330000D03*
X158242000Y-100330000D03*
D28*
X168554100Y-92056400D03*
X180517100Y-85699800D03*
X195083800Y-85112400D03*
X177449600Y-92160500D03*
X205994000Y-82042000D03*
X205994000Y-84582000D03*
X205994000Y-87122000D03*
X205994000Y-89662000D03*
X205994000Y-92202000D03*
X142305000Y-90328000D03*
X142305000Y-96108000D03*
D29*
X138625000Y-97538000D03*
X138625000Y-88898000D03*
D30*
X142805000Y-97538000D03*
X142805000Y-88898000D03*
D28*
X162306000Y-98298000D03*
X164846000Y-98298000D03*
X162306000Y-94996000D03*
X164846000Y-94996000D03*
X162306000Y-92456000D03*
X164846000Y-92456000D03*
X162306000Y-89916000D03*
X164846000Y-89916000D03*
X162306000Y-87376000D03*
X164846000Y-87376000D03*
X162306000Y-84836000D03*
X164846000Y-84836000D03*
X167386000Y-101346000D03*
X164846000Y-101346000D03*
X162306000Y-101346000D03*
X208280000Y-100330000D03*
X208280000Y-95250000D03*
X213360000Y-95250000D03*
X213360000Y-100330000D03*
X210820000Y-97790000D03*
M02*
