%TF.GenerationSoftware,KiCad,Pcbnew,(5.1.9)-1*%
%TF.CreationDate,2021-02-24T20:28:46+08:00*%
%TF.ProjectId,M-HL10-kit,4d2d484c-3130-42d6-9b69-742e6b696361,rev?*%
%TF.SameCoordinates,Original*%
%TF.FileFunction,Copper,L2,Bot*%
%TF.FilePolarity,Positive*%
%FSLAX46Y46*%
G04 Gerber Fmt 4.6, Leading zero omitted, Abs format (unit mm)*
G04 Created by KiCad (PCBNEW (5.1.9)-1) date 2021-02-24 20:28:46*
%MOMM*%
%LPD*%
G01*
G04 APERTURE LIST*
%TA.AperFunction,ComponentPad*%
%ADD10O,1.700000X1.700000*%
%TD*%
%TA.AperFunction,ComponentPad*%
%ADD11R,1.700000X1.700000*%
%TD*%
%TA.AperFunction,ComponentPad*%
%ADD12O,1.600000X1.000000*%
%TD*%
%TA.AperFunction,ComponentPad*%
%ADD13O,2.100000X1.000000*%
%TD*%
%TA.AperFunction,ComponentPad*%
%ADD14C,2.250000*%
%TD*%
%TA.AperFunction,ComponentPad*%
%ADD15C,2.050000*%
%TD*%
%TA.AperFunction,ViaPad*%
%ADD16C,0.600000*%
%TD*%
%TA.AperFunction,ViaPad*%
%ADD17C,0.800000*%
%TD*%
%TA.AperFunction,Conductor*%
%ADD18C,0.250000*%
%TD*%
%TA.AperFunction,Conductor*%
%ADD19C,0.254000*%
%TD*%
%TA.AperFunction,Conductor*%
%ADD20C,0.350000*%
%TD*%
%ADD21C,0.300000*%
%ADD22C,0.350000*%
%ADD23O,1.200000X0.600000*%
%ADD24O,1.700000X0.600000*%
G04 APERTURE END LIST*
D10*
%TO.P,J5,5*%
%TO.N,/RST*%
X205994000Y-82042000D03*
%TO.P,J5,4*%
%TO.N,GND*%
X205994000Y-84582000D03*
%TO.P,J5,3*%
%TO.N,Net-(J5-Pad3)*%
X205994000Y-87122000D03*
%TO.P,J5,2*%
%TO.N,Net-(J5-Pad2)*%
X205994000Y-89662000D03*
D11*
%TO.P,J5,1*%
%TO.N,+3V3*%
X205994000Y-92202000D03*
%TD*%
D12*
%TO.P,J4,S1*%
%TO.N,GND*%
X138625000Y-97538000D03*
X138625000Y-88898000D03*
D13*
X142805000Y-97538000D03*
X142805000Y-88898000D03*
%TD*%
D10*
%TO.P,TEST,2*%
%TO.N,+3V3*%
X162306000Y-98298000D03*
D11*
%TO.P,TEST,1*%
%TO.N,Net-(J3-Pad1)*%
X164846000Y-98298000D03*
%TD*%
D10*
%TO.P,J2,10*%
%TO.N,GND*%
X162306000Y-94996000D03*
%TO.P,J2,9*%
%TO.N,+3V3*%
X164846000Y-94996000D03*
%TO.P,J2,8*%
%TO.N,/SDA*%
X162306000Y-92456000D03*
%TO.P,J2,7*%
%TO.N,GND*%
X164846000Y-92456000D03*
%TO.P,J2,6*%
%TO.N,/SCL*%
X162306000Y-89916000D03*
%TO.P,J2,5*%
%TO.N,/TX*%
X164846000Y-89916000D03*
%TO.P,J2,4*%
%TO.N,/A0*%
X162306000Y-87376000D03*
%TO.P,J2,3*%
%TO.N,/RX*%
X164846000Y-87376000D03*
%TO.P,J2,2*%
%TO.N,/A1*%
X162306000Y-84836000D03*
D11*
%TO.P,J2,1*%
%TO.N,/P3*%
X164846000Y-84836000D03*
%TD*%
D10*
%TO.P,AT,3*%
%TO.N,GND*%
X167386000Y-101346000D03*
%TO.P,AT,2*%
%TO.N,/AT*%
X164846000Y-101346000D03*
D11*
%TO.P,AT,1*%
%TO.N,+3V3*%
X162306000Y-101346000D03*
%TD*%
D14*
%TO.P,J6,2*%
%TO.N,GND*%
X208280000Y-100330000D03*
X208280000Y-95250000D03*
X213360000Y-95250000D03*
X213360000Y-100330000D03*
D15*
%TO.P,J6,1*%
%TO.N,Net-(C3-Pad1)*%
X210820000Y-97790000D03*
%TD*%
D16*
%TO.N,GND*%
X177038000Y-101600000D03*
X179070000Y-101600000D03*
X180848000Y-101600000D03*
X182626000Y-101600000D03*
X184150000Y-101600000D03*
X185928000Y-101600000D03*
X187706000Y-101600000D03*
X189738000Y-101600000D03*
X191770000Y-101600000D03*
X193548000Y-101600000D03*
X195326000Y-101600000D03*
X197358000Y-101600000D03*
X199644000Y-101600000D03*
X201422000Y-101600000D03*
X203454000Y-101600000D03*
X205486000Y-101600000D03*
X170942000Y-101600000D03*
X172974000Y-101600000D03*
X175006000Y-101600000D03*
X139446000Y-100330000D03*
X141986000Y-100330000D03*
X144272000Y-100330000D03*
X146812000Y-100330000D03*
X149860000Y-100330000D03*
X152654000Y-100330000D03*
X155448000Y-100330000D03*
X158242000Y-100330000D03*
D17*
%TO.N,/AT*%
X168554100Y-92056400D03*
%TO.N,/A1*%
X180517100Y-85699800D03*
%TO.N,/A0*%
X195083800Y-85112400D03*
%TO.N,/SCL*%
X177449600Y-92160500D03*
%TD*%
D18*
%TO.N,GND*%
X139750300Y-97538000D02*
X141429700Y-97538000D01*
X142805000Y-97538000D02*
X141429700Y-97538000D01*
X139750300Y-88898000D02*
X139750300Y-97538000D01*
X139750300Y-88898000D02*
X141429700Y-88898000D01*
X138625000Y-88898000D02*
X139750300Y-88898000D01*
X138625000Y-97538000D02*
X139750300Y-97538000D01*
X142805000Y-88898000D02*
X141429700Y-88898000D01*
X162306000Y-94996000D02*
X164846000Y-92456000D01*
%TO.N,+3V3*%
X162306000Y-98298000D02*
X162306000Y-101346000D01*
X204818700Y-92456000D02*
X205994000Y-92456000D01*
X204388900Y-92885800D02*
X204818700Y-92456000D01*
X169753400Y-91329800D02*
X171309400Y-92885800D01*
X171309400Y-92885800D02*
X204388900Y-92885800D01*
X168207698Y-91329800D02*
X168799800Y-91329800D01*
X164846000Y-94996000D02*
X164846000Y-94742000D01*
X168799800Y-91329800D02*
X169753400Y-91329800D01*
X168216900Y-91329800D02*
X168799800Y-91329800D01*
X167005000Y-92543299D02*
X167005000Y-92583000D01*
X168216900Y-91331399D02*
X167005000Y-92543299D01*
X168216900Y-91329800D02*
X168216900Y-91331399D01*
X167005000Y-92583000D02*
X167829099Y-91758901D01*
X164846000Y-94742000D02*
X167005000Y-92583000D01*
%TO.N,/AT*%
X168554100Y-96756400D02*
X168554100Y-92056400D01*
X164846000Y-100464500D02*
X168554100Y-96756400D01*
X164846000Y-101346000D02*
X164846000Y-100464500D01*
%TO.N,/A1*%
X180205500Y-86011400D02*
X163481400Y-86011400D01*
X163481400Y-86011400D02*
X162306000Y-84836000D01*
X180517100Y-85699800D02*
X180205500Y-86011400D01*
%TO.N,/A0*%
X191605800Y-88590400D02*
X195083800Y-85112400D01*
X163520400Y-88590400D02*
X162306000Y-87376000D01*
X164536400Y-88590400D02*
X163520400Y-88590400D01*
X164328400Y-88590400D02*
X164536400Y-88590400D01*
X164536400Y-88590400D02*
X191605800Y-88590400D01*
%TO.N,/SCL*%
X163503600Y-91113600D02*
X162306000Y-89916000D01*
X167748600Y-91113600D02*
X163503600Y-91113600D01*
X176149300Y-90860200D02*
X168002000Y-90860200D01*
X168002000Y-90860200D02*
X167748600Y-91113600D01*
X177449600Y-92160500D02*
X176149300Y-90860200D01*
%TD*%
D19*
%TO.N,GND*%
X205290589Y-80726010D02*
X205047368Y-80888525D01*
X204840525Y-81095368D01*
X204678010Y-81338589D01*
X204566068Y-81608842D01*
X204509000Y-81895740D01*
X204509000Y-82188260D01*
X204566068Y-82475158D01*
X204678010Y-82745411D01*
X204840525Y-82988632D01*
X205047368Y-83195475D01*
X205229534Y-83317195D01*
X205112645Y-83386822D01*
X204896412Y-83581731D01*
X204722359Y-83815080D01*
X204597175Y-84077901D01*
X204552524Y-84225110D01*
X204673845Y-84455000D01*
X205867000Y-84455000D01*
X205867000Y-84435000D01*
X206121000Y-84435000D01*
X206121000Y-84455000D01*
X207314155Y-84455000D01*
X207435476Y-84225110D01*
X207390825Y-84077901D01*
X207265641Y-83815080D01*
X207091588Y-83581731D01*
X206875355Y-83386822D01*
X206758466Y-83317195D01*
X206940632Y-83195475D01*
X207147475Y-82988632D01*
X207309990Y-82745411D01*
X207421932Y-82475158D01*
X207479000Y-82188260D01*
X207479000Y-81895740D01*
X207421932Y-81608842D01*
X207309990Y-81338589D01*
X207147475Y-81095368D01*
X206940632Y-80888525D01*
X206697411Y-80726010D01*
X206538048Y-80660000D01*
X214967721Y-80660000D01*
X215065424Y-80669580D01*
X215128356Y-80688580D01*
X215186405Y-80719445D01*
X215237343Y-80760989D01*
X215279248Y-80811644D01*
X215310515Y-80869471D01*
X215329956Y-80932272D01*
X215340000Y-81027835D01*
X215340001Y-101967711D01*
X215330420Y-102065424D01*
X215311420Y-102128357D01*
X215280554Y-102186406D01*
X215239011Y-102237343D01*
X215188356Y-102279248D01*
X215130529Y-102310515D01*
X215067728Y-102329956D01*
X214972165Y-102340000D01*
X168479642Y-102340000D01*
X168581178Y-102227355D01*
X168730157Y-101977252D01*
X168827481Y-101702891D01*
X168749609Y-101554531D01*
X207235074Y-101554531D01*
X207345921Y-101831714D01*
X207656840Y-101985089D01*
X207991705Y-102074860D01*
X208337650Y-102097576D01*
X208681380Y-102052366D01*
X209009685Y-101940966D01*
X209214079Y-101831714D01*
X209324926Y-101554531D01*
X212315074Y-101554531D01*
X212425921Y-101831714D01*
X212736840Y-101985089D01*
X213071705Y-102074860D01*
X213417650Y-102097576D01*
X213761380Y-102052366D01*
X214089685Y-101940966D01*
X214294079Y-101831714D01*
X214404926Y-101554531D01*
X213360000Y-100509605D01*
X212315074Y-101554531D01*
X209324926Y-101554531D01*
X208280000Y-100509605D01*
X207235074Y-101554531D01*
X168749609Y-101554531D01*
X168706814Y-101473000D01*
X167513000Y-101473000D01*
X167513000Y-101493000D01*
X167259000Y-101493000D01*
X167259000Y-101473000D01*
X167239000Y-101473000D01*
X167239000Y-101219000D01*
X167259000Y-101219000D01*
X167259000Y-100025845D01*
X167513000Y-100025845D01*
X167513000Y-101219000D01*
X168706814Y-101219000D01*
X168827481Y-100989109D01*
X168730157Y-100714748D01*
X168581178Y-100464645D01*
X168511776Y-100387650D01*
X206512424Y-100387650D01*
X206557634Y-100731380D01*
X206669034Y-101059685D01*
X206778286Y-101264079D01*
X207055469Y-101374926D01*
X208100395Y-100330000D01*
X208459605Y-100330000D01*
X209504531Y-101374926D01*
X209781714Y-101264079D01*
X209935089Y-100953160D01*
X210024860Y-100618295D01*
X210040004Y-100387650D01*
X211592424Y-100387650D01*
X211637634Y-100731380D01*
X211749034Y-101059685D01*
X211858286Y-101264079D01*
X212135469Y-101374926D01*
X213180395Y-100330000D01*
X213539605Y-100330000D01*
X214584531Y-101374926D01*
X214861714Y-101264079D01*
X215015089Y-100953160D01*
X215104860Y-100618295D01*
X215127576Y-100272350D01*
X215082366Y-99928620D01*
X214970966Y-99600315D01*
X214861714Y-99395921D01*
X214584531Y-99285074D01*
X213539605Y-100330000D01*
X213180395Y-100330000D01*
X212135469Y-99285074D01*
X211858286Y-99395921D01*
X211704911Y-99706840D01*
X211615140Y-100041705D01*
X211592424Y-100387650D01*
X210040004Y-100387650D01*
X210047576Y-100272350D01*
X210002366Y-99928620D01*
X209890966Y-99600315D01*
X209781714Y-99395921D01*
X209504531Y-99285074D01*
X208459605Y-100330000D01*
X208100395Y-100330000D01*
X207055469Y-99285074D01*
X206778286Y-99395921D01*
X206624911Y-99706840D01*
X206535140Y-100041705D01*
X206512424Y-100387650D01*
X168511776Y-100387650D01*
X168386269Y-100248412D01*
X168152920Y-100074359D01*
X167890099Y-99949175D01*
X167742890Y-99904524D01*
X167513000Y-100025845D01*
X167259000Y-100025845D01*
X167029110Y-99904524D01*
X166881901Y-99949175D01*
X166619080Y-100074359D01*
X166385731Y-100248412D01*
X166190822Y-100464645D01*
X166121195Y-100581534D01*
X165999475Y-100399368D01*
X165992704Y-100392597D01*
X167279832Y-99105469D01*
X207235074Y-99105469D01*
X208280000Y-100150395D01*
X209324926Y-99105469D01*
X209214079Y-98828286D01*
X208903160Y-98674911D01*
X208568295Y-98585140D01*
X208222350Y-98562424D01*
X207878620Y-98607634D01*
X207550315Y-98719034D01*
X207345921Y-98828286D01*
X207235074Y-99105469D01*
X167279832Y-99105469D01*
X168758797Y-97626504D01*
X209160000Y-97626504D01*
X209160000Y-97953496D01*
X209223793Y-98274204D01*
X209348927Y-98576305D01*
X209530594Y-98848188D01*
X209761812Y-99079406D01*
X210033695Y-99261073D01*
X210335796Y-99386207D01*
X210656504Y-99450000D01*
X210983496Y-99450000D01*
X211304204Y-99386207D01*
X211606305Y-99261073D01*
X211839182Y-99105469D01*
X212315074Y-99105469D01*
X213360000Y-100150395D01*
X214404926Y-99105469D01*
X214294079Y-98828286D01*
X213983160Y-98674911D01*
X213648295Y-98585140D01*
X213302350Y-98562424D01*
X212958620Y-98607634D01*
X212630315Y-98719034D01*
X212425921Y-98828286D01*
X212315074Y-99105469D01*
X211839182Y-99105469D01*
X211878188Y-99079406D01*
X212109406Y-98848188D01*
X212291073Y-98576305D01*
X212416207Y-98274204D01*
X212480000Y-97953496D01*
X212480000Y-97626504D01*
X212416207Y-97305796D01*
X212291073Y-97003695D01*
X212109406Y-96731812D01*
X211878188Y-96500594D01*
X211839183Y-96474531D01*
X212315074Y-96474531D01*
X212425921Y-96751714D01*
X212736840Y-96905089D01*
X213071705Y-96994860D01*
X213417650Y-97017576D01*
X213761380Y-96972366D01*
X214089685Y-96860966D01*
X214294079Y-96751714D01*
X214404926Y-96474531D01*
X213360000Y-95429605D01*
X212315074Y-96474531D01*
X211839183Y-96474531D01*
X211606305Y-96318927D01*
X211304204Y-96193793D01*
X210983496Y-96130000D01*
X210656504Y-96130000D01*
X210335796Y-96193793D01*
X210033695Y-96318927D01*
X209761812Y-96500594D01*
X209530594Y-96731812D01*
X209348927Y-97003695D01*
X209223793Y-97305796D01*
X209160000Y-97626504D01*
X168758797Y-97626504D01*
X169065104Y-97320198D01*
X169094101Y-97296401D01*
X169189074Y-97180676D01*
X169259646Y-97048647D01*
X169303103Y-96905386D01*
X169314100Y-96793733D01*
X169314100Y-96793724D01*
X169317776Y-96756401D01*
X169314100Y-96719078D01*
X169314100Y-96474531D01*
X207235074Y-96474531D01*
X207345921Y-96751714D01*
X207656840Y-96905089D01*
X207991705Y-96994860D01*
X208337650Y-97017576D01*
X208681380Y-96972366D01*
X209009685Y-96860966D01*
X209214079Y-96751714D01*
X209324926Y-96474531D01*
X208280000Y-95429605D01*
X207235074Y-96474531D01*
X169314100Y-96474531D01*
X169314100Y-95307650D01*
X206512424Y-95307650D01*
X206557634Y-95651380D01*
X206669034Y-95979685D01*
X206778286Y-96184079D01*
X207055469Y-96294926D01*
X208100395Y-95250000D01*
X208459605Y-95250000D01*
X209504531Y-96294926D01*
X209781714Y-96184079D01*
X209935089Y-95873160D01*
X210024860Y-95538295D01*
X210040004Y-95307650D01*
X211592424Y-95307650D01*
X211637634Y-95651380D01*
X211749034Y-95979685D01*
X211858286Y-96184079D01*
X212135469Y-96294926D01*
X213180395Y-95250000D01*
X213539605Y-95250000D01*
X214584531Y-96294926D01*
X214861714Y-96184079D01*
X215015089Y-95873160D01*
X215104860Y-95538295D01*
X215127576Y-95192350D01*
X215082366Y-94848620D01*
X214970966Y-94520315D01*
X214861714Y-94315921D01*
X214584531Y-94205074D01*
X213539605Y-95250000D01*
X213180395Y-95250000D01*
X212135469Y-94205074D01*
X211858286Y-94315921D01*
X211704911Y-94626840D01*
X211615140Y-94961705D01*
X211592424Y-95307650D01*
X210040004Y-95307650D01*
X210047576Y-95192350D01*
X210002366Y-94848620D01*
X209890966Y-94520315D01*
X209781714Y-94315921D01*
X209504531Y-94205074D01*
X208459605Y-95250000D01*
X208100395Y-95250000D01*
X207055469Y-94205074D01*
X206778286Y-94315921D01*
X206624911Y-94626840D01*
X206535140Y-94961705D01*
X206512424Y-95307650D01*
X169314100Y-95307650D01*
X169314100Y-94025469D01*
X207235074Y-94025469D01*
X208280000Y-95070395D01*
X209324926Y-94025469D01*
X212315074Y-94025469D01*
X213360000Y-95070395D01*
X214404926Y-94025469D01*
X214294079Y-93748286D01*
X213983160Y-93594911D01*
X213648295Y-93505140D01*
X213302350Y-93482424D01*
X212958620Y-93527634D01*
X212630315Y-93639034D01*
X212425921Y-93748286D01*
X212315074Y-94025469D01*
X209324926Y-94025469D01*
X209214079Y-93748286D01*
X208903160Y-93594911D01*
X208568295Y-93505140D01*
X208222350Y-93482424D01*
X207878620Y-93527634D01*
X207550315Y-93639034D01*
X207345921Y-93748286D01*
X207235074Y-94025469D01*
X169314100Y-94025469D01*
X169314100Y-92760111D01*
X169358037Y-92716174D01*
X169471305Y-92546656D01*
X169549326Y-92358298D01*
X169575502Y-92226703D01*
X170745601Y-93396803D01*
X170769399Y-93425801D01*
X170885124Y-93520774D01*
X171017153Y-93591346D01*
X171160414Y-93634803D01*
X171272067Y-93645800D01*
X171272076Y-93645800D01*
X171309399Y-93649476D01*
X171346722Y-93645800D01*
X204351578Y-93645800D01*
X204388900Y-93649476D01*
X204426222Y-93645800D01*
X204426233Y-93645800D01*
X204537886Y-93634803D01*
X204681147Y-93591346D01*
X204753267Y-93552797D01*
X204789506Y-93582537D01*
X204899820Y-93641502D01*
X205019518Y-93677812D01*
X205144000Y-93690072D01*
X206844000Y-93690072D01*
X206968482Y-93677812D01*
X207088180Y-93641502D01*
X207198494Y-93582537D01*
X207295185Y-93503185D01*
X207374537Y-93406494D01*
X207433502Y-93296180D01*
X207469812Y-93176482D01*
X207482072Y-93052000D01*
X207482072Y-91352000D01*
X207469812Y-91227518D01*
X207433502Y-91107820D01*
X207374537Y-90997506D01*
X207295185Y-90900815D01*
X207198494Y-90821463D01*
X207088180Y-90762498D01*
X207015620Y-90740487D01*
X207147475Y-90608632D01*
X207309990Y-90365411D01*
X207421932Y-90095158D01*
X207479000Y-89808260D01*
X207479000Y-89515740D01*
X207421932Y-89228842D01*
X207309990Y-88958589D01*
X207147475Y-88715368D01*
X206940632Y-88508525D01*
X206766240Y-88392000D01*
X206940632Y-88275475D01*
X207147475Y-88068632D01*
X207309990Y-87825411D01*
X207421932Y-87555158D01*
X207479000Y-87268260D01*
X207479000Y-86975740D01*
X207421932Y-86688842D01*
X207309990Y-86418589D01*
X207147475Y-86175368D01*
X206940632Y-85968525D01*
X206758466Y-85846805D01*
X206875355Y-85777178D01*
X207091588Y-85582269D01*
X207265641Y-85348920D01*
X207390825Y-85086099D01*
X207435476Y-84938890D01*
X207314155Y-84709000D01*
X206121000Y-84709000D01*
X206121000Y-84729000D01*
X205867000Y-84729000D01*
X205867000Y-84709000D01*
X204673845Y-84709000D01*
X204552524Y-84938890D01*
X204597175Y-85086099D01*
X204722359Y-85348920D01*
X204896412Y-85582269D01*
X205112645Y-85777178D01*
X205229534Y-85846805D01*
X205047368Y-85968525D01*
X204840525Y-86175368D01*
X204678010Y-86418589D01*
X204566068Y-86688842D01*
X204509000Y-86975740D01*
X204509000Y-87268260D01*
X204566068Y-87555158D01*
X204678010Y-87825411D01*
X204840525Y-88068632D01*
X205047368Y-88275475D01*
X205221760Y-88392000D01*
X205047368Y-88508525D01*
X204840525Y-88715368D01*
X204678010Y-88958589D01*
X204566068Y-89228842D01*
X204509000Y-89515740D01*
X204509000Y-89808260D01*
X204566068Y-90095158D01*
X204678010Y-90365411D01*
X204840525Y-90608632D01*
X204972380Y-90740487D01*
X204899820Y-90762498D01*
X204789506Y-90821463D01*
X204692815Y-90900815D01*
X204613463Y-90997506D01*
X204554498Y-91107820D01*
X204518188Y-91227518D01*
X204505928Y-91352000D01*
X204505928Y-91761425D01*
X204394423Y-91821026D01*
X204368376Y-91842403D01*
X204278699Y-91915999D01*
X204254896Y-91945003D01*
X204074099Y-92125800D01*
X178484600Y-92125800D01*
X178484600Y-92058561D01*
X178444826Y-91858602D01*
X178366805Y-91670244D01*
X178253537Y-91500726D01*
X178109374Y-91356563D01*
X177939856Y-91243295D01*
X177751498Y-91165274D01*
X177551539Y-91125500D01*
X177489402Y-91125500D01*
X176713104Y-90349203D01*
X176689301Y-90320199D01*
X176573576Y-90225226D01*
X176441547Y-90154654D01*
X176298286Y-90111197D01*
X176186633Y-90100200D01*
X176186622Y-90100200D01*
X176149300Y-90096524D01*
X176111978Y-90100200D01*
X168039325Y-90100200D01*
X168002000Y-90096524D01*
X167964675Y-90100200D01*
X167964667Y-90100200D01*
X167853014Y-90111197D01*
X167709753Y-90154654D01*
X167577724Y-90225226D01*
X167461999Y-90320199D01*
X167438196Y-90349203D01*
X167433799Y-90353600D01*
X166272092Y-90353600D01*
X166273932Y-90349158D01*
X166331000Y-90062260D01*
X166331000Y-89769740D01*
X166273932Y-89482842D01*
X166219073Y-89350400D01*
X191568478Y-89350400D01*
X191605800Y-89354076D01*
X191643122Y-89350400D01*
X191643133Y-89350400D01*
X191754786Y-89339403D01*
X191898047Y-89295946D01*
X192030076Y-89225374D01*
X192145801Y-89130401D01*
X192169604Y-89101397D01*
X195123602Y-86147400D01*
X195185739Y-86147400D01*
X195385698Y-86107626D01*
X195574056Y-86029605D01*
X195743574Y-85916337D01*
X195887737Y-85772174D01*
X196001005Y-85602656D01*
X196079026Y-85414298D01*
X196118800Y-85214339D01*
X196118800Y-85010461D01*
X196079026Y-84810502D01*
X196001005Y-84622144D01*
X195887737Y-84452626D01*
X195743574Y-84308463D01*
X195574056Y-84195195D01*
X195385698Y-84117174D01*
X195185739Y-84077400D01*
X194981861Y-84077400D01*
X194781902Y-84117174D01*
X194593544Y-84195195D01*
X194424026Y-84308463D01*
X194279863Y-84452626D01*
X194166595Y-84622144D01*
X194088574Y-84810502D01*
X194048800Y-85010461D01*
X194048800Y-85072598D01*
X191290999Y-87830400D01*
X166265133Y-87830400D01*
X166273932Y-87809158D01*
X166331000Y-87522260D01*
X166331000Y-87229740D01*
X166273932Y-86942842D01*
X166202919Y-86771400D01*
X180168178Y-86771400D01*
X180205500Y-86775076D01*
X180242822Y-86771400D01*
X180242833Y-86771400D01*
X180354486Y-86760403D01*
X180438889Y-86734800D01*
X180619039Y-86734800D01*
X180818998Y-86695026D01*
X181007356Y-86617005D01*
X181176874Y-86503737D01*
X181321037Y-86359574D01*
X181434305Y-86190056D01*
X181512326Y-86001698D01*
X181552100Y-85801739D01*
X181552100Y-85597861D01*
X181512326Y-85397902D01*
X181434305Y-85209544D01*
X181321037Y-85040026D01*
X181176874Y-84895863D01*
X181007356Y-84782595D01*
X180818998Y-84704574D01*
X180619039Y-84664800D01*
X180415161Y-84664800D01*
X180215202Y-84704574D01*
X180026844Y-84782595D01*
X179857326Y-84895863D01*
X179713163Y-85040026D01*
X179599895Y-85209544D01*
X179582558Y-85251400D01*
X166334072Y-85251400D01*
X166334072Y-83986000D01*
X166321812Y-83861518D01*
X166285502Y-83741820D01*
X166226537Y-83631506D01*
X166147185Y-83534815D01*
X166050494Y-83455463D01*
X165940180Y-83396498D01*
X165820482Y-83360188D01*
X165696000Y-83347928D01*
X163996000Y-83347928D01*
X163871518Y-83360188D01*
X163751820Y-83396498D01*
X163641506Y-83455463D01*
X163544815Y-83534815D01*
X163465463Y-83631506D01*
X163406498Y-83741820D01*
X163384487Y-83814380D01*
X163252632Y-83682525D01*
X163009411Y-83520010D01*
X162739158Y-83408068D01*
X162452260Y-83351000D01*
X162159740Y-83351000D01*
X161872842Y-83408068D01*
X161602589Y-83520010D01*
X161359368Y-83682525D01*
X161152525Y-83889368D01*
X160990010Y-84132589D01*
X160878068Y-84402842D01*
X160821000Y-84689740D01*
X160821000Y-84982260D01*
X160878068Y-85269158D01*
X160990010Y-85539411D01*
X161152525Y-85782632D01*
X161359368Y-85989475D01*
X161533760Y-86106000D01*
X161359368Y-86222525D01*
X161152525Y-86429368D01*
X160990010Y-86672589D01*
X160878068Y-86942842D01*
X160821000Y-87229740D01*
X160821000Y-87522260D01*
X160878068Y-87809158D01*
X160990010Y-88079411D01*
X161152525Y-88322632D01*
X161359368Y-88529475D01*
X161533760Y-88646000D01*
X161359368Y-88762525D01*
X161152525Y-88969368D01*
X160990010Y-89212589D01*
X160878068Y-89482842D01*
X160821000Y-89769740D01*
X160821000Y-90062260D01*
X160878068Y-90349158D01*
X160990010Y-90619411D01*
X161152525Y-90862632D01*
X161359368Y-91069475D01*
X161533760Y-91186000D01*
X161359368Y-91302525D01*
X161152525Y-91509368D01*
X160990010Y-91752589D01*
X160878068Y-92022842D01*
X160821000Y-92309740D01*
X160821000Y-92602260D01*
X160878068Y-92889158D01*
X160990010Y-93159411D01*
X161152525Y-93402632D01*
X161359368Y-93609475D01*
X161541534Y-93731195D01*
X161424645Y-93800822D01*
X161208412Y-93995731D01*
X161034359Y-94229080D01*
X160909175Y-94491901D01*
X160864524Y-94639110D01*
X160985845Y-94869000D01*
X162179000Y-94869000D01*
X162179000Y-94849000D01*
X162433000Y-94849000D01*
X162433000Y-94869000D01*
X162453000Y-94869000D01*
X162453000Y-95123000D01*
X162433000Y-95123000D01*
X162433000Y-96316814D01*
X162662891Y-96437481D01*
X162937252Y-96340157D01*
X163187355Y-96191178D01*
X163403588Y-95996269D01*
X163574900Y-95766594D01*
X163692525Y-95942632D01*
X163899368Y-96149475D01*
X164142589Y-96311990D01*
X164412842Y-96423932D01*
X164699740Y-96481000D01*
X164992260Y-96481000D01*
X165279158Y-96423932D01*
X165549411Y-96311990D01*
X165792632Y-96149475D01*
X165999475Y-95942632D01*
X166161990Y-95699411D01*
X166273932Y-95429158D01*
X166331000Y-95142260D01*
X166331000Y-94849740D01*
X166273932Y-94562842D01*
X166222977Y-94439825D01*
X167516003Y-93146799D01*
X167545001Y-93123001D01*
X167568802Y-93093999D01*
X167794101Y-92868700D01*
X167794100Y-96441598D01*
X166334072Y-97901626D01*
X166334072Y-97448000D01*
X166321812Y-97323518D01*
X166285502Y-97203820D01*
X166226537Y-97093506D01*
X166147185Y-96996815D01*
X166050494Y-96917463D01*
X165940180Y-96858498D01*
X165820482Y-96822188D01*
X165696000Y-96809928D01*
X163996000Y-96809928D01*
X163871518Y-96822188D01*
X163751820Y-96858498D01*
X163641506Y-96917463D01*
X163544815Y-96996815D01*
X163465463Y-97093506D01*
X163406498Y-97203820D01*
X163384487Y-97276380D01*
X163252632Y-97144525D01*
X163009411Y-96982010D01*
X162739158Y-96870068D01*
X162452260Y-96813000D01*
X162159740Y-96813000D01*
X161872842Y-96870068D01*
X161602589Y-96982010D01*
X161359368Y-97144525D01*
X161152525Y-97351368D01*
X160990010Y-97594589D01*
X160878068Y-97864842D01*
X160821000Y-98151740D01*
X160821000Y-98444260D01*
X160878068Y-98731158D01*
X160990010Y-99001411D01*
X161152525Y-99244632D01*
X161359368Y-99451475D01*
X161546000Y-99576179D01*
X161546001Y-99857928D01*
X161456000Y-99857928D01*
X161331518Y-99870188D01*
X161211820Y-99906498D01*
X161101506Y-99965463D01*
X161004815Y-100044815D01*
X160925463Y-100141506D01*
X160866498Y-100251820D01*
X160830188Y-100371518D01*
X160817928Y-100496000D01*
X160817928Y-102196000D01*
X160830188Y-102320482D01*
X160836109Y-102340000D01*
X137032279Y-102340000D01*
X136934576Y-102330420D01*
X136871643Y-102311420D01*
X136813594Y-102280554D01*
X136762657Y-102239011D01*
X136720752Y-102188356D01*
X136689485Y-102130529D01*
X136670044Y-102067728D01*
X136660000Y-101972165D01*
X136660000Y-97839874D01*
X137230881Y-97839874D01*
X137310724Y-98062976D01*
X137432631Y-98250764D01*
X137588831Y-98411161D01*
X137773322Y-98538003D01*
X137979013Y-98626415D01*
X138198000Y-98673000D01*
X138498000Y-98673000D01*
X138498000Y-97665000D01*
X138752000Y-97665000D01*
X138752000Y-98673000D01*
X139052000Y-98673000D01*
X139270987Y-98626415D01*
X139476678Y-98538003D01*
X139661169Y-98411161D01*
X139817369Y-98250764D01*
X139939276Y-98062976D01*
X140019119Y-97839874D01*
X141160881Y-97839874D01*
X141240724Y-98062976D01*
X141362631Y-98250764D01*
X141518831Y-98411161D01*
X141703322Y-98538003D01*
X141909013Y-98626415D01*
X142128000Y-98673000D01*
X142678000Y-98673000D01*
X142678000Y-97665000D01*
X142932000Y-97665000D01*
X142932000Y-98673000D01*
X143482000Y-98673000D01*
X143700987Y-98626415D01*
X143906678Y-98538003D01*
X144091169Y-98411161D01*
X144247369Y-98250764D01*
X144369276Y-98062976D01*
X144449119Y-97839874D01*
X144322954Y-97665000D01*
X142932000Y-97665000D01*
X142678000Y-97665000D01*
X141287046Y-97665000D01*
X141160881Y-97839874D01*
X140019119Y-97839874D01*
X139892954Y-97665000D01*
X138752000Y-97665000D01*
X138498000Y-97665000D01*
X137357046Y-97665000D01*
X137230881Y-97839874D01*
X136660000Y-97839874D01*
X136660000Y-97236126D01*
X137230881Y-97236126D01*
X137357046Y-97411000D01*
X138498000Y-97411000D01*
X138498000Y-96403000D01*
X138752000Y-96403000D01*
X138752000Y-97411000D01*
X139892954Y-97411000D01*
X140019119Y-97236126D01*
X141160881Y-97236126D01*
X141287046Y-97411000D01*
X142678000Y-97411000D01*
X142678000Y-97391000D01*
X142932000Y-97391000D01*
X142932000Y-97411000D01*
X144322954Y-97411000D01*
X144449119Y-97236126D01*
X144369276Y-97013024D01*
X144247369Y-96825236D01*
X144091169Y-96664839D01*
X143906678Y-96537997D01*
X143700987Y-96449585D01*
X143482000Y-96403000D01*
X143221904Y-96403000D01*
X143228108Y-96388022D01*
X143265000Y-96202552D01*
X143265000Y-96013448D01*
X143228108Y-95827978D01*
X143155741Y-95653269D01*
X143050681Y-95496036D01*
X142916964Y-95362319D01*
X142902853Y-95352890D01*
X160864524Y-95352890D01*
X160909175Y-95500099D01*
X161034359Y-95762920D01*
X161208412Y-95996269D01*
X161424645Y-96191178D01*
X161674748Y-96340157D01*
X161949109Y-96437481D01*
X162179000Y-96316814D01*
X162179000Y-95123000D01*
X160985845Y-95123000D01*
X160864524Y-95352890D01*
X142902853Y-95352890D01*
X142759731Y-95257259D01*
X142585022Y-95184892D01*
X142399552Y-95148000D01*
X142210448Y-95148000D01*
X142024978Y-95184892D01*
X141850269Y-95257259D01*
X141693036Y-95362319D01*
X141559319Y-95496036D01*
X141454259Y-95653269D01*
X141381892Y-95827978D01*
X141345000Y-96013448D01*
X141345000Y-96202552D01*
X141381892Y-96388022D01*
X141454259Y-96562731D01*
X141521335Y-96663117D01*
X141518831Y-96664839D01*
X141362631Y-96825236D01*
X141240724Y-97013024D01*
X141160881Y-97236126D01*
X140019119Y-97236126D01*
X139939276Y-97013024D01*
X139817369Y-96825236D01*
X139661169Y-96664839D01*
X139476678Y-96537997D01*
X139270987Y-96449585D01*
X139052000Y-96403000D01*
X138752000Y-96403000D01*
X138498000Y-96403000D01*
X138198000Y-96403000D01*
X137979013Y-96449585D01*
X137773322Y-96537997D01*
X137588831Y-96664839D01*
X137432631Y-96825236D01*
X137310724Y-97013024D01*
X137230881Y-97236126D01*
X136660000Y-97236126D01*
X136660000Y-89199874D01*
X137230881Y-89199874D01*
X137310724Y-89422976D01*
X137432631Y-89610764D01*
X137588831Y-89771161D01*
X137773322Y-89898003D01*
X137979013Y-89986415D01*
X138198000Y-90033000D01*
X138498000Y-90033000D01*
X138498000Y-89025000D01*
X138752000Y-89025000D01*
X138752000Y-90033000D01*
X139052000Y-90033000D01*
X139270987Y-89986415D01*
X139476678Y-89898003D01*
X139661169Y-89771161D01*
X139817369Y-89610764D01*
X139939276Y-89422976D01*
X140019119Y-89199874D01*
X141160881Y-89199874D01*
X141240724Y-89422976D01*
X141362631Y-89610764D01*
X141518831Y-89771161D01*
X141521335Y-89772883D01*
X141454259Y-89873269D01*
X141381892Y-90047978D01*
X141345000Y-90233448D01*
X141345000Y-90422552D01*
X141381892Y-90608022D01*
X141454259Y-90782731D01*
X141559319Y-90939964D01*
X141693036Y-91073681D01*
X141850269Y-91178741D01*
X142024978Y-91251108D01*
X142210448Y-91288000D01*
X142399552Y-91288000D01*
X142585022Y-91251108D01*
X142759731Y-91178741D01*
X142916964Y-91073681D01*
X143050681Y-90939964D01*
X143155741Y-90782731D01*
X143228108Y-90608022D01*
X143265000Y-90422552D01*
X143265000Y-90233448D01*
X143228108Y-90047978D01*
X143221904Y-90033000D01*
X143482000Y-90033000D01*
X143700987Y-89986415D01*
X143906678Y-89898003D01*
X144091169Y-89771161D01*
X144247369Y-89610764D01*
X144369276Y-89422976D01*
X144449119Y-89199874D01*
X144322954Y-89025000D01*
X142932000Y-89025000D01*
X142932000Y-89045000D01*
X142678000Y-89045000D01*
X142678000Y-89025000D01*
X141287046Y-89025000D01*
X141160881Y-89199874D01*
X140019119Y-89199874D01*
X139892954Y-89025000D01*
X138752000Y-89025000D01*
X138498000Y-89025000D01*
X137357046Y-89025000D01*
X137230881Y-89199874D01*
X136660000Y-89199874D01*
X136660000Y-88596126D01*
X137230881Y-88596126D01*
X137357046Y-88771000D01*
X138498000Y-88771000D01*
X138498000Y-87763000D01*
X138752000Y-87763000D01*
X138752000Y-88771000D01*
X139892954Y-88771000D01*
X140019119Y-88596126D01*
X141160881Y-88596126D01*
X141287046Y-88771000D01*
X142678000Y-88771000D01*
X142678000Y-87763000D01*
X142932000Y-87763000D01*
X142932000Y-88771000D01*
X144322954Y-88771000D01*
X144449119Y-88596126D01*
X144369276Y-88373024D01*
X144247369Y-88185236D01*
X144091169Y-88024839D01*
X143906678Y-87897997D01*
X143700987Y-87809585D01*
X143482000Y-87763000D01*
X142932000Y-87763000D01*
X142678000Y-87763000D01*
X142128000Y-87763000D01*
X141909013Y-87809585D01*
X141703322Y-87897997D01*
X141518831Y-88024839D01*
X141362631Y-88185236D01*
X141240724Y-88373024D01*
X141160881Y-88596126D01*
X140019119Y-88596126D01*
X139939276Y-88373024D01*
X139817369Y-88185236D01*
X139661169Y-88024839D01*
X139476678Y-87897997D01*
X139270987Y-87809585D01*
X139052000Y-87763000D01*
X138752000Y-87763000D01*
X138498000Y-87763000D01*
X138198000Y-87763000D01*
X137979013Y-87809585D01*
X137773322Y-87897997D01*
X137588831Y-88024839D01*
X137432631Y-88185236D01*
X137310724Y-88373024D01*
X137230881Y-88596126D01*
X136660000Y-88596126D01*
X136660000Y-81032279D01*
X136669580Y-80934576D01*
X136688580Y-80871644D01*
X136719445Y-80813595D01*
X136760989Y-80762657D01*
X136811644Y-80720752D01*
X136869471Y-80689485D01*
X136932272Y-80670044D01*
X137027835Y-80660000D01*
X205449952Y-80660000D01*
X205290589Y-80726010D01*
%TA.AperFunction,Conductor*%
D20*
G36*
X205290589Y-80726010D02*
G01*
X205047368Y-80888525D01*
X204840525Y-81095368D01*
X204678010Y-81338589D01*
X204566068Y-81608842D01*
X204509000Y-81895740D01*
X204509000Y-82188260D01*
X204566068Y-82475158D01*
X204678010Y-82745411D01*
X204840525Y-82988632D01*
X205047368Y-83195475D01*
X205229534Y-83317195D01*
X205112645Y-83386822D01*
X204896412Y-83581731D01*
X204722359Y-83815080D01*
X204597175Y-84077901D01*
X204552524Y-84225110D01*
X204673845Y-84455000D01*
X205867000Y-84455000D01*
X205867000Y-84435000D01*
X206121000Y-84435000D01*
X206121000Y-84455000D01*
X207314155Y-84455000D01*
X207435476Y-84225110D01*
X207390825Y-84077901D01*
X207265641Y-83815080D01*
X207091588Y-83581731D01*
X206875355Y-83386822D01*
X206758466Y-83317195D01*
X206940632Y-83195475D01*
X207147475Y-82988632D01*
X207309990Y-82745411D01*
X207421932Y-82475158D01*
X207479000Y-82188260D01*
X207479000Y-81895740D01*
X207421932Y-81608842D01*
X207309990Y-81338589D01*
X207147475Y-81095368D01*
X206940632Y-80888525D01*
X206697411Y-80726010D01*
X206538048Y-80660000D01*
X214967721Y-80660000D01*
X215065424Y-80669580D01*
X215128356Y-80688580D01*
X215186405Y-80719445D01*
X215237343Y-80760989D01*
X215279248Y-80811644D01*
X215310515Y-80869471D01*
X215329956Y-80932272D01*
X215340000Y-81027835D01*
X215340001Y-101967711D01*
X215330420Y-102065424D01*
X215311420Y-102128357D01*
X215280554Y-102186406D01*
X215239011Y-102237343D01*
X215188356Y-102279248D01*
X215130529Y-102310515D01*
X215067728Y-102329956D01*
X214972165Y-102340000D01*
X168479642Y-102340000D01*
X168581178Y-102227355D01*
X168730157Y-101977252D01*
X168827481Y-101702891D01*
X168749609Y-101554531D01*
X207235074Y-101554531D01*
X207345921Y-101831714D01*
X207656840Y-101985089D01*
X207991705Y-102074860D01*
X208337650Y-102097576D01*
X208681380Y-102052366D01*
X209009685Y-101940966D01*
X209214079Y-101831714D01*
X209324926Y-101554531D01*
X212315074Y-101554531D01*
X212425921Y-101831714D01*
X212736840Y-101985089D01*
X213071705Y-102074860D01*
X213417650Y-102097576D01*
X213761380Y-102052366D01*
X214089685Y-101940966D01*
X214294079Y-101831714D01*
X214404926Y-101554531D01*
X213360000Y-100509605D01*
X212315074Y-101554531D01*
X209324926Y-101554531D01*
X208280000Y-100509605D01*
X207235074Y-101554531D01*
X168749609Y-101554531D01*
X168706814Y-101473000D01*
X167513000Y-101473000D01*
X167513000Y-101493000D01*
X167259000Y-101493000D01*
X167259000Y-101473000D01*
X167239000Y-101473000D01*
X167239000Y-101219000D01*
X167259000Y-101219000D01*
X167259000Y-100025845D01*
X167513000Y-100025845D01*
X167513000Y-101219000D01*
X168706814Y-101219000D01*
X168827481Y-100989109D01*
X168730157Y-100714748D01*
X168581178Y-100464645D01*
X168511776Y-100387650D01*
X206512424Y-100387650D01*
X206557634Y-100731380D01*
X206669034Y-101059685D01*
X206778286Y-101264079D01*
X207055469Y-101374926D01*
X208100395Y-100330000D01*
X208459605Y-100330000D01*
X209504531Y-101374926D01*
X209781714Y-101264079D01*
X209935089Y-100953160D01*
X210024860Y-100618295D01*
X210040004Y-100387650D01*
X211592424Y-100387650D01*
X211637634Y-100731380D01*
X211749034Y-101059685D01*
X211858286Y-101264079D01*
X212135469Y-101374926D01*
X213180395Y-100330000D01*
X213539605Y-100330000D01*
X214584531Y-101374926D01*
X214861714Y-101264079D01*
X215015089Y-100953160D01*
X215104860Y-100618295D01*
X215127576Y-100272350D01*
X215082366Y-99928620D01*
X214970966Y-99600315D01*
X214861714Y-99395921D01*
X214584531Y-99285074D01*
X213539605Y-100330000D01*
X213180395Y-100330000D01*
X212135469Y-99285074D01*
X211858286Y-99395921D01*
X211704911Y-99706840D01*
X211615140Y-100041705D01*
X211592424Y-100387650D01*
X210040004Y-100387650D01*
X210047576Y-100272350D01*
X210002366Y-99928620D01*
X209890966Y-99600315D01*
X209781714Y-99395921D01*
X209504531Y-99285074D01*
X208459605Y-100330000D01*
X208100395Y-100330000D01*
X207055469Y-99285074D01*
X206778286Y-99395921D01*
X206624911Y-99706840D01*
X206535140Y-100041705D01*
X206512424Y-100387650D01*
X168511776Y-100387650D01*
X168386269Y-100248412D01*
X168152920Y-100074359D01*
X167890099Y-99949175D01*
X167742890Y-99904524D01*
X167513000Y-100025845D01*
X167259000Y-100025845D01*
X167029110Y-99904524D01*
X166881901Y-99949175D01*
X166619080Y-100074359D01*
X166385731Y-100248412D01*
X166190822Y-100464645D01*
X166121195Y-100581534D01*
X165999475Y-100399368D01*
X165992704Y-100392597D01*
X167279832Y-99105469D01*
X207235074Y-99105469D01*
X208280000Y-100150395D01*
X209324926Y-99105469D01*
X209214079Y-98828286D01*
X208903160Y-98674911D01*
X208568295Y-98585140D01*
X208222350Y-98562424D01*
X207878620Y-98607634D01*
X207550315Y-98719034D01*
X207345921Y-98828286D01*
X207235074Y-99105469D01*
X167279832Y-99105469D01*
X168758797Y-97626504D01*
X209160000Y-97626504D01*
X209160000Y-97953496D01*
X209223793Y-98274204D01*
X209348927Y-98576305D01*
X209530594Y-98848188D01*
X209761812Y-99079406D01*
X210033695Y-99261073D01*
X210335796Y-99386207D01*
X210656504Y-99450000D01*
X210983496Y-99450000D01*
X211304204Y-99386207D01*
X211606305Y-99261073D01*
X211839182Y-99105469D01*
X212315074Y-99105469D01*
X213360000Y-100150395D01*
X214404926Y-99105469D01*
X214294079Y-98828286D01*
X213983160Y-98674911D01*
X213648295Y-98585140D01*
X213302350Y-98562424D01*
X212958620Y-98607634D01*
X212630315Y-98719034D01*
X212425921Y-98828286D01*
X212315074Y-99105469D01*
X211839182Y-99105469D01*
X211878188Y-99079406D01*
X212109406Y-98848188D01*
X212291073Y-98576305D01*
X212416207Y-98274204D01*
X212480000Y-97953496D01*
X212480000Y-97626504D01*
X212416207Y-97305796D01*
X212291073Y-97003695D01*
X212109406Y-96731812D01*
X211878188Y-96500594D01*
X211839183Y-96474531D01*
X212315074Y-96474531D01*
X212425921Y-96751714D01*
X212736840Y-96905089D01*
X213071705Y-96994860D01*
X213417650Y-97017576D01*
X213761380Y-96972366D01*
X214089685Y-96860966D01*
X214294079Y-96751714D01*
X214404926Y-96474531D01*
X213360000Y-95429605D01*
X212315074Y-96474531D01*
X211839183Y-96474531D01*
X211606305Y-96318927D01*
X211304204Y-96193793D01*
X210983496Y-96130000D01*
X210656504Y-96130000D01*
X210335796Y-96193793D01*
X210033695Y-96318927D01*
X209761812Y-96500594D01*
X209530594Y-96731812D01*
X209348927Y-97003695D01*
X209223793Y-97305796D01*
X209160000Y-97626504D01*
X168758797Y-97626504D01*
X169065104Y-97320198D01*
X169094101Y-97296401D01*
X169189074Y-97180676D01*
X169259646Y-97048647D01*
X169303103Y-96905386D01*
X169314100Y-96793733D01*
X169314100Y-96793724D01*
X169317776Y-96756401D01*
X169314100Y-96719078D01*
X169314100Y-96474531D01*
X207235074Y-96474531D01*
X207345921Y-96751714D01*
X207656840Y-96905089D01*
X207991705Y-96994860D01*
X208337650Y-97017576D01*
X208681380Y-96972366D01*
X209009685Y-96860966D01*
X209214079Y-96751714D01*
X209324926Y-96474531D01*
X208280000Y-95429605D01*
X207235074Y-96474531D01*
X169314100Y-96474531D01*
X169314100Y-95307650D01*
X206512424Y-95307650D01*
X206557634Y-95651380D01*
X206669034Y-95979685D01*
X206778286Y-96184079D01*
X207055469Y-96294926D01*
X208100395Y-95250000D01*
X208459605Y-95250000D01*
X209504531Y-96294926D01*
X209781714Y-96184079D01*
X209935089Y-95873160D01*
X210024860Y-95538295D01*
X210040004Y-95307650D01*
X211592424Y-95307650D01*
X211637634Y-95651380D01*
X211749034Y-95979685D01*
X211858286Y-96184079D01*
X212135469Y-96294926D01*
X213180395Y-95250000D01*
X213539605Y-95250000D01*
X214584531Y-96294926D01*
X214861714Y-96184079D01*
X215015089Y-95873160D01*
X215104860Y-95538295D01*
X215127576Y-95192350D01*
X215082366Y-94848620D01*
X214970966Y-94520315D01*
X214861714Y-94315921D01*
X214584531Y-94205074D01*
X213539605Y-95250000D01*
X213180395Y-95250000D01*
X212135469Y-94205074D01*
X211858286Y-94315921D01*
X211704911Y-94626840D01*
X211615140Y-94961705D01*
X211592424Y-95307650D01*
X210040004Y-95307650D01*
X210047576Y-95192350D01*
X210002366Y-94848620D01*
X209890966Y-94520315D01*
X209781714Y-94315921D01*
X209504531Y-94205074D01*
X208459605Y-95250000D01*
X208100395Y-95250000D01*
X207055469Y-94205074D01*
X206778286Y-94315921D01*
X206624911Y-94626840D01*
X206535140Y-94961705D01*
X206512424Y-95307650D01*
X169314100Y-95307650D01*
X169314100Y-94025469D01*
X207235074Y-94025469D01*
X208280000Y-95070395D01*
X209324926Y-94025469D01*
X212315074Y-94025469D01*
X213360000Y-95070395D01*
X214404926Y-94025469D01*
X214294079Y-93748286D01*
X213983160Y-93594911D01*
X213648295Y-93505140D01*
X213302350Y-93482424D01*
X212958620Y-93527634D01*
X212630315Y-93639034D01*
X212425921Y-93748286D01*
X212315074Y-94025469D01*
X209324926Y-94025469D01*
X209214079Y-93748286D01*
X208903160Y-93594911D01*
X208568295Y-93505140D01*
X208222350Y-93482424D01*
X207878620Y-93527634D01*
X207550315Y-93639034D01*
X207345921Y-93748286D01*
X207235074Y-94025469D01*
X169314100Y-94025469D01*
X169314100Y-92760111D01*
X169358037Y-92716174D01*
X169471305Y-92546656D01*
X169549326Y-92358298D01*
X169575502Y-92226703D01*
X170745601Y-93396803D01*
X170769399Y-93425801D01*
X170885124Y-93520774D01*
X171017153Y-93591346D01*
X171160414Y-93634803D01*
X171272067Y-93645800D01*
X171272076Y-93645800D01*
X171309399Y-93649476D01*
X171346722Y-93645800D01*
X204351578Y-93645800D01*
X204388900Y-93649476D01*
X204426222Y-93645800D01*
X204426233Y-93645800D01*
X204537886Y-93634803D01*
X204681147Y-93591346D01*
X204753267Y-93552797D01*
X204789506Y-93582537D01*
X204899820Y-93641502D01*
X205019518Y-93677812D01*
X205144000Y-93690072D01*
X206844000Y-93690072D01*
X206968482Y-93677812D01*
X207088180Y-93641502D01*
X207198494Y-93582537D01*
X207295185Y-93503185D01*
X207374537Y-93406494D01*
X207433502Y-93296180D01*
X207469812Y-93176482D01*
X207482072Y-93052000D01*
X207482072Y-91352000D01*
X207469812Y-91227518D01*
X207433502Y-91107820D01*
X207374537Y-90997506D01*
X207295185Y-90900815D01*
X207198494Y-90821463D01*
X207088180Y-90762498D01*
X207015620Y-90740487D01*
X207147475Y-90608632D01*
X207309990Y-90365411D01*
X207421932Y-90095158D01*
X207479000Y-89808260D01*
X207479000Y-89515740D01*
X207421932Y-89228842D01*
X207309990Y-88958589D01*
X207147475Y-88715368D01*
X206940632Y-88508525D01*
X206766240Y-88392000D01*
X206940632Y-88275475D01*
X207147475Y-88068632D01*
X207309990Y-87825411D01*
X207421932Y-87555158D01*
X207479000Y-87268260D01*
X207479000Y-86975740D01*
X207421932Y-86688842D01*
X207309990Y-86418589D01*
X207147475Y-86175368D01*
X206940632Y-85968525D01*
X206758466Y-85846805D01*
X206875355Y-85777178D01*
X207091588Y-85582269D01*
X207265641Y-85348920D01*
X207390825Y-85086099D01*
X207435476Y-84938890D01*
X207314155Y-84709000D01*
X206121000Y-84709000D01*
X206121000Y-84729000D01*
X205867000Y-84729000D01*
X205867000Y-84709000D01*
X204673845Y-84709000D01*
X204552524Y-84938890D01*
X204597175Y-85086099D01*
X204722359Y-85348920D01*
X204896412Y-85582269D01*
X205112645Y-85777178D01*
X205229534Y-85846805D01*
X205047368Y-85968525D01*
X204840525Y-86175368D01*
X204678010Y-86418589D01*
X204566068Y-86688842D01*
X204509000Y-86975740D01*
X204509000Y-87268260D01*
X204566068Y-87555158D01*
X204678010Y-87825411D01*
X204840525Y-88068632D01*
X205047368Y-88275475D01*
X205221760Y-88392000D01*
X205047368Y-88508525D01*
X204840525Y-88715368D01*
X204678010Y-88958589D01*
X204566068Y-89228842D01*
X204509000Y-89515740D01*
X204509000Y-89808260D01*
X204566068Y-90095158D01*
X204678010Y-90365411D01*
X204840525Y-90608632D01*
X204972380Y-90740487D01*
X204899820Y-90762498D01*
X204789506Y-90821463D01*
X204692815Y-90900815D01*
X204613463Y-90997506D01*
X204554498Y-91107820D01*
X204518188Y-91227518D01*
X204505928Y-91352000D01*
X204505928Y-91761425D01*
X204394423Y-91821026D01*
X204368376Y-91842403D01*
X204278699Y-91915999D01*
X204254896Y-91945003D01*
X204074099Y-92125800D01*
X178484600Y-92125800D01*
X178484600Y-92058561D01*
X178444826Y-91858602D01*
X178366805Y-91670244D01*
X178253537Y-91500726D01*
X178109374Y-91356563D01*
X177939856Y-91243295D01*
X177751498Y-91165274D01*
X177551539Y-91125500D01*
X177489402Y-91125500D01*
X176713104Y-90349203D01*
X176689301Y-90320199D01*
X176573576Y-90225226D01*
X176441547Y-90154654D01*
X176298286Y-90111197D01*
X176186633Y-90100200D01*
X176186622Y-90100200D01*
X176149300Y-90096524D01*
X176111978Y-90100200D01*
X168039325Y-90100200D01*
X168002000Y-90096524D01*
X167964675Y-90100200D01*
X167964667Y-90100200D01*
X167853014Y-90111197D01*
X167709753Y-90154654D01*
X167577724Y-90225226D01*
X167461999Y-90320199D01*
X167438196Y-90349203D01*
X167433799Y-90353600D01*
X166272092Y-90353600D01*
X166273932Y-90349158D01*
X166331000Y-90062260D01*
X166331000Y-89769740D01*
X166273932Y-89482842D01*
X166219073Y-89350400D01*
X191568478Y-89350400D01*
X191605800Y-89354076D01*
X191643122Y-89350400D01*
X191643133Y-89350400D01*
X191754786Y-89339403D01*
X191898047Y-89295946D01*
X192030076Y-89225374D01*
X192145801Y-89130401D01*
X192169604Y-89101397D01*
X195123602Y-86147400D01*
X195185739Y-86147400D01*
X195385698Y-86107626D01*
X195574056Y-86029605D01*
X195743574Y-85916337D01*
X195887737Y-85772174D01*
X196001005Y-85602656D01*
X196079026Y-85414298D01*
X196118800Y-85214339D01*
X196118800Y-85010461D01*
X196079026Y-84810502D01*
X196001005Y-84622144D01*
X195887737Y-84452626D01*
X195743574Y-84308463D01*
X195574056Y-84195195D01*
X195385698Y-84117174D01*
X195185739Y-84077400D01*
X194981861Y-84077400D01*
X194781902Y-84117174D01*
X194593544Y-84195195D01*
X194424026Y-84308463D01*
X194279863Y-84452626D01*
X194166595Y-84622144D01*
X194088574Y-84810502D01*
X194048800Y-85010461D01*
X194048800Y-85072598D01*
X191290999Y-87830400D01*
X166265133Y-87830400D01*
X166273932Y-87809158D01*
X166331000Y-87522260D01*
X166331000Y-87229740D01*
X166273932Y-86942842D01*
X166202919Y-86771400D01*
X180168178Y-86771400D01*
X180205500Y-86775076D01*
X180242822Y-86771400D01*
X180242833Y-86771400D01*
X180354486Y-86760403D01*
X180438889Y-86734800D01*
X180619039Y-86734800D01*
X180818998Y-86695026D01*
X181007356Y-86617005D01*
X181176874Y-86503737D01*
X181321037Y-86359574D01*
X181434305Y-86190056D01*
X181512326Y-86001698D01*
X181552100Y-85801739D01*
X181552100Y-85597861D01*
X181512326Y-85397902D01*
X181434305Y-85209544D01*
X181321037Y-85040026D01*
X181176874Y-84895863D01*
X181007356Y-84782595D01*
X180818998Y-84704574D01*
X180619039Y-84664800D01*
X180415161Y-84664800D01*
X180215202Y-84704574D01*
X180026844Y-84782595D01*
X179857326Y-84895863D01*
X179713163Y-85040026D01*
X179599895Y-85209544D01*
X179582558Y-85251400D01*
X166334072Y-85251400D01*
X166334072Y-83986000D01*
X166321812Y-83861518D01*
X166285502Y-83741820D01*
X166226537Y-83631506D01*
X166147185Y-83534815D01*
X166050494Y-83455463D01*
X165940180Y-83396498D01*
X165820482Y-83360188D01*
X165696000Y-83347928D01*
X163996000Y-83347928D01*
X163871518Y-83360188D01*
X163751820Y-83396498D01*
X163641506Y-83455463D01*
X163544815Y-83534815D01*
X163465463Y-83631506D01*
X163406498Y-83741820D01*
X163384487Y-83814380D01*
X163252632Y-83682525D01*
X163009411Y-83520010D01*
X162739158Y-83408068D01*
X162452260Y-83351000D01*
X162159740Y-83351000D01*
X161872842Y-83408068D01*
X161602589Y-83520010D01*
X161359368Y-83682525D01*
X161152525Y-83889368D01*
X160990010Y-84132589D01*
X160878068Y-84402842D01*
X160821000Y-84689740D01*
X160821000Y-84982260D01*
X160878068Y-85269158D01*
X160990010Y-85539411D01*
X161152525Y-85782632D01*
X161359368Y-85989475D01*
X161533760Y-86106000D01*
X161359368Y-86222525D01*
X161152525Y-86429368D01*
X160990010Y-86672589D01*
X160878068Y-86942842D01*
X160821000Y-87229740D01*
X160821000Y-87522260D01*
X160878068Y-87809158D01*
X160990010Y-88079411D01*
X161152525Y-88322632D01*
X161359368Y-88529475D01*
X161533760Y-88646000D01*
X161359368Y-88762525D01*
X161152525Y-88969368D01*
X160990010Y-89212589D01*
X160878068Y-89482842D01*
X160821000Y-89769740D01*
X160821000Y-90062260D01*
X160878068Y-90349158D01*
X160990010Y-90619411D01*
X161152525Y-90862632D01*
X161359368Y-91069475D01*
X161533760Y-91186000D01*
X161359368Y-91302525D01*
X161152525Y-91509368D01*
X160990010Y-91752589D01*
X160878068Y-92022842D01*
X160821000Y-92309740D01*
X160821000Y-92602260D01*
X160878068Y-92889158D01*
X160990010Y-93159411D01*
X161152525Y-93402632D01*
X161359368Y-93609475D01*
X161541534Y-93731195D01*
X161424645Y-93800822D01*
X161208412Y-93995731D01*
X161034359Y-94229080D01*
X160909175Y-94491901D01*
X160864524Y-94639110D01*
X160985845Y-94869000D01*
X162179000Y-94869000D01*
X162179000Y-94849000D01*
X162433000Y-94849000D01*
X162433000Y-94869000D01*
X162453000Y-94869000D01*
X162453000Y-95123000D01*
X162433000Y-95123000D01*
X162433000Y-96316814D01*
X162662891Y-96437481D01*
X162937252Y-96340157D01*
X163187355Y-96191178D01*
X163403588Y-95996269D01*
X163574900Y-95766594D01*
X163692525Y-95942632D01*
X163899368Y-96149475D01*
X164142589Y-96311990D01*
X164412842Y-96423932D01*
X164699740Y-96481000D01*
X164992260Y-96481000D01*
X165279158Y-96423932D01*
X165549411Y-96311990D01*
X165792632Y-96149475D01*
X165999475Y-95942632D01*
X166161990Y-95699411D01*
X166273932Y-95429158D01*
X166331000Y-95142260D01*
X166331000Y-94849740D01*
X166273932Y-94562842D01*
X166222977Y-94439825D01*
X167516003Y-93146799D01*
X167545001Y-93123001D01*
X167568802Y-93093999D01*
X167794101Y-92868700D01*
X167794100Y-96441598D01*
X166334072Y-97901626D01*
X166334072Y-97448000D01*
X166321812Y-97323518D01*
X166285502Y-97203820D01*
X166226537Y-97093506D01*
X166147185Y-96996815D01*
X166050494Y-96917463D01*
X165940180Y-96858498D01*
X165820482Y-96822188D01*
X165696000Y-96809928D01*
X163996000Y-96809928D01*
X163871518Y-96822188D01*
X163751820Y-96858498D01*
X163641506Y-96917463D01*
X163544815Y-96996815D01*
X163465463Y-97093506D01*
X163406498Y-97203820D01*
X163384487Y-97276380D01*
X163252632Y-97144525D01*
X163009411Y-96982010D01*
X162739158Y-96870068D01*
X162452260Y-96813000D01*
X162159740Y-96813000D01*
X161872842Y-96870068D01*
X161602589Y-96982010D01*
X161359368Y-97144525D01*
X161152525Y-97351368D01*
X160990010Y-97594589D01*
X160878068Y-97864842D01*
X160821000Y-98151740D01*
X160821000Y-98444260D01*
X160878068Y-98731158D01*
X160990010Y-99001411D01*
X161152525Y-99244632D01*
X161359368Y-99451475D01*
X161546000Y-99576179D01*
X161546001Y-99857928D01*
X161456000Y-99857928D01*
X161331518Y-99870188D01*
X161211820Y-99906498D01*
X161101506Y-99965463D01*
X161004815Y-100044815D01*
X160925463Y-100141506D01*
X160866498Y-100251820D01*
X160830188Y-100371518D01*
X160817928Y-100496000D01*
X160817928Y-102196000D01*
X160830188Y-102320482D01*
X160836109Y-102340000D01*
X137032279Y-102340000D01*
X136934576Y-102330420D01*
X136871643Y-102311420D01*
X136813594Y-102280554D01*
X136762657Y-102239011D01*
X136720752Y-102188356D01*
X136689485Y-102130529D01*
X136670044Y-102067728D01*
X136660000Y-101972165D01*
X136660000Y-97839874D01*
X137230881Y-97839874D01*
X137310724Y-98062976D01*
X137432631Y-98250764D01*
X137588831Y-98411161D01*
X137773322Y-98538003D01*
X137979013Y-98626415D01*
X138198000Y-98673000D01*
X138498000Y-98673000D01*
X138498000Y-97665000D01*
X138752000Y-97665000D01*
X138752000Y-98673000D01*
X139052000Y-98673000D01*
X139270987Y-98626415D01*
X139476678Y-98538003D01*
X139661169Y-98411161D01*
X139817369Y-98250764D01*
X139939276Y-98062976D01*
X140019119Y-97839874D01*
X141160881Y-97839874D01*
X141240724Y-98062976D01*
X141362631Y-98250764D01*
X141518831Y-98411161D01*
X141703322Y-98538003D01*
X141909013Y-98626415D01*
X142128000Y-98673000D01*
X142678000Y-98673000D01*
X142678000Y-97665000D01*
X142932000Y-97665000D01*
X142932000Y-98673000D01*
X143482000Y-98673000D01*
X143700987Y-98626415D01*
X143906678Y-98538003D01*
X144091169Y-98411161D01*
X144247369Y-98250764D01*
X144369276Y-98062976D01*
X144449119Y-97839874D01*
X144322954Y-97665000D01*
X142932000Y-97665000D01*
X142678000Y-97665000D01*
X141287046Y-97665000D01*
X141160881Y-97839874D01*
X140019119Y-97839874D01*
X139892954Y-97665000D01*
X138752000Y-97665000D01*
X138498000Y-97665000D01*
X137357046Y-97665000D01*
X137230881Y-97839874D01*
X136660000Y-97839874D01*
X136660000Y-97236126D01*
X137230881Y-97236126D01*
X137357046Y-97411000D01*
X138498000Y-97411000D01*
X138498000Y-96403000D01*
X138752000Y-96403000D01*
X138752000Y-97411000D01*
X139892954Y-97411000D01*
X140019119Y-97236126D01*
X141160881Y-97236126D01*
X141287046Y-97411000D01*
X142678000Y-97411000D01*
X142678000Y-97391000D01*
X142932000Y-97391000D01*
X142932000Y-97411000D01*
X144322954Y-97411000D01*
X144449119Y-97236126D01*
X144369276Y-97013024D01*
X144247369Y-96825236D01*
X144091169Y-96664839D01*
X143906678Y-96537997D01*
X143700987Y-96449585D01*
X143482000Y-96403000D01*
X143221904Y-96403000D01*
X143228108Y-96388022D01*
X143265000Y-96202552D01*
X143265000Y-96013448D01*
X143228108Y-95827978D01*
X143155741Y-95653269D01*
X143050681Y-95496036D01*
X142916964Y-95362319D01*
X142902853Y-95352890D01*
X160864524Y-95352890D01*
X160909175Y-95500099D01*
X161034359Y-95762920D01*
X161208412Y-95996269D01*
X161424645Y-96191178D01*
X161674748Y-96340157D01*
X161949109Y-96437481D01*
X162179000Y-96316814D01*
X162179000Y-95123000D01*
X160985845Y-95123000D01*
X160864524Y-95352890D01*
X142902853Y-95352890D01*
X142759731Y-95257259D01*
X142585022Y-95184892D01*
X142399552Y-95148000D01*
X142210448Y-95148000D01*
X142024978Y-95184892D01*
X141850269Y-95257259D01*
X141693036Y-95362319D01*
X141559319Y-95496036D01*
X141454259Y-95653269D01*
X141381892Y-95827978D01*
X141345000Y-96013448D01*
X141345000Y-96202552D01*
X141381892Y-96388022D01*
X141454259Y-96562731D01*
X141521335Y-96663117D01*
X141518831Y-96664839D01*
X141362631Y-96825236D01*
X141240724Y-97013024D01*
X141160881Y-97236126D01*
X140019119Y-97236126D01*
X139939276Y-97013024D01*
X139817369Y-96825236D01*
X139661169Y-96664839D01*
X139476678Y-96537997D01*
X139270987Y-96449585D01*
X139052000Y-96403000D01*
X138752000Y-96403000D01*
X138498000Y-96403000D01*
X138198000Y-96403000D01*
X137979013Y-96449585D01*
X137773322Y-96537997D01*
X137588831Y-96664839D01*
X137432631Y-96825236D01*
X137310724Y-97013024D01*
X137230881Y-97236126D01*
X136660000Y-97236126D01*
X136660000Y-89199874D01*
X137230881Y-89199874D01*
X137310724Y-89422976D01*
X137432631Y-89610764D01*
X137588831Y-89771161D01*
X137773322Y-89898003D01*
X137979013Y-89986415D01*
X138198000Y-90033000D01*
X138498000Y-90033000D01*
X138498000Y-89025000D01*
X138752000Y-89025000D01*
X138752000Y-90033000D01*
X139052000Y-90033000D01*
X139270987Y-89986415D01*
X139476678Y-89898003D01*
X139661169Y-89771161D01*
X139817369Y-89610764D01*
X139939276Y-89422976D01*
X140019119Y-89199874D01*
X141160881Y-89199874D01*
X141240724Y-89422976D01*
X141362631Y-89610764D01*
X141518831Y-89771161D01*
X141521335Y-89772883D01*
X141454259Y-89873269D01*
X141381892Y-90047978D01*
X141345000Y-90233448D01*
X141345000Y-90422552D01*
X141381892Y-90608022D01*
X141454259Y-90782731D01*
X141559319Y-90939964D01*
X141693036Y-91073681D01*
X141850269Y-91178741D01*
X142024978Y-91251108D01*
X142210448Y-91288000D01*
X142399552Y-91288000D01*
X142585022Y-91251108D01*
X142759731Y-91178741D01*
X142916964Y-91073681D01*
X143050681Y-90939964D01*
X143155741Y-90782731D01*
X143228108Y-90608022D01*
X143265000Y-90422552D01*
X143265000Y-90233448D01*
X143228108Y-90047978D01*
X143221904Y-90033000D01*
X143482000Y-90033000D01*
X143700987Y-89986415D01*
X143906678Y-89898003D01*
X144091169Y-89771161D01*
X144247369Y-89610764D01*
X144369276Y-89422976D01*
X144449119Y-89199874D01*
X144322954Y-89025000D01*
X142932000Y-89025000D01*
X142932000Y-89045000D01*
X142678000Y-89045000D01*
X142678000Y-89025000D01*
X141287046Y-89025000D01*
X141160881Y-89199874D01*
X140019119Y-89199874D01*
X139892954Y-89025000D01*
X138752000Y-89025000D01*
X138498000Y-89025000D01*
X137357046Y-89025000D01*
X137230881Y-89199874D01*
X136660000Y-89199874D01*
X136660000Y-88596126D01*
X137230881Y-88596126D01*
X137357046Y-88771000D01*
X138498000Y-88771000D01*
X138498000Y-87763000D01*
X138752000Y-87763000D01*
X138752000Y-88771000D01*
X139892954Y-88771000D01*
X140019119Y-88596126D01*
X141160881Y-88596126D01*
X141287046Y-88771000D01*
X142678000Y-88771000D01*
X142678000Y-87763000D01*
X142932000Y-87763000D01*
X142932000Y-88771000D01*
X144322954Y-88771000D01*
X144449119Y-88596126D01*
X144369276Y-88373024D01*
X144247369Y-88185236D01*
X144091169Y-88024839D01*
X143906678Y-87897997D01*
X143700987Y-87809585D01*
X143482000Y-87763000D01*
X142932000Y-87763000D01*
X142678000Y-87763000D01*
X142128000Y-87763000D01*
X141909013Y-87809585D01*
X141703322Y-87897997D01*
X141518831Y-88024839D01*
X141362631Y-88185236D01*
X141240724Y-88373024D01*
X141160881Y-88596126D01*
X140019119Y-88596126D01*
X139939276Y-88373024D01*
X139817369Y-88185236D01*
X139661169Y-88024839D01*
X139476678Y-87897997D01*
X139270987Y-87809585D01*
X139052000Y-87763000D01*
X138752000Y-87763000D01*
X138498000Y-87763000D01*
X138198000Y-87763000D01*
X137979013Y-87809585D01*
X137773322Y-87897997D01*
X137588831Y-88024839D01*
X137432631Y-88185236D01*
X137310724Y-88373024D01*
X137230881Y-88596126D01*
X136660000Y-88596126D01*
X136660000Y-81032279D01*
X136669580Y-80934576D01*
X136688580Y-80871644D01*
X136719445Y-80813595D01*
X136760989Y-80762657D01*
X136811644Y-80720752D01*
X136869471Y-80689485D01*
X136932272Y-80670044D01*
X137027835Y-80660000D01*
X205449952Y-80660000D01*
X205290589Y-80726010D01*
G37*
%TD.AperFunction*%
D19*
X164973000Y-92329000D02*
X164993000Y-92329000D01*
X164993000Y-92583000D01*
X164973000Y-92583000D01*
X164973000Y-92603000D01*
X164719000Y-92603000D01*
X164719000Y-92583000D01*
X164699000Y-92583000D01*
X164699000Y-92329000D01*
X164719000Y-92329000D01*
X164719000Y-92309000D01*
X164973000Y-92309000D01*
X164973000Y-92329000D01*
%TA.AperFunction,Conductor*%
D20*
G36*
X164973000Y-92329000D02*
G01*
X164993000Y-92329000D01*
X164993000Y-92583000D01*
X164973000Y-92583000D01*
X164973000Y-92603000D01*
X164719000Y-92603000D01*
X164719000Y-92583000D01*
X164699000Y-92583000D01*
X164699000Y-92329000D01*
X164719000Y-92329000D01*
X164719000Y-92309000D01*
X164973000Y-92309000D01*
X164973000Y-92329000D01*
G37*
%TD.AperFunction*%
%TD*%
D21*
X177038000Y-101600000D03*
X179070000Y-101600000D03*
X180848000Y-101600000D03*
X182626000Y-101600000D03*
X184150000Y-101600000D03*
X185928000Y-101600000D03*
X187706000Y-101600000D03*
X189738000Y-101600000D03*
X191770000Y-101600000D03*
X193548000Y-101600000D03*
X195326000Y-101600000D03*
X197358000Y-101600000D03*
X199644000Y-101600000D03*
X201422000Y-101600000D03*
X203454000Y-101600000D03*
X205486000Y-101600000D03*
X170942000Y-101600000D03*
X172974000Y-101600000D03*
X175006000Y-101600000D03*
X139446000Y-100330000D03*
X141986000Y-100330000D03*
X144272000Y-100330000D03*
X146812000Y-100330000D03*
X149860000Y-100330000D03*
X152654000Y-100330000D03*
X155448000Y-100330000D03*
X158242000Y-100330000D03*
D22*
X168554100Y-92056400D03*
X180517100Y-85699800D03*
X195083800Y-85112400D03*
X177449600Y-92160500D03*
X205994000Y-82042000D03*
X205994000Y-84582000D03*
X205994000Y-87122000D03*
X205994000Y-89662000D03*
X205994000Y-92202000D03*
X142305000Y-90328000D03*
X142305000Y-96108000D03*
D23*
X138625000Y-97538000D03*
X138625000Y-88898000D03*
D24*
X142805000Y-97538000D03*
X142805000Y-88898000D03*
D22*
X162306000Y-98298000D03*
X164846000Y-98298000D03*
X162306000Y-94996000D03*
X164846000Y-94996000D03*
X162306000Y-92456000D03*
X164846000Y-92456000D03*
X162306000Y-89916000D03*
X164846000Y-89916000D03*
X162306000Y-87376000D03*
X164846000Y-87376000D03*
X162306000Y-84836000D03*
X164846000Y-84836000D03*
X167386000Y-101346000D03*
X164846000Y-101346000D03*
X162306000Y-101346000D03*
X208280000Y-100330000D03*
X208280000Y-95250000D03*
X213360000Y-95250000D03*
X213360000Y-100330000D03*
X210820000Y-97790000D03*
M02*
