%TF.GenerationSoftware,KiCad,Pcbnew,(5.1.9)-1*%
%TF.CreationDate,2021-02-24T20:28:46+08:00*%
%TF.ProjectId,M-HL10-kit,4d2d484c-3130-42d6-9b69-742e6b696361,rev?*%
%TF.SameCoordinates,Original*%
%TF.FileFunction,Legend,Bot*%
%TF.FilePolarity,Positive*%
%FSLAX46Y46*%
G04 Gerber Fmt 4.6, Leading zero omitted, Abs format (unit mm)*
G04 Created by KiCad (PCBNEW (5.1.9)-1) date 2021-02-24 20:28:46*
%MOMM*%
%LPD*%
G01*
G04 APERTURE LIST*
%ADD10C,0.150000*%
G04 APERTURE END LIST*
D10*
X195738190Y-89797380D02*
X195738190Y-88797380D01*
X195404857Y-89511666D01*
X195071523Y-88797380D01*
X195071523Y-89797380D01*
X194595333Y-89416428D02*
X193833428Y-89416428D01*
X193357238Y-89797380D02*
X193357238Y-88797380D01*
X193357238Y-89273571D02*
X192785809Y-89273571D01*
X192785809Y-89797380D02*
X192785809Y-88797380D01*
X191833428Y-89797380D02*
X192309619Y-89797380D01*
X192309619Y-88797380D01*
X190976285Y-89797380D02*
X191547714Y-89797380D01*
X191262000Y-89797380D02*
X191262000Y-88797380D01*
X191357238Y-88940238D01*
X191452476Y-89035476D01*
X191547714Y-89083095D01*
X190357238Y-88797380D02*
X190262000Y-88797380D01*
X190166761Y-88845000D01*
X190119142Y-88892619D01*
X190071523Y-88987857D01*
X190023904Y-89178333D01*
X190023904Y-89416428D01*
X190071523Y-89606904D01*
X190119142Y-89702142D01*
X190166761Y-89749761D01*
X190262000Y-89797380D01*
X190357238Y-89797380D01*
X190452476Y-89749761D01*
X190500095Y-89702142D01*
X190547714Y-89606904D01*
X190595333Y-89416428D01*
X190595333Y-89178333D01*
X190547714Y-88987857D01*
X190500095Y-88892619D01*
X190452476Y-88845000D01*
X190357238Y-88797380D01*
X189595333Y-89416428D02*
X188833428Y-89416428D01*
X188357238Y-89797380D02*
X188357238Y-88797380D01*
X187785809Y-89797380D02*
X188214380Y-89225952D01*
X187785809Y-88797380D02*
X188357238Y-89368809D01*
X187357238Y-89797380D02*
X187357238Y-89130714D01*
X187357238Y-88797380D02*
X187404857Y-88845000D01*
X187357238Y-88892619D01*
X187309619Y-88845000D01*
X187357238Y-88797380D01*
X187357238Y-88892619D01*
X187023904Y-89130714D02*
X186642952Y-89130714D01*
X186881047Y-88797380D02*
X186881047Y-89654523D01*
X186833428Y-89749761D01*
X186738190Y-89797380D01*
X186642952Y-89797380D01*
X194238190Y-90447380D02*
X193904857Y-91447380D01*
X193571523Y-90447380D01*
X192857238Y-91399761D02*
X192952476Y-91447380D01*
X193142952Y-91447380D01*
X193238190Y-91399761D01*
X193285809Y-91304523D01*
X193285809Y-90923571D01*
X193238190Y-90828333D01*
X193142952Y-90780714D01*
X192952476Y-90780714D01*
X192857238Y-90828333D01*
X192809619Y-90923571D01*
X192809619Y-91018809D01*
X193285809Y-91114047D01*
X192381047Y-91447380D02*
X192381047Y-90780714D01*
X192381047Y-90971190D02*
X192333428Y-90875952D01*
X192285809Y-90828333D01*
X192190571Y-90780714D01*
X192095333Y-90780714D01*
X191238190Y-91447380D02*
X191809619Y-91447380D01*
X191523904Y-91447380D02*
X191523904Y-90447380D01*
X191619142Y-90590238D01*
X191714380Y-90685476D01*
X191809619Y-90733095D01*
X190809619Y-91352142D02*
X190762000Y-91399761D01*
X190809619Y-91447380D01*
X190857238Y-91399761D01*
X190809619Y-91352142D01*
X190809619Y-91447380D01*
X190142952Y-90447380D02*
X190047714Y-90447380D01*
X189952476Y-90495000D01*
X189904857Y-90542619D01*
X189857238Y-90637857D01*
X189809619Y-90828333D01*
X189809619Y-91066428D01*
X189857238Y-91256904D01*
X189904857Y-91352142D01*
X189952476Y-91399761D01*
X190047714Y-91447380D01*
X190142952Y-91447380D01*
X190238190Y-91399761D01*
X190285809Y-91352142D01*
X190333428Y-91256904D01*
X190381047Y-91066428D01*
X190381047Y-90828333D01*
X190333428Y-90637857D01*
X190285809Y-90542619D01*
X190238190Y-90495000D01*
X190142952Y-90447380D01*
X189381047Y-91352142D02*
X189333428Y-91399761D01*
X189381047Y-91447380D01*
X189428666Y-91399761D01*
X189381047Y-91352142D01*
X189381047Y-91447380D01*
X188714380Y-90447380D02*
X188619142Y-90447380D01*
X188523904Y-90495000D01*
X188476285Y-90542619D01*
X188428666Y-90637857D01*
X188381047Y-90828333D01*
X188381047Y-91066428D01*
X188428666Y-91256904D01*
X188476285Y-91352142D01*
X188523904Y-91399761D01*
X188619142Y-91447380D01*
X188714380Y-91447380D01*
X188809619Y-91399761D01*
X188857238Y-91352142D01*
X188904857Y-91256904D01*
X188952476Y-91066428D01*
X188952476Y-90828333D01*
X188904857Y-90637857D01*
X188857238Y-90542619D01*
X188809619Y-90495000D01*
X188714380Y-90447380D01*
X199341238Y-98687380D02*
X199341238Y-97687380D01*
X198960285Y-97687380D01*
X198865047Y-97735000D01*
X198817428Y-97782619D01*
X198769809Y-97877857D01*
X198769809Y-98020714D01*
X198817428Y-98115952D01*
X198865047Y-98163571D01*
X198960285Y-98211190D01*
X199341238Y-98211190D01*
X197769809Y-98592142D02*
X197817428Y-98639761D01*
X197960285Y-98687380D01*
X198055523Y-98687380D01*
X198198380Y-98639761D01*
X198293619Y-98544523D01*
X198341238Y-98449285D01*
X198388857Y-98258809D01*
X198388857Y-98115952D01*
X198341238Y-97925476D01*
X198293619Y-97830238D01*
X198198380Y-97735000D01*
X198055523Y-97687380D01*
X197960285Y-97687380D01*
X197817428Y-97735000D01*
X197769809Y-97782619D01*
X197007904Y-98163571D02*
X196865047Y-98211190D01*
X196817428Y-98258809D01*
X196769809Y-98354047D01*
X196769809Y-98496904D01*
X196817428Y-98592142D01*
X196865047Y-98639761D01*
X196960285Y-98687380D01*
X197341238Y-98687380D01*
X197341238Y-97687380D01*
X197007904Y-97687380D01*
X196912666Y-97735000D01*
X196865047Y-97782619D01*
X196817428Y-97877857D01*
X196817428Y-97973095D01*
X196865047Y-98068333D01*
X196912666Y-98115952D01*
X197007904Y-98163571D01*
X197341238Y-98163571D01*
X195579333Y-98687380D02*
X195579333Y-97687380D01*
X195341238Y-97687380D01*
X195198380Y-97735000D01*
X195103142Y-97830238D01*
X195055523Y-97925476D01*
X195007904Y-98115952D01*
X195007904Y-98258809D01*
X195055523Y-98449285D01*
X195103142Y-98544523D01*
X195198380Y-98639761D01*
X195341238Y-98687380D01*
X195579333Y-98687380D01*
X194198380Y-98639761D02*
X194293619Y-98687380D01*
X194484095Y-98687380D01*
X194579333Y-98639761D01*
X194626952Y-98544523D01*
X194626952Y-98163571D01*
X194579333Y-98068333D01*
X194484095Y-98020714D01*
X194293619Y-98020714D01*
X194198380Y-98068333D01*
X194150761Y-98163571D01*
X194150761Y-98258809D01*
X194626952Y-98354047D01*
X193769809Y-98639761D02*
X193674571Y-98687380D01*
X193484095Y-98687380D01*
X193388857Y-98639761D01*
X193341238Y-98544523D01*
X193341238Y-98496904D01*
X193388857Y-98401666D01*
X193484095Y-98354047D01*
X193626952Y-98354047D01*
X193722190Y-98306428D01*
X193769809Y-98211190D01*
X193769809Y-98163571D01*
X193722190Y-98068333D01*
X193626952Y-98020714D01*
X193484095Y-98020714D01*
X193388857Y-98068333D01*
X192912666Y-98687380D02*
X192912666Y-98020714D01*
X192912666Y-97687380D02*
X192960285Y-97735000D01*
X192912666Y-97782619D01*
X192865047Y-97735000D01*
X192912666Y-97687380D01*
X192912666Y-97782619D01*
X192007904Y-98020714D02*
X192007904Y-98830238D01*
X192055523Y-98925476D01*
X192103142Y-98973095D01*
X192198380Y-99020714D01*
X192341238Y-99020714D01*
X192436476Y-98973095D01*
X192007904Y-98639761D02*
X192103142Y-98687380D01*
X192293619Y-98687380D01*
X192388857Y-98639761D01*
X192436476Y-98592142D01*
X192484095Y-98496904D01*
X192484095Y-98211190D01*
X192436476Y-98115952D01*
X192388857Y-98068333D01*
X192293619Y-98020714D01*
X192103142Y-98020714D01*
X192007904Y-98068333D01*
X191531714Y-98020714D02*
X191531714Y-98687380D01*
X191531714Y-98115952D02*
X191484095Y-98068333D01*
X191388857Y-98020714D01*
X191246000Y-98020714D01*
X191150761Y-98068333D01*
X191103142Y-98163571D01*
X191103142Y-98687380D01*
X190246000Y-98639761D02*
X190341238Y-98687380D01*
X190531714Y-98687380D01*
X190626952Y-98639761D01*
X190674571Y-98544523D01*
X190674571Y-98163571D01*
X190626952Y-98068333D01*
X190531714Y-98020714D01*
X190341238Y-98020714D01*
X190246000Y-98068333D01*
X190198380Y-98163571D01*
X190198380Y-98258809D01*
X190674571Y-98354047D01*
X189341238Y-98687380D02*
X189341238Y-97687380D01*
X189341238Y-98639761D02*
X189436476Y-98687380D01*
X189626952Y-98687380D01*
X189722190Y-98639761D01*
X189769809Y-98592142D01*
X189817428Y-98496904D01*
X189817428Y-98211190D01*
X189769809Y-98115952D01*
X189722190Y-98068333D01*
X189626952Y-98020714D01*
X189436476Y-98020714D01*
X189341238Y-98068333D01*
X187769809Y-98163571D02*
X187626952Y-98211190D01*
X187579333Y-98258809D01*
X187531714Y-98354047D01*
X187531714Y-98496904D01*
X187579333Y-98592142D01*
X187626952Y-98639761D01*
X187722190Y-98687380D01*
X188103142Y-98687380D01*
X188103142Y-97687380D01*
X187769809Y-97687380D01*
X187674571Y-97735000D01*
X187626952Y-97782619D01*
X187579333Y-97877857D01*
X187579333Y-97973095D01*
X187626952Y-98068333D01*
X187674571Y-98115952D01*
X187769809Y-98163571D01*
X188103142Y-98163571D01*
X187198380Y-98020714D02*
X186960285Y-98687380D01*
X186722190Y-98020714D02*
X186960285Y-98687380D01*
X187055523Y-98925476D01*
X187103142Y-98973095D01*
X187198380Y-99020714D01*
X185579333Y-98687380D02*
X185579333Y-97687380D01*
X185341238Y-97687380D01*
X185198380Y-97735000D01*
X185103142Y-97830238D01*
X185055523Y-97925476D01*
X185007904Y-98115952D01*
X185007904Y-98258809D01*
X185055523Y-98449285D01*
X185103142Y-98544523D01*
X185198380Y-98639761D01*
X185341238Y-98687380D01*
X185579333Y-98687380D01*
X184150761Y-98687380D02*
X184150761Y-98163571D01*
X184198380Y-98068333D01*
X184293619Y-98020714D01*
X184484095Y-98020714D01*
X184579333Y-98068333D01*
X184150761Y-98639761D02*
X184246000Y-98687380D01*
X184484095Y-98687380D01*
X184579333Y-98639761D01*
X184626952Y-98544523D01*
X184626952Y-98449285D01*
X184579333Y-98354047D01*
X184484095Y-98306428D01*
X184246000Y-98306428D01*
X184150761Y-98258809D01*
X183674571Y-98687380D02*
X183674571Y-98020714D01*
X183674571Y-98211190D02*
X183626952Y-98115952D01*
X183579333Y-98068333D01*
X183484095Y-98020714D01*
X183388857Y-98020714D01*
X183055523Y-98687380D02*
X183055523Y-98020714D01*
X183055523Y-98211190D02*
X183007904Y-98115952D01*
X182960285Y-98068333D01*
X182865047Y-98020714D01*
X182769809Y-98020714D01*
X182055523Y-98639761D02*
X182150761Y-98687380D01*
X182341238Y-98687380D01*
X182436476Y-98639761D01*
X182484095Y-98544523D01*
X182484095Y-98163571D01*
X182436476Y-98068333D01*
X182341238Y-98020714D01*
X182150761Y-98020714D01*
X182055523Y-98068333D01*
X182007904Y-98163571D01*
X182007904Y-98258809D01*
X182484095Y-98354047D01*
X181579333Y-98020714D02*
X181579333Y-98687380D01*
X181579333Y-98115952D02*
X181531714Y-98068333D01*
X181436476Y-98020714D01*
X181293619Y-98020714D01*
X181198380Y-98068333D01*
X181150761Y-98163571D01*
X181150761Y-98687380D01*
X193865047Y-99432619D02*
X193817428Y-99385000D01*
X193722190Y-99337380D01*
X193484095Y-99337380D01*
X193388857Y-99385000D01*
X193341238Y-99432619D01*
X193293619Y-99527857D01*
X193293619Y-99623095D01*
X193341238Y-99765952D01*
X193912666Y-100337380D01*
X193293619Y-100337380D01*
X192674571Y-99337380D02*
X192579333Y-99337380D01*
X192484095Y-99385000D01*
X192436476Y-99432619D01*
X192388857Y-99527857D01*
X192341238Y-99718333D01*
X192341238Y-99956428D01*
X192388857Y-100146904D01*
X192436476Y-100242142D01*
X192484095Y-100289761D01*
X192579333Y-100337380D01*
X192674571Y-100337380D01*
X192769809Y-100289761D01*
X192817428Y-100242142D01*
X192865047Y-100146904D01*
X192912666Y-99956428D01*
X192912666Y-99718333D01*
X192865047Y-99527857D01*
X192817428Y-99432619D01*
X192769809Y-99385000D01*
X192674571Y-99337380D01*
X191960285Y-99432619D02*
X191912666Y-99385000D01*
X191817428Y-99337380D01*
X191579333Y-99337380D01*
X191484095Y-99385000D01*
X191436476Y-99432619D01*
X191388857Y-99527857D01*
X191388857Y-99623095D01*
X191436476Y-99765952D01*
X192007904Y-100337380D01*
X191388857Y-100337380D01*
X190436476Y-100337380D02*
X191007904Y-100337380D01*
X190722190Y-100337380D02*
X190722190Y-99337380D01*
X190817428Y-99480238D01*
X190912666Y-99575476D01*
X191007904Y-99623095D01*
X190007904Y-100242142D02*
X189960285Y-100289761D01*
X190007904Y-100337380D01*
X190055523Y-100289761D01*
X190007904Y-100242142D01*
X190007904Y-100337380D01*
X189579333Y-99432619D02*
X189531714Y-99385000D01*
X189436476Y-99337380D01*
X189198380Y-99337380D01*
X189103142Y-99385000D01*
X189055523Y-99432619D01*
X189007904Y-99527857D01*
X189007904Y-99623095D01*
X189055523Y-99765952D01*
X189626952Y-100337380D01*
X189007904Y-100337380D01*
X188579333Y-100242142D02*
X188531714Y-100289761D01*
X188579333Y-100337380D01*
X188626952Y-100289761D01*
X188579333Y-100242142D01*
X188579333Y-100337380D01*
X188150761Y-99432619D02*
X188103142Y-99385000D01*
X188007904Y-99337380D01*
X187769809Y-99337380D01*
X187674571Y-99385000D01*
X187626952Y-99432619D01*
X187579333Y-99527857D01*
X187579333Y-99623095D01*
X187626952Y-99765952D01*
X188198380Y-100337380D01*
X187579333Y-100337380D01*
X186722190Y-99670714D02*
X186722190Y-100337380D01*
X186960285Y-99289761D02*
X187198380Y-100004047D01*
X186579333Y-100004047D01*
M02*
